<?xml version="1.0" encoding="utf-8" standalone="no"?>
<!DOCTYPE svg PUBLIC "-//W3C//DTD SVG 1.1//EN"
  "http://www.w3.org/Graphics/SVG/1.1/DTD/svg11.dtd">
<svg xmlns:xlink="http://www.w3.org/1999/xlink" width="282.606663pt" height="325.986375pt" viewBox="0 0 282.606663 325.986375" xmlns="http://www.w3.org/2000/svg" version="1.1">
 <metadata>
  <rdf:RDF xmlns:dc="http://purl.org/dc/elements/1.1/" xmlns:cc="http://creativecommons.org/ns#" xmlns:rdf="http://www.w3.org/1999/02/22-rdf-syntax-ns#">
   <cc:Work>
    <dc:type rdf:resource="http://purl.org/dc/dcmitype/StillImage"/>
    <dc:date>2025-12-01T14:08:19.097620</dc:date>
    <dc:format>image/svg+xml</dc:format>
    <dc:creator>
     <cc:Agent>
      <dc:title>Matplotlib v3.10.7, https://matplotlib.org/</dc:title>
     </cc:Agent>
    </dc:creator>
   </cc:Work>
  </rdf:RDF>
 </metadata>
 <defs>
  <style type="text/css">*{stroke-linejoin: round; stroke-linecap: butt}</style>
 </defs>
 <g id="figure_1">
  <g id="patch_1">
   <path d="M 0 325.986375 
L 282.606663 325.986375 
L 282.606663 0 
L 0 0 
z
" style="fill: #ffffff"/>
  </g>
  <g id="axes_1">
   <g id="patch_2">
    <path d="M 65.411813 288.430125 
L 210.563812 288.430125 
L 210.563812 22.318125 
L 65.411813 22.318125 
z
" style="fill: #ffffff"/>
   </g>
   <g id="QuadContourSet_1">
    <path d="M 135.860375 161.761906 
L 136.71135 161.761906 
L 137.562325 161.761906 
L 138.4133 161.761906 
L 139.264275 161.761906 
L 140.11525 161.761906 
L 140.966225 161.761906 
L 140.966225 160.479974 
L 140.966225 159.02116 
L 140.966225 157.562346 
L 140.966225 156.103532 
L 140.966225 154.644718 
L 140.966225 153.185904 
L 140.966225 151.72709 
L 140.966225 150.268276 
L 140.966225 148.986344 
L 140.11525 148.986344 
L 139.264275 148.986344 
L 138.4133 148.986344 
L 137.562325 148.986344 
L 136.71135 148.986344 
L 135.860375 148.986344 
L 135.0094 148.986344 
L 135.0094 150.268276 
L 135.0094 151.72709 
L 135.0094 153.185904 
L 135.0094 154.644718 
L 135.0094 156.103532 
L 135.0094 157.562346 
L 135.0094 159.02116 
L 135.0094 160.479974 
L 135.0094 161.761906 
z
" clip-path="url(#p46ebbffe6e)" style="fill: #1d068e"/>
    <path d="M 135.860375 168.155403 
L 136.71135 168.155403 
L 137.562325 168.155403 
L 138.4133 168.155403 
L 139.264275 168.155403 
L 140.11525 168.155403 
L 140.966225 168.155403 
L 140.966225 167.774045 
L 140.966225 166.315231 
L 140.966225 164.856416 
L 140.966225 163.397602 
L 140.966225 161.938788 
L 140.966225 161.761906 
L 140.11525 161.761906 
L 139.264275 161.761906 
L 138.4133 161.761906 
L 137.562325 161.761906 
L 136.71135 161.761906 
L 135.860375 161.761906 
L 135.0094 161.761906 
L 135.0094 161.938788 
L 135.0094 163.397602 
L 135.0094 164.856416 
L 135.0094 166.315231 
L 135.0094 167.774045 
L 135.0094 168.155403 
z
M 135.860375 148.986344 
L 136.71135 148.986344 
L 137.562325 148.986344 
L 138.4133 148.986344 
L 139.264275 148.986344 
L 140.11525 148.986344 
L 140.966225 148.986344 
L 140.966225 148.809462 
L 140.966225 147.350648 
L 140.966225 145.891834 
L 140.966225 144.433019 
L 140.966225 142.974205 
L 140.966225 142.592847 
L 140.11525 142.592847 
L 139.264275 142.592847 
L 138.4133 142.592847 
L 137.562325 142.592847 
L 136.71135 142.592847 
L 135.860375 142.592847 
L 135.0094 142.592847 
L 135.0094 142.974205 
L 135.0094 144.433019 
L 135.0094 145.891834 
L 135.0094 147.350648 
L 135.0094 148.809462 
L 135.0094 148.986344 
z
" clip-path="url(#p46ebbffe6e)" style="fill: #38049a"/>
    <path d="M 135.860375 174.547621 
L 136.71135 174.547621 
L 137.562325 174.547621 
L 138.4133 174.547621 
L 139.264275 174.547621 
L 140.11525 174.547621 
L 140.966225 174.547621 
L 140.966225 173.609301 
L 140.966225 172.150487 
L 140.966225 170.691673 
L 140.966225 169.232859 
L 140.966225 168.155403 
L 140.11525 168.155403 
L 139.264275 168.155403 
L 138.4133 168.155403 
L 137.562325 168.155403 
L 136.71135 168.155403 
L 135.860375 168.155403 
L 135.0094 168.155403 
L 135.0094 169.232859 
L 135.0094 170.691673 
L 135.0094 172.150487 
L 135.0094 173.609301 
L 135.0094 174.547621 
z
M 135.860375 142.592847 
L 136.71135 142.592847 
L 137.562325 142.592847 
L 138.4133 142.592847 
L 139.264275 142.592847 
L 140.11525 142.592847 
L 140.966225 142.592847 
L 140.966225 141.515391 
L 140.966225 140.056577 
L 140.966225 138.597763 
L 140.966225 137.138949 
L 140.966225 136.200629 
L 140.11525 136.200629 
L 139.264275 136.200629 
L 138.4133 136.200629 
L 137.562325 136.200629 
L 136.71135 136.200629 
L 135.860375 136.200629 
L 135.0094 136.200629 
L 135.0094 137.138949 
L 135.0094 138.597763 
L 135.0094 140.056577 
L 135.0094 141.515391 
L 135.0094 142.592847 
z
" clip-path="url(#p46ebbffe6e)" style="fill: #4e02a2"/>
    <path d="M 135.860375 180.939523 
L 136.71135 180.939523 
L 137.562325 180.939523 
L 138.4133 180.939523 
L 139.264275 180.939523 
L 140.11525 180.939523 
L 140.966225 180.939523 
L 140.966225 180.903371 
L 140.966225 179.444557 
L 140.966225 177.985743 
L 140.966225 176.526929 
L 140.966225 175.068115 
L 140.966225 174.547621 
L 140.11525 174.547621 
L 139.264275 174.547621 
L 138.4133 174.547621 
L 137.562325 174.547621 
L 136.71135 174.547621 
L 135.860375 174.547621 
L 135.0094 174.547621 
L 135.0094 175.068115 
L 135.0094 176.526929 
L 135.0094 177.985743 
L 135.0094 179.444557 
L 135.0094 180.903371 
L 135.0094 180.939523 
z
M 135.860375 136.200629 
L 136.71135 136.200629 
L 137.562325 136.200629 
L 138.4133 136.200629 
L 139.264275 136.200629 
L 140.11525 136.200629 
L 140.966225 136.200629 
L 140.966225 135.680135 
L 140.966225 134.221321 
L 140.966225 132.762507 
L 140.966225 131.303693 
L 140.966225 129.844879 
L 140.966225 129.808727 
L 140.11525 129.808727 
L 139.264275 129.808727 
L 138.4133 129.808727 
L 137.562325 129.808727 
L 136.71135 129.808727 
L 135.860375 129.808727 
L 135.0094 129.808727 
L 135.0094 129.844879 
L 135.0094 131.303693 
L 135.0094 132.762507 
L 135.0094 134.221321 
L 135.0094 135.680135 
L 135.0094 136.200629 
z
" clip-path="url(#p46ebbffe6e)" style="fill: #6400a7"/>
    <path d="M 135.860375 187.331297 
L 136.71135 187.331297 
L 137.562325 187.331297 
L 138.4133 187.331297 
L 139.264275 187.331297 
L 140.11525 187.331297 
L 140.966225 187.331297 
L 140.966225 186.738628 
L 140.966225 185.279813 
L 140.966225 183.820999 
L 140.966225 182.362185 
L 140.966225 180.939523 
L 140.11525 180.939523 
L 139.264275 180.939523 
L 138.4133 180.939523 
L 137.562325 180.939523 
L 136.71135 180.939523 
L 135.860375 180.939523 
L 135.0094 180.939523 
L 135.0094 182.362185 
L 135.0094 183.820999 
L 135.0094 185.279813 
L 135.0094 186.738628 
L 135.0094 187.331297 
z
M 135.860375 129.808727 
L 136.71135 129.808727 
L 137.562325 129.808727 
L 138.4133 129.808727 
L 139.264275 129.808727 
L 140.11525 129.808727 
L 140.966225 129.808727 
L 140.966225 128.386065 
L 140.966225 126.927251 
L 140.966225 125.468437 
L 140.966225 124.009622 
L 140.966225 123.416953 
L 140.11525 123.416953 
L 139.264275 123.416953 
L 138.4133 123.416953 
L 137.562325 123.416953 
L 136.71135 123.416953 
L 135.860375 123.416953 
L 135.0094 123.416953 
L 135.0094 124.009622 
L 135.0094 125.468437 
L 135.0094 126.927251 
L 135.0094 128.386065 
L 135.0094 129.808727 
z
" clip-path="url(#p46ebbffe6e)" style="fill: #7801a8"/>
    <path d="M 135.860375 193.723009 
L 136.71135 193.723009 
L 137.562325 193.723009 
L 138.4133 193.723009 
L 139.264275 193.723009 
L 140.11525 193.723009 
L 140.966225 193.723009 
L 140.966225 192.573884 
L 140.966225 191.11507 
L 140.966225 189.656256 
L 140.966225 188.197442 
L 140.966225 187.331297 
L 140.11525 187.331297 
L 139.264275 187.331297 
L 138.4133 187.331297 
L 137.562325 187.331297 
L 136.71135 187.331297 
L 135.860375 187.331297 
L 135.0094 187.331297 
L 135.0094 188.197442 
L 135.0094 189.656256 
L 135.0094 191.11507 
L 135.0094 192.573884 
L 135.0094 193.723009 
z
M 135.860375 123.416953 
L 136.71135 123.416953 
L 137.562325 123.416953 
L 138.4133 123.416953 
L 139.264275 123.416953 
L 140.11525 123.416953 
L 140.966225 123.416953 
L 140.966225 122.550808 
L 140.966225 121.091994 
L 140.966225 119.63318 
L 140.966225 118.174366 
L 140.966225 117.025241 
L 140.11525 117.025241 
L 139.264275 117.025241 
L 138.4133 117.025241 
L 137.562325 117.025241 
L 136.71135 117.025241 
L 135.860375 117.025241 
L 135.0094 117.025241 
L 135.0094 118.174366 
L 135.0094 119.63318 
L 135.0094 121.091994 
L 135.0094 122.550808 
L 135.0094 123.416953 
z
" clip-path="url(#p46ebbffe6e)" style="fill: #8d0ba5"/>
    <path d="M 135.860375 200.114685 
L 136.71135 200.114685 
L 137.562325 200.114685 
L 138.4133 200.114685 
L 139.264275 200.114685 
L 140.11525 200.114685 
L 140.966225 200.114685 
L 140.966225 199.867954 
L 140.966225 198.40914 
L 140.966225 196.950326 
L 140.966225 195.491512 
L 140.966225 194.032698 
L 140.966225 193.723009 
L 140.11525 193.723009 
L 139.264275 193.723009 
L 138.4133 193.723009 
L 137.562325 193.723009 
L 136.71135 193.723009 
L 135.860375 193.723009 
L 135.0094 193.723009 
L 135.0094 194.032698 
L 135.0094 195.491512 
L 135.0094 196.950326 
L 135.0094 198.40914 
L 135.0094 199.867954 
L 135.0094 200.114685 
z
M 135.860375 117.025241 
L 136.71135 117.025241 
L 137.562325 117.025241 
L 138.4133 117.025241 
L 139.264275 117.025241 
L 140.11525 117.025241 
L 140.966225 117.025241 
L 140.966225 116.715552 
L 140.966225 115.256738 
L 140.966225 113.797924 
L 140.966225 112.33911 
L 140.966225 110.880296 
L 140.966225 110.633565 
L 140.11525 110.633565 
L 139.264275 110.633565 
L 138.4133 110.633565 
L 137.562325 110.633565 
L 136.71135 110.633565 
L 135.860375 110.633565 
L 135.0094 110.633565 
L 135.0094 110.880296 
L 135.0094 112.33911 
L 135.0094 113.797924 
L 135.0094 115.256738 
L 135.0094 116.715552 
L 135.0094 117.025241 
z
" clip-path="url(#p46ebbffe6e)" style="fill: #9e199d"/>
    <path d="M 135.860375 206.506338 
L 136.71135 206.506338 
L 137.562325 206.506338 
L 138.4133 206.506338 
L 139.264275 206.506338 
L 140.11525 206.506338 
L 140.966225 206.506338 
L 140.966225 205.70321 
L 140.966225 204.244396 
L 140.966225 202.785582 
L 140.966225 201.326768 
L 140.966225 200.114685 
L 140.11525 200.114685 
L 139.264275 200.114685 
L 138.4133 200.114685 
L 137.562325 200.114685 
L 136.71135 200.114685 
L 135.860375 200.114685 
L 135.0094 200.114685 
L 135.0094 201.326768 
L 135.0094 202.785582 
L 135.0094 204.244396 
L 135.0094 205.70321 
L 135.0094 206.506338 
z
M 135.860375 110.633565 
L 136.71135 110.633565 
L 137.562325 110.633565 
L 138.4133 110.633565 
L 139.264275 110.633565 
L 140.11525 110.633565 
L 140.966225 110.633565 
L 140.966225 109.421482 
L 140.966225 107.962668 
L 140.966225 106.503854 
L 140.966225 105.04504 
L 140.966225 104.241912 
L 140.11525 104.241912 
L 139.264275 104.241912 
L 138.4133 104.241912 
L 137.562325 104.241912 
L 136.71135 104.241912 
L 135.860375 104.241912 
L 135.0094 104.241912 
L 135.0094 105.04504 
L 135.0094 106.503854 
L 135.0094 107.962668 
L 135.0094 109.421482 
L 135.0094 110.633565 
z
" clip-path="url(#p46ebbffe6e)" style="fill: #b02991"/>
    <path d="M 135.860375 212.897976 
L 136.71135 212.897976 
L 137.562325 212.897976 
L 138.4133 212.897976 
L 139.264275 212.897976 
L 140.11525 212.897976 
L 140.966225 212.897976 
L 140.966225 211.538467 
L 140.966225 210.079653 
L 140.966225 208.620839 
L 140.966225 207.162024 
L 140.966225 206.506338 
L 140.11525 206.506338 
L 139.264275 206.506338 
L 138.4133 206.506338 
L 137.562325 206.506338 
L 136.71135 206.506338 
L 135.860375 206.506338 
L 135.0094 206.506338 
L 135.0094 207.162024 
L 135.0094 208.620839 
L 135.0094 210.079653 
L 135.0094 211.538467 
L 135.0094 212.897976 
z
M 135.860375 104.241912 
L 136.71135 104.241912 
L 137.562325 104.241912 
L 138.4133 104.241912 
L 139.264275 104.241912 
L 140.11525 104.241912 
L 140.966225 104.241912 
L 140.966225 103.586226 
L 140.966225 102.127411 
L 140.966225 100.668597 
L 140.966225 99.209783 
L 140.966225 97.850274 
L 140.11525 97.850274 
L 139.264275 97.850274 
L 138.4133 97.850274 
L 137.562325 97.850274 
L 136.71135 97.850274 
L 135.860375 97.850274 
L 135.0094 97.850274 
L 135.0094 99.209783 
L 135.0094 100.668597 
L 135.0094 102.127411 
L 135.0094 103.586226 
L 135.0094 104.241912 
z
" clip-path="url(#p46ebbffe6e)" style="fill: #be3885"/>
    <path d="M 135.860375 219.289604 
L 136.71135 219.289604 
L 137.562325 219.289604 
L 138.4133 219.289604 
L 139.264275 219.289604 
L 140.11525 219.289604 
L 140.966225 219.289604 
L 140.966225 218.832537 
L 140.966225 217.373723 
L 140.966225 215.914909 
L 140.966225 214.456095 
L 140.966225 212.997281 
L 140.966225 212.897976 
L 140.11525 212.897976 
L 139.264275 212.897976 
L 138.4133 212.897976 
L 137.562325 212.897976 
L 136.71135 212.897976 
L 135.860375 212.897976 
L 135.0094 212.897976 
L 135.0094 212.997281 
L 135.0094 214.456095 
L 135.0094 215.914909 
L 135.0094 217.373723 
L 135.0094 218.832537 
L 135.0094 219.289604 
z
M 135.860375 97.850274 
L 136.71135 97.850274 
L 137.562325 97.850274 
L 138.4133 97.850274 
L 139.264275 97.850274 
L 140.11525 97.850274 
L 140.966225 97.850274 
L 140.966225 97.750969 
L 140.966225 96.292155 
L 140.966225 94.833341 
L 140.966225 93.374527 
L 140.966225 91.915713 
L 140.966225 91.458646 
L 140.11525 91.458646 
L 139.264275 91.458646 
L 138.4133 91.458646 
L 137.562325 91.458646 
L 136.71135 91.458646 
L 135.860375 91.458646 
L 135.0094 91.458646 
L 135.0094 91.915713 
L 135.0094 93.374527 
L 135.0094 94.833341 
L 135.0094 96.292155 
L 135.0094 97.750969 
L 135.0094 97.850274 
z
" clip-path="url(#p46ebbffe6e)" style="fill: #cc4778"/>
    <path d="M 135.860375 225.681224 
L 136.71135 225.681224 
L 137.562325 225.681224 
L 138.4133 225.681224 
L 139.264275 225.681224 
L 140.11525 225.681224 
L 140.966225 225.681224 
L 140.966225 224.667793 
L 140.966225 223.208979 
L 140.966225 221.750165 
L 140.966225 220.291351 
L 140.966225 219.289604 
L 140.11525 219.289604 
L 139.264275 219.289604 
L 138.4133 219.289604 
L 137.562325 219.289604 
L 136.71135 219.289604 
L 135.860375 219.289604 
L 135.0094 219.289604 
L 135.0094 220.291351 
L 135.0094 221.750165 
L 135.0094 223.208979 
L 135.0094 224.667793 
L 135.0094 225.681224 
z
M 135.860375 91.458646 
L 136.71135 91.458646 
L 137.562325 91.458646 
L 138.4133 91.458646 
L 139.264275 91.458646 
L 140.11525 91.458646 
L 140.966225 91.458646 
L 140.966225 90.456899 
L 140.966225 88.998085 
L 140.966225 87.539271 
L 140.966225 86.080457 
L 140.966225 85.067026 
L 140.11525 85.067026 
L 139.264275 85.067026 
L 138.4133 85.067026 
L 137.562325 85.067026 
L 136.71135 85.067026 
L 135.860375 85.067026 
L 135.0094 85.067026 
L 135.0094 86.080457 
L 135.0094 87.539271 
L 135.0094 88.998085 
L 135.0094 90.456899 
L 135.0094 91.458646 
z
" clip-path="url(#p46ebbffe6e)" style="fill: #d7566c"/>
    <path d="M 135.860375 232.072838 
L 136.71135 232.072838 
L 137.562325 232.072838 
L 138.4133 232.072838 
L 139.264275 232.072838 
L 140.11525 232.072838 
L 140.966225 232.072838 
L 140.966225 231.961864 
L 140.966225 230.50305 
L 140.966225 229.044236 
L 140.966225 227.585421 
L 140.966225 226.126607 
L 140.966225 225.681224 
L 140.11525 225.681224 
L 139.264275 225.681224 
L 138.4133 225.681224 
L 137.562325 225.681224 
L 136.71135 225.681224 
L 135.860375 225.681224 
L 135.0094 225.681224 
L 135.0094 226.126607 
L 135.0094 227.585421 
L 135.0094 229.044236 
L 135.0094 230.50305 
L 135.0094 231.961864 
L 135.0094 232.072838 
z
M 135.860375 85.067026 
L 136.71135 85.067026 
L 137.562325 85.067026 
L 138.4133 85.067026 
L 139.264275 85.067026 
L 140.11525 85.067026 
L 140.966225 85.067026 
L 140.966225 84.621643 
L 140.966225 83.162829 
L 140.966225 81.704014 
L 140.966225 80.2452 
L 140.966225 78.786386 
L 140.966225 78.675412 
L 140.11525 78.675412 
L 139.264275 78.675412 
L 138.4133 78.675412 
L 137.562325 78.675412 
L 136.71135 78.675412 
L 135.860375 78.675412 
L 135.0094 78.675412 
L 135.0094 78.786386 
L 135.0094 80.2452 
L 135.0094 81.704014 
L 135.0094 83.162829 
L 135.0094 84.621643 
L 135.0094 85.067026 
z
" clip-path="url(#p46ebbffe6e)" style="fill: #e26561"/>
    <path d="M 135.860375 238.464448 
L 136.71135 238.464448 
L 137.562325 238.464448 
L 138.4133 238.464448 
L 139.264275 238.464448 
L 140.11525 238.464448 
L 140.966225 238.464448 
L 140.966225 237.79712 
L 140.966225 236.338306 
L 140.966225 234.879492 
L 140.966225 233.420678 
L 140.966225 232.072838 
L 140.11525 232.072838 
L 139.264275 232.072838 
L 138.4133 232.072838 
L 137.562325 232.072838 
L 136.71135 232.072838 
L 135.860375 232.072838 
L 135.0094 232.072838 
L 135.0094 233.420678 
L 135.0094 234.879492 
L 135.0094 236.338306 
L 135.0094 237.79712 
L 135.0094 238.464448 
z
M 135.860375 78.675412 
L 136.71135 78.675412 
L 137.562325 78.675412 
L 138.4133 78.675412 
L 139.264275 78.675412 
L 140.11525 78.675412 
L 140.966225 78.675412 
L 140.966225 77.327572 
L 140.966225 75.868758 
L 140.966225 74.409944 
L 140.966225 72.95113 
L 140.966225 72.283802 
L 140.11525 72.283802 
L 139.264275 72.283802 
L 138.4133 72.283802 
L 137.562325 72.283802 
L 136.71135 72.283802 
L 135.860375 72.283802 
L 135.0094 72.283802 
L 135.0094 72.95113 
L 135.0094 74.409944 
L 135.0094 75.868758 
L 135.0094 77.327572 
L 135.0094 78.675412 
z
" clip-path="url(#p46ebbffe6e)" style="fill: #eb7655"/>
    <path d="M 135.860375 244.856055 
L 136.71135 244.856055 
L 137.562325 244.856055 
L 138.4133 244.856055 
L 139.264275 244.856055 
L 140.11525 244.856055 
L 140.966225 244.856055 
L 140.966225 243.632376 
L 140.966225 242.173562 
L 140.966225 240.714748 
L 140.966225 239.255934 
L 140.966225 238.464448 
L 140.11525 238.464448 
L 139.264275 238.464448 
L 138.4133 238.464448 
L 137.562325 238.464448 
L 136.71135 238.464448 
L 135.860375 238.464448 
L 135.0094 238.464448 
L 135.0094 239.255934 
L 135.0094 240.714748 
L 135.0094 242.173562 
L 135.0094 243.632376 
L 135.0094 244.856055 
z
M 135.860375 72.283802 
L 136.71135 72.283802 
L 137.562325 72.283802 
L 138.4133 72.283802 
L 139.264275 72.283802 
L 140.11525 72.283802 
L 140.966225 72.283802 
L 140.966225 71.492316 
L 140.966225 70.033502 
L 140.966225 68.574688 
L 140.966225 67.115874 
L 140.966225 65.892195 
L 140.11525 65.892195 
L 139.264275 65.892195 
L 138.4133 65.892195 
L 137.562325 65.892195 
L 136.71135 65.892195 
L 135.860375 65.892195 
L 135.0094 65.892195 
L 135.0094 67.115874 
L 135.0094 68.574688 
L 135.0094 70.033502 
L 135.0094 71.492316 
L 135.0094 72.283802 
z
" clip-path="url(#p46ebbffe6e)" style="fill: #f3874a"/>
    <path d="M 135.860375 251.247658 
L 136.71135 251.247658 
L 137.562325 251.247658 
L 138.4133 251.247658 
L 139.264275 251.247658 
L 140.11525 251.247658 
L 140.966225 251.247658 
L 140.966225 250.926447 
L 140.966225 249.467633 
L 140.966225 248.008818 
L 140.966225 246.550004 
L 140.966225 245.09119 
L 140.966225 244.856055 
L 140.11525 244.856055 
L 139.264275 244.856055 
L 138.4133 244.856055 
L 137.562325 244.856055 
L 136.71135 244.856055 
L 135.860375 244.856055 
L 135.0094 244.856055 
L 135.0094 245.09119 
L 135.0094 246.550004 
L 135.0094 248.008818 
L 135.0094 249.467633 
L 135.0094 250.926447 
L 135.0094 251.247658 
z
M 135.860375 65.892195 
L 136.71135 65.892195 
L 137.562325 65.892195 
L 138.4133 65.892195 
L 139.264275 65.892195 
L 140.11525 65.892195 
L 140.966225 65.892195 
L 140.966225 65.65706 
L 140.966225 64.198246 
L 140.966225 62.739432 
L 140.966225 61.280617 
L 140.966225 59.821803 
L 140.966225 59.500592 
L 140.11525 59.500592 
L 139.264275 59.500592 
L 138.4133 59.500592 
L 137.562325 59.500592 
L 136.71135 59.500592 
L 135.860375 59.500592 
L 135.0094 59.500592 
L 135.0094 59.821803 
L 135.0094 61.280617 
L 135.0094 62.739432 
L 135.0094 64.198246 
L 135.0094 65.65706 
L 135.0094 65.892195 
z
" clip-path="url(#p46ebbffe6e)" style="fill: #f99a3e"/>
    <path d="M 135.0094 257.63926 
L 135.860375 257.63926 
L 136.71135 257.63926 
L 137.562325 257.63926 
L 138.4133 257.63926 
L 139.264275 257.63926 
L 140.11525 257.63926 
L 140.966225 257.63926 
L 141.817199 257.63926 
L 141.817199 256.761703 
L 140.966225 255.302889 
L 140.966225 253.844075 
L 140.966225 252.385261 
L 140.966225 251.247658 
L 140.11525 251.247658 
L 139.264275 251.247658 
L 138.4133 251.247658 
L 137.562325 251.247658 
L 136.71135 251.247658 
L 135.860375 251.247658 
L 135.0094 251.247658 
L 135.0094 252.385261 
L 135.0094 253.844075 
L 135.0094 255.302889 
L 134.158426 256.761703 
L 134.158426 257.63926 
z
M 135.860375 59.500592 
L 136.71135 59.500592 
L 137.562325 59.500592 
L 138.4133 59.500592 
L 139.264275 59.500592 
L 140.11525 59.500592 
L 140.966225 59.500592 
L 140.966225 58.362989 
L 140.966225 56.904175 
L 140.966225 55.445361 
L 141.817199 53.986547 
L 141.817199 53.10899 
L 140.966225 53.10899 
L 140.11525 53.10899 
L 139.264275 53.10899 
L 138.4133 53.10899 
L 137.562325 53.10899 
L 136.71135 53.10899 
L 135.860375 53.10899 
L 135.0094 53.10899 
L 134.158426 53.10899 
L 134.158426 53.986547 
L 135.0094 55.445361 
L 135.0094 56.904175 
L 135.0094 58.362989 
L 135.0094 59.500592 
z
" clip-path="url(#p46ebbffe6e)" style="fill: #fdac33"/>
    <path d="M 130.754526 264.03086 
L 131.605501 264.03086 
L 132.456476 264.03086 
L 133.307451 264.03086 
L 134.158426 264.03086 
L 135.0094 264.03086 
L 135.860375 264.03086 
L 136.71135 264.03086 
L 137.562325 264.03086 
L 138.4133 264.03086 
L 139.264275 264.03086 
L 140.11525 264.03086 
L 140.966225 264.03086 
L 141.817199 264.03086 
L 142.668174 264.03086 
L 143.519149 264.03086 
L 144.370124 264.03086 
L 145.221099 264.03086 
L 146.057541 264.03086 
L 145.221099 262.596959 
L 144.370124 262.596959 
L 143.519149 261.138145 
L 142.668174 259.679331 
L 141.817199 258.220517 
L 141.817199 257.63926 
L 140.966225 257.63926 
L 140.11525 257.63926 
L 139.264275 257.63926 
L 138.4133 257.63926 
L 137.562325 257.63926 
L 136.71135 257.63926 
L 135.860375 257.63926 
L 135.0094 257.63926 
L 134.158426 257.63926 
L 134.158426 258.220517 
L 133.307451 259.679331 
L 132.456476 261.138145 
L 131.605501 262.596959 
L 130.754526 262.596959 
L 129.918084 264.03086 
z
M 135.0094 53.10899 
L 135.860375 53.10899 
L 136.71135 53.10899 
L 137.562325 53.10899 
L 138.4133 53.10899 
L 139.264275 53.10899 
L 140.11525 53.10899 
L 140.966225 53.10899 
L 141.817199 53.10899 
L 141.817199 52.527733 
L 142.668174 51.068919 
L 143.519149 49.610105 
L 144.370124 48.151291 
L 145.221099 48.151291 
L 146.057541 46.71739 
L 145.221099 46.71739 
L 144.370124 46.71739 
L 143.519149 46.71739 
L 142.668174 46.71739 
L 141.817199 46.71739 
L 140.966225 46.71739 
L 140.11525 46.71739 
L 139.264275 46.71739 
L 138.4133 46.71739 
L 137.562325 46.71739 
L 136.71135 46.71739 
L 135.860375 46.71739 
L 135.0094 46.71739 
L 134.158426 46.71739 
L 133.307451 46.71739 
L 132.456476 46.71739 
L 131.605501 46.71739 
L 130.754526 46.71739 
L 129.918084 46.71739 
L 130.754526 48.151291 
L 131.605501 48.151291 
L 132.456476 49.610105 
L 133.307451 51.068919 
L 134.158426 52.527733 
L 134.158426 53.10899 
z
" clip-path="url(#p46ebbffe6e)" style="fill: #fdc229"/>
    <path d="M 78.845059 270.422458 
L 79.696034 270.422458 
L 80.547008 270.422458 
L 81.397983 270.422458 
L 82.248958 270.422458 
L 83.099933 270.422458 
L 83.950908 270.422458 
L 84.801883 270.422458 
L 85.652858 270.422458 
L 86.503833 270.422458 
L 87.354807 270.422458 
L 88.205782 270.422458 
L 89.056757 270.422458 
L 89.907732 270.422458 
L 90.758707 270.422458 
L 91.609682 270.422458 
L 92.460657 270.422458 
L 93.311632 270.422458 
L 94.162606 270.422458 
L 95.013581 270.422458 
L 95.864556 270.422458 
L 96.715531 270.422458 
L 97.566506 270.422458 
L 98.417481 270.422458 
L 99.268456 270.422458 
L 100.119431 270.422458 
L 100.970405 270.422458 
L 101.82138 270.422458 
L 102.672355 270.422458 
L 103.52333 270.422458 
L 104.374305 270.422458 
L 105.22528 270.422458 
L 106.076255 270.422458 
L 106.92723 270.422458 
L 107.778204 270.422458 
L 108.629179 270.422458 
L 109.480154 270.422458 
L 110.331129 270.422458 
L 111.182104 270.422458 
L 112.033079 270.422458 
L 112.884054 270.422458 
L 113.735029 270.422458 
L 114.586003 270.422458 
L 115.436978 270.422458 
L 116.287953 270.422458 
L 117.138928 270.422458 
L 117.989903 270.422458 
L 118.840878 270.422458 
L 119.691853 270.422458 
L 120.542828 270.422458 
L 121.393802 270.422458 
L 122.244777 270.422458 
L 123.095752 270.422458 
L 123.946727 270.422458 
L 124.797702 270.422458 
L 125.648677 270.422458 
L 126.499652 270.422458 
L 127.350627 270.422458 
L 128.201601 270.422458 
L 129.052576 270.422458 
L 129.903551 270.422458 
L 130.754526 270.422458 
L 131.605501 270.422458 
L 132.456476 270.422458 
L 133.307451 270.422458 
L 134.158426 270.422458 
L 135.0094 270.422458 
L 135.860375 270.422458 
L 136.71135 270.422458 
L 137.562325 270.422458 
L 138.4133 270.422458 
L 139.264275 270.422458 
L 140.11525 270.422458 
L 140.966225 270.422458 
L 141.817199 270.422458 
L 142.668174 270.422458 
L 143.519149 270.422458 
L 144.370124 270.422458 
L 145.221099 270.422458 
L 146.072074 270.422458 
L 146.923049 270.422458 
L 147.774024 270.422458 
L 148.624998 270.422458 
L 149.475973 270.422458 
L 150.326948 270.422458 
L 151.177923 270.422458 
L 152.028898 270.422458 
L 152.879873 270.422458 
L 153.730848 270.422458 
L 154.581823 270.422458 
L 155.432797 270.422458 
L 156.283772 270.422458 
L 157.134747 270.422458 
L 157.985722 270.422458 
L 158.836697 270.422458 
L 159.687672 270.422458 
L 160.538647 270.422458 
L 161.389622 270.422458 
L 162.240596 270.422458 
L 163.091571 270.422458 
L 163.942546 270.422458 
L 164.793521 270.422458 
L 165.644496 270.422458 
L 166.495471 270.422458 
L 167.346446 270.422458 
L 168.197421 270.422458 
L 169.048395 270.422458 
L 169.89937 270.422458 
L 170.750345 270.422458 
L 171.60132 270.422458 
L 172.452295 270.422458 
L 173.30327 270.422458 
L 174.154245 270.422458 
L 175.00522 270.422458 
L 175.856194 270.422458 
L 176.707169 270.422458 
L 177.558144 270.422458 
L 178.409119 270.422458 
L 179.260094 270.422458 
L 180.111069 270.422458 
L 180.962044 270.422458 
L 181.813019 270.422458 
L 182.663993 270.422458 
L 183.514968 270.422458 
L 184.365943 270.422458 
L 185.216918 270.422458 
L 186.067893 270.422458 
L 186.918868 270.422458 
L 187.769843 270.422458 
L 188.620818 270.422458 
L 189.471792 270.422458 
L 190.322767 270.422458 
L 191.173742 270.422458 
L 192.024717 270.422458 
L 192.875692 270.422458 
L 193.726667 270.422458 
L 194.577642 270.422458 
L 195.428617 270.422458 
L 196.279591 270.422458 
L 197.130566 270.422458 
L 197.981541 270.422458 
L 197.981541 269.89103 
L 197.981541 268.432215 
L 197.981541 266.973401 
L 197.981541 265.514587 
L 197.130566 265.514587 
L 196.279591 265.514587 
L 195.428617 265.514587 
L 194.577642 265.514587 
L 193.726667 265.514587 
L 192.875692 265.514587 
L 192.024717 265.514587 
L 191.173742 265.514587 
L 190.322767 265.514587 
L 189.471792 265.514587 
L 188.620818 265.514587 
L 187.769843 265.514587 
L 186.918868 265.514587 
L 186.067893 265.514587 
L 185.216918 265.514587 
L 184.365943 265.514587 
L 183.514968 265.514587 
L 182.663993 265.514587 
L 181.813019 265.514587 
L 180.962044 265.514587 
L 180.111069 265.514587 
L 179.260094 265.514587 
L 178.409119 265.514587 
L 177.558144 265.514587 
L 176.707169 265.514587 
L 175.856194 265.514587 
L 175.00522 265.514587 
L 174.154245 265.514587 
L 173.30327 265.514587 
L 172.452295 265.514587 
L 171.60132 265.514587 
L 170.750345 265.514587 
L 169.89937 265.514587 
L 169.048395 265.514587 
L 168.197421 265.514587 
L 167.346446 265.514587 
L 166.495471 265.514587 
L 165.644496 265.514587 
L 164.793521 265.514587 
L 163.942546 265.514587 
L 163.091571 265.514587 
L 162.240596 265.514587 
L 161.389622 265.514587 
L 160.538647 265.514587 
L 159.687672 265.514587 
L 158.836697 265.514587 
L 157.985722 265.514587 
L 157.134747 265.514587 
L 156.283772 265.514587 
L 155.432797 265.514587 
L 154.581823 265.514587 
L 153.730848 265.514587 
L 152.879873 265.514587 
L 152.028898 265.514587 
L 151.177923 265.514587 
L 150.326948 265.514587 
L 149.475973 265.514587 
L 148.624998 264.055773 
L 147.774024 264.055773 
L 146.923049 264.055773 
L 146.072074 264.055773 
L 146.057541 264.03086 
L 145.221099 264.03086 
L 144.370124 264.03086 
L 143.519149 264.03086 
L 142.668174 264.03086 
L 141.817199 264.03086 
L 140.966225 264.03086 
L 140.11525 264.03086 
L 139.264275 264.03086 
L 138.4133 264.03086 
L 137.562325 264.03086 
L 136.71135 264.03086 
L 135.860375 264.03086 
L 135.0094 264.03086 
L 134.158426 264.03086 
L 133.307451 264.03086 
L 132.456476 264.03086 
L 131.605501 264.03086 
L 130.754526 264.03086 
L 129.918084 264.03086 
L 129.903551 264.055773 
L 129.052576 264.055773 
L 128.201601 264.055773 
L 127.350627 264.055773 
L 126.499652 265.514587 
L 125.648677 265.514587 
L 124.797702 265.514587 
L 123.946727 265.514587 
L 123.095752 265.514587 
L 122.244777 265.514587 
L 121.393802 265.514587 
L 120.542828 265.514587 
L 119.691853 265.514587 
L 118.840878 265.514587 
L 117.989903 265.514587 
L 117.138928 265.514587 
L 116.287953 265.514587 
L 115.436978 265.514587 
L 114.586003 265.514587 
L 113.735029 265.514587 
L 112.884054 265.514587 
L 112.033079 265.514587 
L 111.182104 265.514587 
L 110.331129 265.514587 
L 109.480154 265.514587 
L 108.629179 265.514587 
L 107.778204 265.514587 
L 106.92723 265.514587 
L 106.076255 265.514587 
L 105.22528 265.514587 
L 104.374305 265.514587 
L 103.52333 265.514587 
L 102.672355 265.514587 
L 101.82138 265.514587 
L 100.970405 265.514587 
L 100.119431 265.514587 
L 99.268456 265.514587 
L 98.417481 265.514587 
L 97.566506 265.514587 
L 96.715531 265.514587 
L 95.864556 265.514587 
L 95.013581 265.514587 
L 94.162606 265.514587 
L 93.311632 265.514587 
L 92.460657 265.514587 
L 91.609682 265.514587 
L 90.758707 265.514587 
L 89.907732 265.514587 
L 89.056757 265.514587 
L 88.205782 265.514587 
L 87.354807 265.514587 
L 86.503833 265.514587 
L 85.652858 265.514587 
L 84.801883 265.514587 
L 83.950908 265.514587 
L 83.099933 265.514587 
L 82.248958 265.514587 
L 81.397983 265.514587 
L 80.547008 265.514587 
L 79.696034 265.514587 
L 78.845059 265.514587 
L 77.994084 265.514587 
L 77.994084 266.973401 
L 77.994084 268.432215 
L 77.994084 269.89103 
L 77.994084 270.422458 
z
M 130.754526 46.71739 
L 131.605501 46.71739 
L 132.456476 46.71739 
L 133.307451 46.71739 
L 134.158426 46.71739 
L 135.0094 46.71739 
L 135.860375 46.71739 
L 136.71135 46.71739 
L 137.562325 46.71739 
L 138.4133 46.71739 
L 139.264275 46.71739 
L 140.11525 46.71739 
L 140.966225 46.71739 
L 141.817199 46.71739 
L 142.668174 46.71739 
L 143.519149 46.71739 
L 144.370124 46.71739 
L 145.221099 46.71739 
L 146.057541 46.71739 
L 146.072074 46.692477 
L 146.923049 46.692477 
L 147.774024 46.692477 
L 148.624998 46.692477 
L 149.475973 45.233663 
L 150.326948 45.233663 
L 151.177923 45.233663 
L 152.028898 45.233663 
L 152.879873 45.233663 
L 153.730848 45.233663 
L 154.581823 45.233663 
L 155.432797 45.233663 
L 156.283772 45.233663 
L 157.134747 45.233663 
L 157.985722 45.233663 
L 158.836697 45.233663 
L 159.687672 45.233663 
L 160.538647 45.233663 
L 161.389622 45.233663 
L 162.240596 45.233663 
L 163.091571 45.233663 
L 163.942546 45.233663 
L 164.793521 45.233663 
L 165.644496 45.233663 
L 166.495471 45.233663 
L 167.346446 45.233663 
L 168.197421 45.233663 
L 169.048395 45.233663 
L 169.89937 45.233663 
L 170.750345 45.233663 
L 171.60132 45.233663 
L 172.452295 45.233663 
L 173.30327 45.233663 
L 174.154245 45.233663 
L 175.00522 45.233663 
L 175.856194 45.233663 
L 176.707169 45.233663 
L 177.558144 45.233663 
L 178.409119 45.233663 
L 179.260094 45.233663 
L 180.111069 45.233663 
L 180.962044 45.233663 
L 181.813019 45.233663 
L 182.663993 45.233663 
L 183.514968 45.233663 
L 184.365943 45.233663 
L 185.216918 45.233663 
L 186.067893 45.233663 
L 186.918868 45.233663 
L 187.769843 45.233663 
L 188.620818 45.233663 
L 189.471792 45.233663 
L 190.322767 45.233663 
L 191.173742 45.233663 
L 192.024717 45.233663 
L 192.875692 45.233663 
L 193.726667 45.233663 
L 194.577642 45.233663 
L 195.428617 45.233663 
L 196.279591 45.233663 
L 197.130566 45.233663 
L 197.981541 45.233663 
L 197.981541 43.774849 
L 197.981541 42.316035 
L 197.981541 40.85722 
L 197.981541 40.325792 
L 197.130566 40.325792 
L 196.279591 40.325792 
L 195.428617 40.325792 
L 194.577642 40.325792 
L 193.726667 40.325792 
L 192.875692 40.325792 
L 192.024717 40.325792 
L 191.173742 40.325792 
L 190.322767 40.325792 
L 189.471792 40.325792 
L 188.620818 40.325792 
L 187.769843 40.325792 
L 186.918868 40.325792 
L 186.067893 40.325792 
L 185.216918 40.325792 
L 184.365943 40.325792 
L 183.514968 40.325792 
L 182.663993 40.325792 
L 181.813019 40.325792 
L 180.962044 40.325792 
L 180.111069 40.325792 
L 179.260094 40.325792 
L 178.409119 40.325792 
L 177.558144 40.325792 
L 176.707169 40.325792 
L 175.856194 40.325792 
L 175.00522 40.325792 
L 174.154245 40.325792 
L 173.30327 40.325792 
L 172.452295 40.325792 
L 171.60132 40.325792 
L 170.750345 40.325792 
L 169.89937 40.325792 
L 169.048395 40.325792 
L 168.197421 40.325792 
L 167.346446 40.325792 
L 166.495471 40.325792 
L 165.644496 40.325792 
L 164.793521 40.325792 
L 163.942546 40.325792 
L 163.091571 40.325792 
L 162.240596 40.325792 
L 161.389622 40.325792 
L 160.538647 40.325792 
L 159.687672 40.325792 
L 158.836697 40.325792 
L 157.985722 40.325792 
L 157.134747 40.325792 
L 156.283772 40.325792 
L 155.432797 40.325792 
L 154.581823 40.325792 
L 153.730848 40.325792 
L 152.879873 40.325792 
L 152.028898 40.325792 
L 151.177923 40.325792 
L 150.326948 40.325792 
L 149.475973 40.325792 
L 148.624998 40.325792 
L 147.774024 40.325792 
L 146.923049 40.325792 
L 146.072074 40.325792 
L 145.221099 40.325792 
L 144.370124 40.325792 
L 143.519149 40.325792 
L 142.668174 40.325792 
L 141.817199 40.325792 
L 140.966225 40.325792 
L 140.11525 40.325792 
L 139.264275 40.325792 
L 138.4133 40.325792 
L 137.562325 40.325792 
L 136.71135 40.325792 
L 135.860375 40.325792 
L 135.0094 40.325792 
L 134.158426 40.325792 
L 133.307451 40.325792 
L 132.456476 40.325792 
L 131.605501 40.325792 
L 130.754526 40.325792 
L 129.903551 40.325792 
L 129.052576 40.325792 
L 128.201601 40.325792 
L 127.350627 40.325792 
L 126.499652 40.325792 
L 125.648677 40.325792 
L 124.797702 40.325792 
L 123.946727 40.325792 
L 123.095752 40.325792 
L 122.244777 40.325792 
L 121.393802 40.325792 
L 120.542828 40.325792 
L 119.691853 40.325792 
L 118.840878 40.325792 
L 117.989903 40.325792 
L 117.138928 40.325792 
L 116.287953 40.325792 
L 115.436978 40.325792 
L 114.586003 40.325792 
L 113.735029 40.325792 
L 112.884054 40.325792 
L 112.033079 40.325792 
L 111.182104 40.325792 
L 110.331129 40.325792 
L 109.480154 40.325792 
L 108.629179 40.325792 
L 107.778204 40.325792 
L 106.92723 40.325792 
L 106.076255 40.325792 
L 105.22528 40.325792 
L 104.374305 40.325792 
L 103.52333 40.325792 
L 102.672355 40.325792 
L 101.82138 40.325792 
L 100.970405 40.325792 
L 100.119431 40.325792 
L 99.268456 40.325792 
L 98.417481 40.325792 
L 97.566506 40.325792 
L 96.715531 40.325792 
L 95.864556 40.325792 
L 95.013581 40.325792 
L 94.162606 40.325792 
L 93.311632 40.325792 
L 92.460657 40.325792 
L 91.609682 40.325792 
L 90.758707 40.325792 
L 89.907732 40.325792 
L 89.056757 40.325792 
L 88.205782 40.325792 
L 87.354807 40.325792 
L 86.503833 40.325792 
L 85.652858 40.325792 
L 84.801883 40.325792 
L 83.950908 40.325792 
L 83.099933 40.325792 
L 82.248958 40.325792 
L 81.397983 40.325792 
L 80.547008 40.325792 
L 79.696034 40.325792 
L 78.845059 40.325792 
L 77.994084 40.325792 
L 77.994084 40.85722 
L 77.994084 42.316035 
L 77.994084 43.774849 
L 77.994084 45.233663 
L 78.845059 45.233663 
L 79.696034 45.233663 
L 80.547008 45.233663 
L 81.397983 45.233663 
L 82.248958 45.233663 
L 83.099933 45.233663 
L 83.950908 45.233663 
L 84.801883 45.233663 
L 85.652858 45.233663 
L 86.503833 45.233663 
L 87.354807 45.233663 
L 88.205782 45.233663 
L 89.056757 45.233663 
L 89.907732 45.233663 
L 90.758707 45.233663 
L 91.609682 45.233663 
L 92.460657 45.233663 
L 93.311632 45.233663 
L 94.162606 45.233663 
L 95.013581 45.233663 
L 95.864556 45.233663 
L 96.715531 45.233663 
L 97.566506 45.233663 
L 98.417481 45.233663 
L 99.268456 45.233663 
L 100.119431 45.233663 
L 100.970405 45.233663 
L 101.82138 45.233663 
L 102.672355 45.233663 
L 103.52333 45.233663 
L 104.374305 45.233663 
L 105.22528 45.233663 
L 106.076255 45.233663 
L 106.92723 45.233663 
L 107.778204 45.233663 
L 108.629179 45.233663 
L 109.480154 45.233663 
L 110.331129 45.233663 
L 111.182104 45.233663 
L 112.033079 45.233663 
L 112.884054 45.233663 
L 113.735029 45.233663 
L 114.586003 45.233663 
L 115.436978 45.233663 
L 116.287953 45.233663 
L 117.138928 45.233663 
L 117.989903 45.233663 
L 118.840878 45.233663 
L 119.691853 45.233663 
L 120.542828 45.233663 
L 121.393802 45.233663 
L 122.244777 45.233663 
L 123.095752 45.233663 
L 123.946727 45.233663 
L 124.797702 45.233663 
L 125.648677 45.233663 
L 126.499652 45.233663 
L 127.350627 46.692477 
L 128.201601 46.692477 
L 129.052576 46.692477 
L 129.903551 46.692477 
L 129.918084 46.71739 
z
" clip-path="url(#p46ebbffe6e)" style="fill: #fbd724"/>
    <path d="M 78.845059 275.726286 
L 79.696034 275.726286 
L 80.547008 275.726286 
L 81.397983 275.726286 
L 82.248958 275.726286 
L 83.099933 275.726286 
L 83.950908 275.726286 
L 84.801883 275.726286 
L 85.652858 275.726286 
L 86.503833 275.726286 
L 87.354807 275.726286 
L 88.205782 275.726286 
L 89.056757 275.726286 
L 89.907732 275.726286 
L 90.758707 275.726286 
L 91.609682 275.726286 
L 92.460657 275.726286 
L 93.311632 275.726286 
L 94.162606 275.726286 
L 95.013581 275.726286 
L 95.864556 275.726286 
L 96.715531 275.726286 
L 97.566506 275.726286 
L 98.417481 275.726286 
L 99.268456 275.726286 
L 100.119431 275.726286 
L 100.970405 275.726286 
L 101.82138 275.726286 
L 102.672355 275.726286 
L 103.52333 275.726286 
L 104.374305 275.726286 
L 105.22528 275.726286 
L 106.076255 275.726286 
L 106.92723 275.726286 
L 107.778204 275.726286 
L 108.629179 275.726286 
L 109.480154 275.726286 
L 110.331129 275.726286 
L 111.182104 275.726286 
L 112.033079 275.726286 
L 112.884054 275.726286 
L 113.735029 275.726286 
L 114.586003 275.726286 
L 115.436978 275.726286 
L 116.287953 275.726286 
L 117.138928 275.726286 
L 117.989903 275.726286 
L 118.840878 275.726286 
L 119.691853 275.726286 
L 120.542828 275.726286 
L 121.393802 275.726286 
L 122.244777 275.726286 
L 123.095752 275.726286 
L 123.946727 275.726286 
L 124.797702 275.726286 
L 125.648677 275.726286 
L 126.499652 275.726286 
L 127.350627 275.726286 
L 128.201601 275.726286 
L 129.052576 275.726286 
L 129.903551 275.726286 
L 130.754526 275.726286 
L 131.605501 275.726286 
L 132.456476 275.726286 
L 133.307451 275.726286 
L 134.158426 275.726286 
L 135.0094 275.726286 
L 135.860375 275.726286 
L 136.71135 275.726286 
L 137.562325 275.726286 
L 138.4133 275.726286 
L 139.264275 275.726286 
L 140.11525 275.726286 
L 140.966225 275.726286 
L 141.817199 275.726286 
L 142.668174 275.726286 
L 143.519149 275.726286 
L 144.370124 275.726286 
L 145.221099 275.726286 
L 146.072074 275.726286 
L 146.923049 275.726286 
L 147.774024 275.726286 
L 148.624998 275.726286 
L 149.475973 275.726286 
L 150.326948 275.726286 
L 151.177923 275.726286 
L 152.028898 275.726286 
L 152.879873 275.726286 
L 153.730848 275.726286 
L 154.581823 275.726286 
L 155.432797 275.726286 
L 156.283772 275.726286 
L 157.134747 275.726286 
L 157.985722 275.726286 
L 158.836697 275.726286 
L 159.687672 275.726286 
L 160.538647 275.726286 
L 161.389622 275.726286 
L 162.240596 275.726286 
L 163.091571 275.726286 
L 163.942546 275.726286 
L 164.793521 275.726286 
L 165.644496 275.726286 
L 166.495471 275.726286 
L 167.346446 275.726286 
L 168.197421 275.726286 
L 169.048395 275.726286 
L 169.89937 275.726286 
L 170.750345 275.726286 
L 171.60132 275.726286 
L 172.452295 275.726286 
L 173.30327 275.726286 
L 174.154245 275.726286 
L 175.00522 275.726286 
L 175.856194 275.726286 
L 176.707169 275.726286 
L 177.558144 275.726286 
L 178.409119 275.726286 
L 179.260094 275.726286 
L 180.111069 275.726286 
L 180.962044 275.726286 
L 181.813019 275.726286 
L 182.663993 275.726286 
L 183.514968 275.726286 
L 184.365943 275.726286 
L 185.216918 275.726286 
L 186.067893 275.726286 
L 186.918868 275.726286 
L 187.769843 275.726286 
L 188.620818 275.726286 
L 189.471792 275.726286 
L 190.322767 275.726286 
L 191.173742 275.726286 
L 192.024717 275.726286 
L 192.875692 275.726286 
L 193.726667 275.726286 
L 194.577642 275.726286 
L 195.428617 275.726286 
L 196.279591 275.726286 
L 197.130566 275.726286 
L 197.981541 275.726286 
L 197.981541 274.267472 
L 197.981541 272.808658 
L 197.981541 271.349844 
L 197.981541 270.422458 
L 197.130566 270.422458 
L 196.279591 270.422458 
L 195.428617 270.422458 
L 194.577642 270.422458 
L 193.726667 270.422458 
L 192.875692 270.422458 
L 192.024717 270.422458 
L 191.173742 270.422458 
L 190.322767 270.422458 
L 189.471792 270.422458 
L 188.620818 270.422458 
L 187.769843 270.422458 
L 186.918868 270.422458 
L 186.067893 270.422458 
L 185.216918 270.422458 
L 184.365943 270.422458 
L 183.514968 270.422458 
L 182.663993 270.422458 
L 181.813019 270.422458 
L 180.962044 270.422458 
L 180.111069 270.422458 
L 179.260094 270.422458 
L 178.409119 270.422458 
L 177.558144 270.422458 
L 176.707169 270.422458 
L 175.856194 270.422458 
L 175.00522 270.422458 
L 174.154245 270.422458 
L 173.30327 270.422458 
L 172.452295 270.422458 
L 171.60132 270.422458 
L 170.750345 270.422458 
L 169.89937 270.422458 
L 169.048395 270.422458 
L 168.197421 270.422458 
L 167.346446 270.422458 
L 166.495471 270.422458 
L 165.644496 270.422458 
L 164.793521 270.422458 
L 163.942546 270.422458 
L 163.091571 270.422458 
L 162.240596 270.422458 
L 161.389622 270.422458 
L 160.538647 270.422458 
L 159.687672 270.422458 
L 158.836697 270.422458 
L 157.985722 270.422458 
L 157.134747 270.422458 
L 156.283772 270.422458 
L 155.432797 270.422458 
L 154.581823 270.422458 
L 153.730848 270.422458 
L 152.879873 270.422458 
L 152.028898 270.422458 
L 151.177923 270.422458 
L 150.326948 270.422458 
L 149.475973 270.422458 
L 148.624998 270.422458 
L 147.774024 270.422458 
L 146.923049 270.422458 
L 146.072074 270.422458 
L 145.221099 270.422458 
L 144.370124 270.422458 
L 143.519149 270.422458 
L 142.668174 270.422458 
L 141.817199 270.422458 
L 140.966225 270.422458 
L 140.11525 270.422458 
L 139.264275 270.422458 
L 138.4133 270.422458 
L 137.562325 270.422458 
L 136.71135 270.422458 
L 135.860375 270.422458 
L 135.0094 270.422458 
L 134.158426 270.422458 
L 133.307451 270.422458 
L 132.456476 270.422458 
L 131.605501 270.422458 
L 130.754526 270.422458 
L 129.903551 270.422458 
L 129.052576 270.422458 
L 128.201601 270.422458 
L 127.350627 270.422458 
L 126.499652 270.422458 
L 125.648677 270.422458 
L 124.797702 270.422458 
L 123.946727 270.422458 
L 123.095752 270.422458 
L 122.244777 270.422458 
L 121.393802 270.422458 
L 120.542828 270.422458 
L 119.691853 270.422458 
L 118.840878 270.422458 
L 117.989903 270.422458 
L 117.138928 270.422458 
L 116.287953 270.422458 
L 115.436978 270.422458 
L 114.586003 270.422458 
L 113.735029 270.422458 
L 112.884054 270.422458 
L 112.033079 270.422458 
L 111.182104 270.422458 
L 110.331129 270.422458 
L 109.480154 270.422458 
L 108.629179 270.422458 
L 107.778204 270.422458 
L 106.92723 270.422458 
L 106.076255 270.422458 
L 105.22528 270.422458 
L 104.374305 270.422458 
L 103.52333 270.422458 
L 102.672355 270.422458 
L 101.82138 270.422458 
L 100.970405 270.422458 
L 100.119431 270.422458 
L 99.268456 270.422458 
L 98.417481 270.422458 
L 97.566506 270.422458 
L 96.715531 270.422458 
L 95.864556 270.422458 
L 95.013581 270.422458 
L 94.162606 270.422458 
L 93.311632 270.422458 
L 92.460657 270.422458 
L 91.609682 270.422458 
L 90.758707 270.422458 
L 89.907732 270.422458 
L 89.056757 270.422458 
L 88.205782 270.422458 
L 87.354807 270.422458 
L 86.503833 270.422458 
L 85.652858 270.422458 
L 84.801883 270.422458 
L 83.950908 270.422458 
L 83.099933 270.422458 
L 82.248958 270.422458 
L 81.397983 270.422458 
L 80.547008 270.422458 
L 79.696034 270.422458 
L 78.845059 270.422458 
L 77.994084 270.422458 
L 77.994084 271.349844 
L 77.994084 272.808658 
L 77.994084 274.267472 
L 77.994084 275.726286 
z
M 78.845059 40.325792 
L 79.696034 40.325792 
L 80.547008 40.325792 
L 81.397983 40.325792 
L 82.248958 40.325792 
L 83.099933 40.325792 
L 83.950908 40.325792 
L 84.801883 40.325792 
L 85.652858 40.325792 
L 86.503833 40.325792 
L 87.354807 40.325792 
L 88.205782 40.325792 
L 89.056757 40.325792 
L 89.907732 40.325792 
L 90.758707 40.325792 
L 91.609682 40.325792 
L 92.460657 40.325792 
L 93.311632 40.325792 
L 94.162606 40.325792 
L 95.013581 40.325792 
L 95.864556 40.325792 
L 96.715531 40.325792 
L 97.566506 40.325792 
L 98.417481 40.325792 
L 99.268456 40.325792 
L 100.119431 40.325792 
L 100.970405 40.325792 
L 101.82138 40.325792 
L 102.672355 40.325792 
L 103.52333 40.325792 
L 104.374305 40.325792 
L 105.22528 40.325792 
L 106.076255 40.325792 
L 106.92723 40.325792 
L 107.778204 40.325792 
L 108.629179 40.325792 
L 109.480154 40.325792 
L 110.331129 40.325792 
L 111.182104 40.325792 
L 112.033079 40.325792 
L 112.884054 40.325792 
L 113.735029 40.325792 
L 114.586003 40.325792 
L 115.436978 40.325792 
L 116.287953 40.325792 
L 117.138928 40.325792 
L 117.989903 40.325792 
L 118.840878 40.325792 
L 119.691853 40.325792 
L 120.542828 40.325792 
L 121.393802 40.325792 
L 122.244777 40.325792 
L 123.095752 40.325792 
L 123.946727 40.325792 
L 124.797702 40.325792 
L 125.648677 40.325792 
L 126.499652 40.325792 
L 127.350627 40.325792 
L 128.201601 40.325792 
L 129.052576 40.325792 
L 129.903551 40.325792 
L 130.754526 40.325792 
L 131.605501 40.325792 
L 132.456476 40.325792 
L 133.307451 40.325792 
L 134.158426 40.325792 
L 135.0094 40.325792 
L 135.860375 40.325792 
L 136.71135 40.325792 
L 137.562325 40.325792 
L 138.4133 40.325792 
L 139.264275 40.325792 
L 140.11525 40.325792 
L 140.966225 40.325792 
L 141.817199 40.325792 
L 142.668174 40.325792 
L 143.519149 40.325792 
L 144.370124 40.325792 
L 145.221099 40.325792 
L 146.072074 40.325792 
L 146.923049 40.325792 
L 147.774024 40.325792 
L 148.624998 40.325792 
L 149.475973 40.325792 
L 150.326948 40.325792 
L 151.177923 40.325792 
L 152.028898 40.325792 
L 152.879873 40.325792 
L 153.730848 40.325792 
L 154.581823 40.325792 
L 155.432797 40.325792 
L 156.283772 40.325792 
L 157.134747 40.325792 
L 157.985722 40.325792 
L 158.836697 40.325792 
L 159.687672 40.325792 
L 160.538647 40.325792 
L 161.389622 40.325792 
L 162.240596 40.325792 
L 163.091571 40.325792 
L 163.942546 40.325792 
L 164.793521 40.325792 
L 165.644496 40.325792 
L 166.495471 40.325792 
L 167.346446 40.325792 
L 168.197421 40.325792 
L 169.048395 40.325792 
L 169.89937 40.325792 
L 170.750345 40.325792 
L 171.60132 40.325792 
L 172.452295 40.325792 
L 173.30327 40.325792 
L 174.154245 40.325792 
L 175.00522 40.325792 
L 175.856194 40.325792 
L 176.707169 40.325792 
L 177.558144 40.325792 
L 178.409119 40.325792 
L 179.260094 40.325792 
L 180.111069 40.325792 
L 180.962044 40.325792 
L 181.813019 40.325792 
L 182.663993 40.325792 
L 183.514968 40.325792 
L 184.365943 40.325792 
L 185.216918 40.325792 
L 186.067893 40.325792 
L 186.918868 40.325792 
L 187.769843 40.325792 
L 188.620818 40.325792 
L 189.471792 40.325792 
L 190.322767 40.325792 
L 191.173742 40.325792 
L 192.024717 40.325792 
L 192.875692 40.325792 
L 193.726667 40.325792 
L 194.577642 40.325792 
L 195.428617 40.325792 
L 196.279591 40.325792 
L 197.130566 40.325792 
L 197.981541 40.325792 
L 197.981541 39.398406 
L 197.981541 37.939592 
L 197.981541 36.480778 
L 197.981541 35.021964 
L 197.130566 35.021964 
L 196.279591 35.021964 
L 195.428617 35.021964 
L 194.577642 35.021964 
L 193.726667 35.021964 
L 192.875692 35.021964 
L 192.024717 35.021964 
L 191.173742 35.021964 
L 190.322767 35.021964 
L 189.471792 35.021964 
L 188.620818 35.021964 
L 187.769843 35.021964 
L 186.918868 35.021964 
L 186.067893 35.021964 
L 185.216918 35.021964 
L 184.365943 35.021964 
L 183.514968 35.021964 
L 182.663993 35.021964 
L 181.813019 35.021964 
L 180.962044 35.021964 
L 180.111069 35.021964 
L 179.260094 35.021964 
L 178.409119 35.021964 
L 177.558144 35.021964 
L 176.707169 35.021964 
L 175.856194 35.021964 
L 175.00522 35.021964 
L 174.154245 35.021964 
L 173.30327 35.021964 
L 172.452295 35.021964 
L 171.60132 35.021964 
L 170.750345 35.021964 
L 169.89937 35.021964 
L 169.048395 35.021964 
L 168.197421 35.021964 
L 167.346446 35.021964 
L 166.495471 35.021964 
L 165.644496 35.021964 
L 164.793521 35.021964 
L 163.942546 35.021964 
L 163.091571 35.021964 
L 162.240596 35.021964 
L 161.389622 35.021964 
L 160.538647 35.021964 
L 159.687672 35.021964 
L 158.836697 35.021964 
L 157.985722 35.021964 
L 157.134747 35.021964 
L 156.283772 35.021964 
L 155.432797 35.021964 
L 154.581823 35.021964 
L 153.730848 35.021964 
L 152.879873 35.021964 
L 152.028898 35.021964 
L 151.177923 35.021964 
L 150.326948 35.021964 
L 149.475973 35.021964 
L 148.624998 35.021964 
L 147.774024 35.021964 
L 146.923049 35.021964 
L 146.072074 35.021964 
L 145.221099 35.021964 
L 144.370124 35.021964 
L 143.519149 35.021964 
L 142.668174 35.021964 
L 141.817199 35.021964 
L 140.966225 35.021964 
L 140.11525 35.021964 
L 139.264275 35.021964 
L 138.4133 35.021964 
L 137.562325 35.021964 
L 136.71135 35.021964 
L 135.860375 35.021964 
L 135.0094 35.021964 
L 134.158426 35.021964 
L 133.307451 35.021964 
L 132.456476 35.021964 
L 131.605501 35.021964 
L 130.754526 35.021964 
L 129.903551 35.021964 
L 129.052576 35.021964 
L 128.201601 35.021964 
L 127.350627 35.021964 
L 126.499652 35.021964 
L 125.648677 35.021964 
L 124.797702 35.021964 
L 123.946727 35.021964 
L 123.095752 35.021964 
L 122.244777 35.021964 
L 121.393802 35.021964 
L 120.542828 35.021964 
L 119.691853 35.021964 
L 118.840878 35.021964 
L 117.989903 35.021964 
L 117.138928 35.021964 
L 116.287953 35.021964 
L 115.436978 35.021964 
L 114.586003 35.021964 
L 113.735029 35.021964 
L 112.884054 35.021964 
L 112.033079 35.021964 
L 111.182104 35.021964 
L 110.331129 35.021964 
L 109.480154 35.021964 
L 108.629179 35.021964 
L 107.778204 35.021964 
L 106.92723 35.021964 
L 106.076255 35.021964 
L 105.22528 35.021964 
L 104.374305 35.021964 
L 103.52333 35.021964 
L 102.672355 35.021964 
L 101.82138 35.021964 
L 100.970405 35.021964 
L 100.119431 35.021964 
L 99.268456 35.021964 
L 98.417481 35.021964 
L 97.566506 35.021964 
L 96.715531 35.021964 
L 95.864556 35.021964 
L 95.013581 35.021964 
L 94.162606 35.021964 
L 93.311632 35.021964 
L 92.460657 35.021964 
L 91.609682 35.021964 
L 90.758707 35.021964 
L 89.907732 35.021964 
L 89.056757 35.021964 
L 88.205782 35.021964 
L 87.354807 35.021964 
L 86.503833 35.021964 
L 85.652858 35.021964 
L 84.801883 35.021964 
L 83.950908 35.021964 
L 83.099933 35.021964 
L 82.248958 35.021964 
L 81.397983 35.021964 
L 80.547008 35.021964 
L 79.696034 35.021964 
L 78.845059 35.021964 
L 77.994084 35.021964 
L 77.994084 36.480778 
L 77.994084 37.939592 
L 77.994084 39.398406 
L 77.994084 40.325792 
z
" clip-path="url(#p46ebbffe6e)" style="fill: #f3ee27"/>
   </g>
   <g id="patch_3">
    <path d="M 198.467812 34.414125 
L 77.507813 34.414125 
L 77.507813 46.510125 
L 124.682213 46.510125 
C 130.026562 46.510125 134.359013 50.842576 134.359013 56.186925 
L 134.359013 254.561325 
C 134.359013 259.905674 130.026562 264.238125 124.682213 264.238125 
L 77.507813 264.238125 
L 77.507813 276.334125 
L 198.467812 276.334125 
L 198.467812 264.238125 
L 151.293413 264.238125 
C 145.949063 264.238125 141.616613 259.905674 141.616613 254.561325 
L 141.616613 56.186925 
C 141.616613 50.842576 145.949063 46.510125 151.293413 46.510125 
L 198.467812 46.510125 
L 198.467812 34.414125 
L 198.467812 34.414125 
z
" clip-path="url(#p46ebbffe6e)" style="fill: none; stroke: #000000; stroke-width: 1.5; stroke-linejoin: miter"/>
   </g>
   <g id="matplotlib.axis_1">
    <g id="xtick_1">
     <g id="line2d_1">
      <defs>
       <path id="m1aa3526de4" d="M 0 0 
L 0 3.5 
" style="stroke: #000000; stroke-width: 0.8"/>
      </defs>
      <g>
       <use xlink:href="#m1aa3526de4" x="77.507813" y="288.430125" style="stroke: #000000; stroke-width: 0.8"/>
      </g>
     </g>
     <g id="text_1">
      <!-- 50 -->
      <g transform="translate(66.955469 303.028562) scale(0.1 -0.1)">
       <defs>
        <path id="DejaVuSans-2212" d="M 678 2272 
L 4684 2272 
L 4684 1741 
L 678 1741 
L 678 2272 
z
" transform="scale(0.015625)"/>
        <path id="DejaVuSans-35" d="M 691 4666 
L 3169 4666 
L 3169 4134 
L 1269 4134 
L 1269 2991 
Q 1406 3038 1543 3061 
Q 1681 3084 1819 3084 
Q 2600 3084 3056 2656 
Q 3513 2228 3513 1497 
Q 3513 744 3044 326 
Q 2575 -91 1722 -91 
Q 1428 -91 1123 -41 
Q 819 9 494 109 
L 494 744 
Q 775 591 1075 516 
Q 1375 441 1709 441 
Q 2250 441 2565 725 
Q 2881 1009 2881 1497 
Q 2881 1984 2565 2268 
Q 2250 2553 1709 2553 
Q 1456 2553 1204 2497 
Q 953 2441 691 2322 
L 691 4666 
z
" transform="scale(0.015625)"/>
        <path id="DejaVuSans-30" d="M 2034 4250 
Q 1547 4250 1301 3770 
Q 1056 3291 1056 2328 
Q 1056 1369 1301 889 
Q 1547 409 2034 409 
Q 2525 409 2770 889 
Q 3016 1369 3016 2328 
Q 3016 3291 2770 3770 
Q 2525 4250 2034 4250 
z
M 2034 4750 
Q 2819 4750 3233 4129 
Q 3647 3509 3647 2328 
Q 3647 1150 3233 529 
Q 2819 -91 2034 -91 
Q 1250 -91 836 529 
Q 422 1150 422 2328 
Q 422 3509 836 4129 
Q 1250 4750 2034 4750 
z
" transform="scale(0.015625)"/>
       </defs>
       <use xlink:href="#DejaVuSans-2212"/>
       <use xlink:href="#DejaVuSans-35" transform="translate(83.789062 0)"/>
       <use xlink:href="#DejaVuSans-30" transform="translate(147.412109 0)"/>
      </g>
     </g>
    </g>
    <g id="xtick_2">
     <g id="line2d_2">
      <g>
       <use xlink:href="#m1aa3526de4" x="137.987813" y="288.430125" style="stroke: #000000; stroke-width: 0.8"/>
      </g>
     </g>
     <g id="text_2">
      <!-- 0 -->
      <g transform="translate(134.806563 303.028562) scale(0.1 -0.1)">
       <use xlink:href="#DejaVuSans-30"/>
      </g>
     </g>
    </g>
    <g id="xtick_3">
     <g id="line2d_3">
      <g>
       <use xlink:href="#m1aa3526de4" x="198.467812" y="288.430125" style="stroke: #000000; stroke-width: 0.8"/>
      </g>
     </g>
     <g id="text_3">
      <!-- 50 -->
      <g transform="translate(192.105312 303.028562) scale(0.1 -0.1)">
       <use xlink:href="#DejaVuSans-35"/>
       <use xlink:href="#DejaVuSans-30" transform="translate(63.623047 0)"/>
      </g>
     </g>
    </g>
    <g id="text_4">
     <!-- z -->
     <g transform="translate(135.363594 316.706687) scale(0.1 -0.1)">
      <defs>
       <path id="DejaVuSans-7a" d="M 353 3500 
L 3084 3500 
L 3084 2975 
L 922 459 
L 3084 459 
L 3084 0 
L 275 0 
L 275 525 
L 2438 3041 
L 353 3041 
L 353 3500 
z
" transform="scale(0.015625)"/>
      </defs>
      <use xlink:href="#DejaVuSans-7a"/>
     </g>
    </g>
   </g>
   <g id="matplotlib.axis_2">
    <g id="ytick_1">
     <g id="line2d_4">
      <defs>
       <path id="mf3893016cd" d="M 0 0 
L -3.5 0 
" style="stroke: #000000; stroke-width: 0.8"/>
      </defs>
      <g>
       <use xlink:href="#mf3893016cd" x="65.411813" y="276.334125" style="stroke: #000000; stroke-width: 0.8"/>
      </g>
     </g>
     <g id="text_5">
      <!-- 100 -->
      <g transform="translate(30.944625 280.133344) scale(0.1 -0.1)">
       <defs>
        <path id="DejaVuSans-31" d="M 794 531 
L 1825 531 
L 1825 4091 
L 703 3866 
L 703 4441 
L 1819 4666 
L 2450 4666 
L 2450 531 
L 3481 531 
L 3481 0 
L 794 0 
L 794 531 
z
" transform="scale(0.015625)"/>
       </defs>
       <use xlink:href="#DejaVuSans-2212"/>
       <use xlink:href="#DejaVuSans-31" transform="translate(83.789062 0)"/>
       <use xlink:href="#DejaVuSans-30" transform="translate(147.412109 0)"/>
       <use xlink:href="#DejaVuSans-30" transform="translate(211.035156 0)"/>
      </g>
     </g>
    </g>
    <g id="ytick_2">
     <g id="line2d_5">
      <g>
       <use xlink:href="#mf3893016cd" x="65.411813" y="246.094125" style="stroke: #000000; stroke-width: 0.8"/>
      </g>
     </g>
     <g id="text_6">
      <!-- 75 -->
      <g transform="translate(37.307125 249.893344) scale(0.1 -0.1)">
       <defs>
        <path id="DejaVuSans-37" d="M 525 4666 
L 3525 4666 
L 3525 4397 
L 1831 0 
L 1172 0 
L 2766 4134 
L 525 4134 
L 525 4666 
z
" transform="scale(0.015625)"/>
       </defs>
       <use xlink:href="#DejaVuSans-2212"/>
       <use xlink:href="#DejaVuSans-37" transform="translate(83.789062 0)"/>
       <use xlink:href="#DejaVuSans-35" transform="translate(147.412109 0)"/>
      </g>
     </g>
    </g>
    <g id="ytick_3">
     <g id="line2d_6">
      <g>
       <use xlink:href="#mf3893016cd" x="65.411813" y="215.854125" style="stroke: #000000; stroke-width: 0.8"/>
      </g>
     </g>
     <g id="text_7">
      <!-- 50 -->
      <g transform="translate(37.307125 219.653344) scale(0.1 -0.1)">
       <use xlink:href="#DejaVuSans-2212"/>
       <use xlink:href="#DejaVuSans-35" transform="translate(83.789062 0)"/>
       <use xlink:href="#DejaVuSans-30" transform="translate(147.412109 0)"/>
      </g>
     </g>
    </g>
    <g id="ytick_4">
     <g id="line2d_7">
      <g>
       <use xlink:href="#mf3893016cd" x="65.411813" y="185.614125" style="stroke: #000000; stroke-width: 0.8"/>
      </g>
     </g>
     <g id="text_8">
      <!-- 25 -->
      <g transform="translate(37.307125 189.413344) scale(0.1 -0.1)">
       <defs>
        <path id="DejaVuSans-32" d="M 1228 531 
L 3431 531 
L 3431 0 
L 469 0 
L 469 531 
Q 828 903 1448 1529 
Q 2069 2156 2228 2338 
Q 2531 2678 2651 2914 
Q 2772 3150 2772 3378 
Q 2772 3750 2511 3984 
Q 2250 4219 1831 4219 
Q 1534 4219 1204 4116 
Q 875 4013 500 3803 
L 500 4441 
Q 881 4594 1212 4672 
Q 1544 4750 1819 4750 
Q 2544 4750 2975 4387 
Q 3406 4025 3406 3419 
Q 3406 3131 3298 2873 
Q 3191 2616 2906 2266 
Q 2828 2175 2409 1742 
Q 1991 1309 1228 531 
z
" transform="scale(0.015625)"/>
       </defs>
       <use xlink:href="#DejaVuSans-2212"/>
       <use xlink:href="#DejaVuSans-32" transform="translate(83.789062 0)"/>
       <use xlink:href="#DejaVuSans-35" transform="translate(147.412109 0)"/>
      </g>
     </g>
    </g>
    <g id="ytick_5">
     <g id="line2d_8">
      <g>
       <use xlink:href="#mf3893016cd" x="65.411813" y="155.374125" style="stroke: #000000; stroke-width: 0.8"/>
      </g>
     </g>
     <g id="text_9">
      <!-- 0 -->
      <g transform="translate(52.049313 159.173344) scale(0.1 -0.1)">
       <use xlink:href="#DejaVuSans-30"/>
      </g>
     </g>
    </g>
    <g id="ytick_6">
     <g id="line2d_9">
      <g>
       <use xlink:href="#mf3893016cd" x="65.411813" y="125.134125" style="stroke: #000000; stroke-width: 0.8"/>
      </g>
     </g>
     <g id="text_10">
      <!-- 25 -->
      <g transform="translate(45.686813 128.933344) scale(0.1 -0.1)">
       <use xlink:href="#DejaVuSans-32"/>
       <use xlink:href="#DejaVuSans-35" transform="translate(63.623047 0)"/>
      </g>
     </g>
    </g>
    <g id="ytick_7">
     <g id="line2d_10">
      <g>
       <use xlink:href="#mf3893016cd" x="65.411813" y="94.894125" style="stroke: #000000; stroke-width: 0.8"/>
      </g>
     </g>
     <g id="text_11">
      <!-- 50 -->
      <g transform="translate(45.686813 98.693344) scale(0.1 -0.1)">
       <use xlink:href="#DejaVuSans-35"/>
       <use xlink:href="#DejaVuSans-30" transform="translate(63.623047 0)"/>
      </g>
     </g>
    </g>
    <g id="ytick_8">
     <g id="line2d_11">
      <g>
       <use xlink:href="#mf3893016cd" x="65.411813" y="64.654125" style="stroke: #000000; stroke-width: 0.8"/>
      </g>
     </g>
     <g id="text_12">
      <!-- 75 -->
      <g transform="translate(45.686813 68.453344) scale(0.1 -0.1)">
       <use xlink:href="#DejaVuSans-37"/>
       <use xlink:href="#DejaVuSans-35" transform="translate(63.623047 0)"/>
      </g>
     </g>
    </g>
    <g id="ytick_9">
     <g id="line2d_12">
      <g>
       <use xlink:href="#mf3893016cd" x="65.411813" y="34.414125" style="stroke: #000000; stroke-width: 0.8"/>
      </g>
     </g>
     <g id="text_13">
      <!-- 100 -->
      <g transform="translate(39.324313 38.213344) scale(0.1 -0.1)">
       <use xlink:href="#DejaVuSans-31"/>
       <use xlink:href="#DejaVuSans-30" transform="translate(63.623047 0)"/>
       <use xlink:href="#DejaVuSans-30" transform="translate(127.246094 0)"/>
      </g>
     </g>
    </g>
    <g id="text_14">
     <!-- y -->
     <g transform="translate(24.864938 158.3335) rotate(-90) scale(0.1 -0.1)">
      <defs>
       <path id="DejaVuSans-79" d="M 2059 -325 
Q 1816 -950 1584 -1140 
Q 1353 -1331 966 -1331 
L 506 -1331 
L 506 -850 
L 844 -850 
Q 1081 -850 1212 -737 
Q 1344 -625 1503 -206 
L 1606 56 
L 191 3500 
L 800 3500 
L 1894 763 
L 2988 3500 
L 3597 3500 
L 2059 -325 
z
" transform="scale(0.015625)"/>
      </defs>
      <use xlink:href="#DejaVuSans-79"/>
     </g>
    </g>
   </g>
   <g id="patch_4">
    <path d="M 65.411813 288.430125 
L 65.411813 22.318125 
" style="fill: none; stroke: #000000; stroke-width: 0.8; stroke-linejoin: miter; stroke-linecap: square"/>
   </g>
   <g id="patch_5">
    <path d="M 210.563812 288.430125 
L 210.563812 22.318125 
" style="fill: none; stroke: #000000; stroke-width: 0.8; stroke-linejoin: miter; stroke-linecap: square"/>
   </g>
   <g id="patch_6">
    <path d="M 65.411813 288.430125 
L 210.563812 288.430125 
" style="fill: none; stroke: #000000; stroke-width: 0.8; stroke-linejoin: miter; stroke-linecap: square"/>
   </g>
   <g id="patch_7">
    <path d="M 65.411813 22.318125 
L 210.563812 22.318125 
" style="fill: none; stroke: #000000; stroke-width: 0.8; stroke-linejoin: miter; stroke-linecap: square"/>
   </g>
   <g id="text_15">
    <!-- Max Von Mises Stress Section (x=2141mm) -->
    <g transform="translate(7.2 16.318125) scale(0.12 -0.12)">
     <defs>
      <path id="DejaVuSans-4d" d="M 628 4666 
L 1569 4666 
L 2759 1491 
L 3956 4666 
L 4897 4666 
L 4897 0 
L 4281 0 
L 4281 4097 
L 3078 897 
L 2444 897 
L 1241 4097 
L 1241 0 
L 628 0 
L 628 4666 
z
" transform="scale(0.015625)"/>
      <path id="DejaVuSans-61" d="M 2194 1759 
Q 1497 1759 1228 1600 
Q 959 1441 959 1056 
Q 959 750 1161 570 
Q 1363 391 1709 391 
Q 2188 391 2477 730 
Q 2766 1069 2766 1631 
L 2766 1759 
L 2194 1759 
z
M 3341 1997 
L 3341 0 
L 2766 0 
L 2766 531 
Q 2569 213 2275 61 
Q 1981 -91 1556 -91 
Q 1019 -91 701 211 
Q 384 513 384 1019 
Q 384 1609 779 1909 
Q 1175 2209 1959 2209 
L 2766 2209 
L 2766 2266 
Q 2766 2663 2505 2880 
Q 2244 3097 1772 3097 
Q 1472 3097 1187 3025 
Q 903 2953 641 2809 
L 641 3341 
Q 956 3463 1253 3523 
Q 1550 3584 1831 3584 
Q 2591 3584 2966 3190 
Q 3341 2797 3341 1997 
z
" transform="scale(0.015625)"/>
      <path id="DejaVuSans-78" d="M 3513 3500 
L 2247 1797 
L 3578 0 
L 2900 0 
L 1881 1375 
L 863 0 
L 184 0 
L 1544 1831 
L 300 3500 
L 978 3500 
L 1906 2253 
L 2834 3500 
L 3513 3500 
z
" transform="scale(0.015625)"/>
      <path id="DejaVuSans-20" transform="scale(0.015625)"/>
      <path id="DejaVuSans-56" d="M 1831 0 
L 50 4666 
L 709 4666 
L 2188 738 
L 3669 4666 
L 4325 4666 
L 2547 0 
L 1831 0 
z
" transform="scale(0.015625)"/>
      <path id="DejaVuSans-6f" d="M 1959 3097 
Q 1497 3097 1228 2736 
Q 959 2375 959 1747 
Q 959 1119 1226 758 
Q 1494 397 1959 397 
Q 2419 397 2687 759 
Q 2956 1122 2956 1747 
Q 2956 2369 2687 2733 
Q 2419 3097 1959 3097 
z
M 1959 3584 
Q 2709 3584 3137 3096 
Q 3566 2609 3566 1747 
Q 3566 888 3137 398 
Q 2709 -91 1959 -91 
Q 1206 -91 779 398 
Q 353 888 353 1747 
Q 353 2609 779 3096 
Q 1206 3584 1959 3584 
z
" transform="scale(0.015625)"/>
      <path id="DejaVuSans-6e" d="M 3513 2113 
L 3513 0 
L 2938 0 
L 2938 2094 
Q 2938 2591 2744 2837 
Q 2550 3084 2163 3084 
Q 1697 3084 1428 2787 
Q 1159 2491 1159 1978 
L 1159 0 
L 581 0 
L 581 3500 
L 1159 3500 
L 1159 2956 
Q 1366 3272 1645 3428 
Q 1925 3584 2291 3584 
Q 2894 3584 3203 3211 
Q 3513 2838 3513 2113 
z
" transform="scale(0.015625)"/>
      <path id="DejaVuSans-69" d="M 603 3500 
L 1178 3500 
L 1178 0 
L 603 0 
L 603 3500 
z
M 603 4863 
L 1178 4863 
L 1178 4134 
L 603 4134 
L 603 4863 
z
" transform="scale(0.015625)"/>
      <path id="DejaVuSans-73" d="M 2834 3397 
L 2834 2853 
Q 2591 2978 2328 3040 
Q 2066 3103 1784 3103 
Q 1356 3103 1142 2972 
Q 928 2841 928 2578 
Q 928 2378 1081 2264 
Q 1234 2150 1697 2047 
L 1894 2003 
Q 2506 1872 2764 1633 
Q 3022 1394 3022 966 
Q 3022 478 2636 193 
Q 2250 -91 1575 -91 
Q 1294 -91 989 -36 
Q 684 19 347 128 
L 347 722 
Q 666 556 975 473 
Q 1284 391 1588 391 
Q 1994 391 2212 530 
Q 2431 669 2431 922 
Q 2431 1156 2273 1281 
Q 2116 1406 1581 1522 
L 1381 1569 
Q 847 1681 609 1914 
Q 372 2147 372 2553 
Q 372 3047 722 3315 
Q 1072 3584 1716 3584 
Q 2034 3584 2315 3537 
Q 2597 3491 2834 3397 
z
" transform="scale(0.015625)"/>
      <path id="DejaVuSans-65" d="M 3597 1894 
L 3597 1613 
L 953 1613 
Q 991 1019 1311 708 
Q 1631 397 2203 397 
Q 2534 397 2845 478 
Q 3156 559 3463 722 
L 3463 178 
Q 3153 47 2828 -22 
Q 2503 -91 2169 -91 
Q 1331 -91 842 396 
Q 353 884 353 1716 
Q 353 2575 817 3079 
Q 1281 3584 2069 3584 
Q 2775 3584 3186 3129 
Q 3597 2675 3597 1894 
z
M 3022 2063 
Q 3016 2534 2758 2815 
Q 2500 3097 2075 3097 
Q 1594 3097 1305 2825 
Q 1016 2553 972 2059 
L 3022 2063 
z
" transform="scale(0.015625)"/>
      <path id="DejaVuSans-53" d="M 3425 4513 
L 3425 3897 
Q 3066 4069 2747 4153 
Q 2428 4238 2131 4238 
Q 1616 4238 1336 4038 
Q 1056 3838 1056 3469 
Q 1056 3159 1242 3001 
Q 1428 2844 1947 2747 
L 2328 2669 
Q 3034 2534 3370 2195 
Q 3706 1856 3706 1288 
Q 3706 609 3251 259 
Q 2797 -91 1919 -91 
Q 1588 -91 1214 -16 
Q 841 59 441 206 
L 441 856 
Q 825 641 1194 531 
Q 1563 422 1919 422 
Q 2459 422 2753 634 
Q 3047 847 3047 1241 
Q 3047 1584 2836 1778 
Q 2625 1972 2144 2069 
L 1759 2144 
Q 1053 2284 737 2584 
Q 422 2884 422 3419 
Q 422 4038 858 4394 
Q 1294 4750 2059 4750 
Q 2388 4750 2728 4690 
Q 3069 4631 3425 4513 
z
" transform="scale(0.015625)"/>
      <path id="DejaVuSans-74" d="M 1172 4494 
L 1172 3500 
L 2356 3500 
L 2356 3053 
L 1172 3053 
L 1172 1153 
Q 1172 725 1289 603 
Q 1406 481 1766 481 
L 2356 481 
L 2356 0 
L 1766 0 
Q 1100 0 847 248 
Q 594 497 594 1153 
L 594 3053 
L 172 3053 
L 172 3500 
L 594 3500 
L 594 4494 
L 1172 4494 
z
" transform="scale(0.015625)"/>
      <path id="DejaVuSans-72" d="M 2631 2963 
Q 2534 3019 2420 3045 
Q 2306 3072 2169 3072 
Q 1681 3072 1420 2755 
Q 1159 2438 1159 1844 
L 1159 0 
L 581 0 
L 581 3500 
L 1159 3500 
L 1159 2956 
Q 1341 3275 1631 3429 
Q 1922 3584 2338 3584 
Q 2397 3584 2469 3576 
Q 2541 3569 2628 3553 
L 2631 2963 
z
" transform="scale(0.015625)"/>
      <path id="DejaVuSans-63" d="M 3122 3366 
L 3122 2828 
Q 2878 2963 2633 3030 
Q 2388 3097 2138 3097 
Q 1578 3097 1268 2742 
Q 959 2388 959 1747 
Q 959 1106 1268 751 
Q 1578 397 2138 397 
Q 2388 397 2633 464 
Q 2878 531 3122 666 
L 3122 134 
Q 2881 22 2623 -34 
Q 2366 -91 2075 -91 
Q 1284 -91 818 406 
Q 353 903 353 1747 
Q 353 2603 823 3093 
Q 1294 3584 2113 3584 
Q 2378 3584 2631 3529 
Q 2884 3475 3122 3366 
z
" transform="scale(0.015625)"/>
      <path id="DejaVuSans-28" d="M 1984 4856 
Q 1566 4138 1362 3434 
Q 1159 2731 1159 2009 
Q 1159 1288 1364 580 
Q 1569 -128 1984 -844 
L 1484 -844 
Q 1016 -109 783 600 
Q 550 1309 550 2009 
Q 550 2706 781 3412 
Q 1013 4119 1484 4856 
L 1984 4856 
z
" transform="scale(0.015625)"/>
      <path id="DejaVuSans-3d" d="M 678 2906 
L 4684 2906 
L 4684 2381 
L 678 2381 
L 678 2906 
z
M 678 1631 
L 4684 1631 
L 4684 1100 
L 678 1100 
L 678 1631 
z
" transform="scale(0.015625)"/>
      <path id="DejaVuSans-34" d="M 2419 4116 
L 825 1625 
L 2419 1625 
L 2419 4116 
z
M 2253 4666 
L 3047 4666 
L 3047 1625 
L 3713 1625 
L 3713 1100 
L 3047 1100 
L 3047 0 
L 2419 0 
L 2419 1100 
L 313 1100 
L 313 1709 
L 2253 4666 
z
" transform="scale(0.015625)"/>
      <path id="DejaVuSans-6d" d="M 3328 2828 
Q 3544 3216 3844 3400 
Q 4144 3584 4550 3584 
Q 5097 3584 5394 3201 
Q 5691 2819 5691 2113 
L 5691 0 
L 5113 0 
L 5113 2094 
Q 5113 2597 4934 2840 
Q 4756 3084 4391 3084 
Q 3944 3084 3684 2787 
Q 3425 2491 3425 1978 
L 3425 0 
L 2847 0 
L 2847 2094 
Q 2847 2600 2669 2842 
Q 2491 3084 2119 3084 
Q 1678 3084 1418 2786 
Q 1159 2488 1159 1978 
L 1159 0 
L 581 0 
L 581 3500 
L 1159 3500 
L 1159 2956 
Q 1356 3278 1631 3431 
Q 1906 3584 2284 3584 
Q 2666 3584 2933 3390 
Q 3200 3197 3328 2828 
z
" transform="scale(0.015625)"/>
      <path id="DejaVuSans-29" d="M 513 4856 
L 1013 4856 
Q 1481 4119 1714 3412 
Q 1947 2706 1947 2009 
Q 1947 1309 1714 600 
Q 1481 -109 1013 -844 
L 513 -844 
Q 928 -128 1133 580 
Q 1338 1288 1338 2009 
Q 1338 2731 1133 3434 
Q 928 4138 513 4856 
z
" transform="scale(0.015625)"/>
     </defs>
     <use xlink:href="#DejaVuSans-4d"/>
     <use xlink:href="#DejaVuSans-61" transform="translate(86.279297 0)"/>
     <use xlink:href="#DejaVuSans-78" transform="translate(147.558594 0)"/>
     <use xlink:href="#DejaVuSans-20" transform="translate(206.738281 0)"/>
     <use xlink:href="#DejaVuSans-56" transform="translate(238.525391 0)"/>
     <use xlink:href="#DejaVuSans-6f" transform="translate(299.183594 0)"/>
     <use xlink:href="#DejaVuSans-6e" transform="translate(360.365234 0)"/>
     <use xlink:href="#DejaVuSans-20" transform="translate(423.744141 0)"/>
     <use xlink:href="#DejaVuSans-4d" transform="translate(455.53125 0)"/>
     <use xlink:href="#DejaVuSans-69" transform="translate(541.810547 0)"/>
     <use xlink:href="#DejaVuSans-73" transform="translate(569.59375 0)"/>
     <use xlink:href="#DejaVuSans-65" transform="translate(621.693359 0)"/>
     <use xlink:href="#DejaVuSans-73" transform="translate(683.216797 0)"/>
     <use xlink:href="#DejaVuSans-20" transform="translate(735.316406 0)"/>
     <use xlink:href="#DejaVuSans-53" transform="translate(767.103516 0)"/>
     <use xlink:href="#DejaVuSans-74" transform="translate(830.580078 0)"/>
     <use xlink:href="#DejaVuSans-72" transform="translate(869.789062 0)"/>
     <use xlink:href="#DejaVuSans-65" transform="translate(908.652344 0)"/>
     <use xlink:href="#DejaVuSans-73" transform="translate(970.175781 0)"/>
     <use xlink:href="#DejaVuSans-73" transform="translate(1022.275391 0)"/>
     <use xlink:href="#DejaVuSans-20" transform="translate(1074.375 0)"/>
     <use xlink:href="#DejaVuSans-53" transform="translate(1106.162109 0)"/>
     <use xlink:href="#DejaVuSans-65" transform="translate(1169.638672 0)"/>
     <use xlink:href="#DejaVuSans-63" transform="translate(1231.162109 0)"/>
     <use xlink:href="#DejaVuSans-74" transform="translate(1286.142578 0)"/>
     <use xlink:href="#DejaVuSans-69" transform="translate(1325.351562 0)"/>
     <use xlink:href="#DejaVuSans-6f" transform="translate(1353.134766 0)"/>
     <use xlink:href="#DejaVuSans-6e" transform="translate(1414.316406 0)"/>
     <use xlink:href="#DejaVuSans-20" transform="translate(1477.695312 0)"/>
     <use xlink:href="#DejaVuSans-28" transform="translate(1509.482422 0)"/>
     <use xlink:href="#DejaVuSans-78" transform="translate(1548.496094 0)"/>
     <use xlink:href="#DejaVuSans-3d" transform="translate(1607.675781 0)"/>
     <use xlink:href="#DejaVuSans-32" transform="translate(1691.464844 0)"/>
     <use xlink:href="#DejaVuSans-31" transform="translate(1755.087891 0)"/>
     <use xlink:href="#DejaVuSans-34" transform="translate(1818.710938 0)"/>
     <use xlink:href="#DejaVuSans-31" transform="translate(1882.333984 0)"/>
     <use xlink:href="#DejaVuSans-6d" transform="translate(1945.957031 0)"/>
     <use xlink:href="#DejaVuSans-6d" transform="translate(2043.369141 0)"/>
     <use xlink:href="#DejaVuSans-29" transform="translate(2140.78125 0)"/>
    </g>
   </g>
  </g>
  <g id="axes_2">
   <g id="patch_8">
    <path d="M 228.419813 288.430125 
L 241.725413 288.430125 
L 241.725413 22.318125 
L 228.419813 22.318125 
z
" style="fill: #ffffff"/>
   </g>
   <g id="QuadMesh_1">
    <path d="M 228.419813 288.430125 
L 241.725413 288.430125 
L 241.725413 274.42423 
L 228.419813 274.42423 
L 228.419813 288.430125 
" clip-path="url(#p111777fe6f)" style="fill: #1d068e"/>
    <path d="M 228.419813 274.42423 
L 241.725413 274.42423 
L 241.725413 260.418336 
L 228.419813 260.418336 
L 228.419813 274.42423 
" clip-path="url(#p111777fe6f)" style="fill: #38049a"/>
    <path d="M 228.419813 260.418336 
L 241.725413 260.418336 
L 241.725413 246.412441 
L 228.419813 246.412441 
L 228.419813 260.418336 
" clip-path="url(#p111777fe6f)" style="fill: #4e02a2"/>
    <path d="M 228.419813 246.412441 
L 241.725413 246.412441 
L 241.725413 232.406546 
L 228.419813 232.406546 
L 228.419813 246.412441 
" clip-path="url(#p111777fe6f)" style="fill: #6400a7"/>
    <path d="M 228.419813 232.406546 
L 241.725413 232.406546 
L 241.725413 218.400651 
L 228.419813 218.400651 
L 228.419813 232.406546 
" clip-path="url(#p111777fe6f)" style="fill: #7801a8"/>
    <path d="M 228.419813 218.400651 
L 241.725413 218.400651 
L 241.725413 204.394757 
L 228.419813 204.394757 
L 228.419813 218.400651 
" clip-path="url(#p111777fe6f)" style="fill: #8d0ba5"/>
    <path d="M 228.419813 204.394757 
L 241.725413 204.394757 
L 241.725413 190.388862 
L 228.419813 190.388862 
L 228.419813 204.394757 
" clip-path="url(#p111777fe6f)" style="fill: #9e199d"/>
    <path d="M 228.419813 190.388862 
L 241.725413 190.388862 
L 241.725413 176.382967 
L 228.419813 176.382967 
L 228.419813 190.388862 
" clip-path="url(#p111777fe6f)" style="fill: #b02991"/>
    <path d="M 228.419813 176.382967 
L 241.725413 176.382967 
L 241.725413 162.377072 
L 228.419813 162.377072 
L 228.419813 176.382967 
" clip-path="url(#p111777fe6f)" style="fill: #be3885"/>
    <path d="M 228.419813 162.377072 
L 241.725413 162.377072 
L 241.725413 148.371178 
L 228.419813 148.371178 
L 228.419813 162.377072 
" clip-path="url(#p111777fe6f)" style="fill: #cc4778"/>
    <path d="M 228.419813 148.371178 
L 241.725413 148.371178 
L 241.725413 134.365283 
L 228.419813 134.365283 
L 228.419813 148.371178 
" clip-path="url(#p111777fe6f)" style="fill: #d7566c"/>
    <path d="M 228.419813 134.365283 
L 241.725413 134.365283 
L 241.725413 120.359388 
L 228.419813 120.359388 
L 228.419813 134.365283 
" clip-path="url(#p111777fe6f)" style="fill: #e26561"/>
    <path d="M 228.419813 120.359388 
L 241.725413 120.359388 
L 241.725413 106.353493 
L 228.419813 106.353493 
L 228.419813 120.359388 
" clip-path="url(#p111777fe6f)" style="fill: #eb7655"/>
    <path d="M 228.419813 106.353493 
L 241.725413 106.353493 
L 241.725413 92.347599 
L 228.419813 92.347599 
L 228.419813 106.353493 
" clip-path="url(#p111777fe6f)" style="fill: #f3874a"/>
    <path d="M 228.419813 92.347599 
L 241.725413 92.347599 
L 241.725413 78.341704 
L 228.419813 78.341704 
L 228.419813 92.347599 
" clip-path="url(#p111777fe6f)" style="fill: #f99a3e"/>
    <path d="M 228.419813 78.341704 
L 241.725413 78.341704 
L 241.725413 64.335809 
L 228.419813 64.335809 
L 228.419813 78.341704 
" clip-path="url(#p111777fe6f)" style="fill: #fdac33"/>
    <path d="M 228.419813 64.335809 
L 241.725413 64.335809 
L 241.725413 50.329914 
L 228.419813 50.329914 
L 228.419813 64.335809 
" clip-path="url(#p111777fe6f)" style="fill: #fdc229"/>
    <path d="M 228.419813 50.329914 
L 241.725413 50.329914 
L 241.725413 36.32402 
L 228.419813 36.32402 
L 228.419813 50.329914 
" clip-path="url(#p111777fe6f)" style="fill: #fbd724"/>
    <path d="M 228.419813 36.32402 
L 241.725413 36.32402 
L 241.725413 22.318125 
L 228.419813 22.318125 
L 228.419813 36.32402 
" clip-path="url(#p111777fe6f)" style="fill: #f3ee27"/>
   </g>
   <g id="matplotlib.axis_3"/>
   <g id="matplotlib.axis_4">
    <g id="ytick_10">
     <g id="line2d_13">
      <defs>
       <path id="mc8c83fbb6c" d="M 0 0 
L 3.5 0 
" style="stroke: #000000; stroke-width: 0.8"/>
      </defs>
      <g>
       <use xlink:href="#mc8c83fbb6c" x="241.725413" y="288.430125" style="stroke: #000000; stroke-width: 0.8"/>
      </g>
     </g>
     <g id="text_16">
      <!-- 0 -->
      <g transform="translate(248.725413 292.229344) scale(0.1 -0.1)">
       <use xlink:href="#DejaVuSans-30"/>
      </g>
     </g>
    </g>
    <g id="ytick_11">
     <g id="line2d_14">
      <g>
       <use xlink:href="#mc8c83fbb6c" x="241.725413" y="260.418336" style="stroke: #000000; stroke-width: 0.8"/>
      </g>
     </g>
     <g id="text_17">
      <!-- 2 -->
      <g transform="translate(248.725413 264.217554) scale(0.1 -0.1)">
       <use xlink:href="#DejaVuSans-32"/>
      </g>
     </g>
    </g>
    <g id="ytick_12">
     <g id="line2d_15">
      <g>
       <use xlink:href="#mc8c83fbb6c" x="241.725413" y="232.406546" style="stroke: #000000; stroke-width: 0.8"/>
      </g>
     </g>
     <g id="text_18">
      <!-- 4 -->
      <g transform="translate(248.725413 236.205765) scale(0.1 -0.1)">
       <use xlink:href="#DejaVuSans-34"/>
      </g>
     </g>
    </g>
    <g id="ytick_13">
     <g id="line2d_16">
      <g>
       <use xlink:href="#mc8c83fbb6c" x="241.725413" y="204.394757" style="stroke: #000000; stroke-width: 0.8"/>
      </g>
     </g>
     <g id="text_19">
      <!-- 6 -->
      <g transform="translate(248.725413 208.193975) scale(0.1 -0.1)">
       <defs>
        <path id="DejaVuSans-36" d="M 2113 2584 
Q 1688 2584 1439 2293 
Q 1191 2003 1191 1497 
Q 1191 994 1439 701 
Q 1688 409 2113 409 
Q 2538 409 2786 701 
Q 3034 994 3034 1497 
Q 3034 2003 2786 2293 
Q 2538 2584 2113 2584 
z
M 3366 4563 
L 3366 3988 
Q 3128 4100 2886 4159 
Q 2644 4219 2406 4219 
Q 1781 4219 1451 3797 
Q 1122 3375 1075 2522 
Q 1259 2794 1537 2939 
Q 1816 3084 2150 3084 
Q 2853 3084 3261 2657 
Q 3669 2231 3669 1497 
Q 3669 778 3244 343 
Q 2819 -91 2113 -91 
Q 1303 -91 875 529 
Q 447 1150 447 2328 
Q 447 3434 972 4092 
Q 1497 4750 2381 4750 
Q 2619 4750 2861 4703 
Q 3103 4656 3366 4563 
z
" transform="scale(0.015625)"/>
       </defs>
       <use xlink:href="#DejaVuSans-36"/>
      </g>
     </g>
    </g>
    <g id="ytick_14">
     <g id="line2d_17">
      <g>
       <use xlink:href="#mc8c83fbb6c" x="241.725413" y="176.382967" style="stroke: #000000; stroke-width: 0.8"/>
      </g>
     </g>
     <g id="text_20">
      <!-- 8 -->
      <g transform="translate(248.725413 180.182186) scale(0.1 -0.1)">
       <defs>
        <path id="DejaVuSans-38" d="M 2034 2216 
Q 1584 2216 1326 1975 
Q 1069 1734 1069 1313 
Q 1069 891 1326 650 
Q 1584 409 2034 409 
Q 2484 409 2743 651 
Q 3003 894 3003 1313 
Q 3003 1734 2745 1975 
Q 2488 2216 2034 2216 
z
M 1403 2484 
Q 997 2584 770 2862 
Q 544 3141 544 3541 
Q 544 4100 942 4425 
Q 1341 4750 2034 4750 
Q 2731 4750 3128 4425 
Q 3525 4100 3525 3541 
Q 3525 3141 3298 2862 
Q 3072 2584 2669 2484 
Q 3125 2378 3379 2068 
Q 3634 1759 3634 1313 
Q 3634 634 3220 271 
Q 2806 -91 2034 -91 
Q 1263 -91 848 271 
Q 434 634 434 1313 
Q 434 1759 690 2068 
Q 947 2378 1403 2484 
z
M 1172 3481 
Q 1172 3119 1398 2916 
Q 1625 2713 2034 2713 
Q 2441 2713 2670 2916 
Q 2900 3119 2900 3481 
Q 2900 3844 2670 4047 
Q 2441 4250 2034 4250 
Q 1625 4250 1398 4047 
Q 1172 3844 1172 3481 
z
" transform="scale(0.015625)"/>
       </defs>
       <use xlink:href="#DejaVuSans-38"/>
      </g>
     </g>
    </g>
    <g id="ytick_15">
     <g id="line2d_18">
      <g>
       <use xlink:href="#mc8c83fbb6c" x="241.725413" y="148.371178" style="stroke: #000000; stroke-width: 0.8"/>
      </g>
     </g>
     <g id="text_21">
      <!-- 10 -->
      <g transform="translate(248.725413 152.170396) scale(0.1 -0.1)">
       <use xlink:href="#DejaVuSans-31"/>
       <use xlink:href="#DejaVuSans-30" transform="translate(63.623047 0)"/>
      </g>
     </g>
    </g>
    <g id="ytick_16">
     <g id="line2d_19">
      <g>
       <use xlink:href="#mc8c83fbb6c" x="241.725413" y="120.359388" style="stroke: #000000; stroke-width: 0.8"/>
      </g>
     </g>
     <g id="text_22">
      <!-- 12 -->
      <g transform="translate(248.725413 124.158607) scale(0.1 -0.1)">
       <use xlink:href="#DejaVuSans-31"/>
       <use xlink:href="#DejaVuSans-32" transform="translate(63.623047 0)"/>
      </g>
     </g>
    </g>
    <g id="ytick_17">
     <g id="line2d_20">
      <g>
       <use xlink:href="#mc8c83fbb6c" x="241.725413" y="92.347599" style="stroke: #000000; stroke-width: 0.8"/>
      </g>
     </g>
     <g id="text_23">
      <!-- 14 -->
      <g transform="translate(248.725413 96.146817) scale(0.1 -0.1)">
       <use xlink:href="#DejaVuSans-31"/>
       <use xlink:href="#DejaVuSans-34" transform="translate(63.623047 0)"/>
      </g>
     </g>
    </g>
    <g id="ytick_18">
     <g id="line2d_21">
      <g>
       <use xlink:href="#mc8c83fbb6c" x="241.725413" y="64.335809" style="stroke: #000000; stroke-width: 0.8"/>
      </g>
     </g>
     <g id="text_24">
      <!-- 16 -->
      <g transform="translate(248.725413 68.135028) scale(0.1 -0.1)">
       <use xlink:href="#DejaVuSans-31"/>
       <use xlink:href="#DejaVuSans-36" transform="translate(63.623047 0)"/>
      </g>
     </g>
    </g>
    <g id="ytick_19">
     <g id="line2d_22">
      <g>
       <use xlink:href="#mc8c83fbb6c" x="241.725413" y="36.32402" style="stroke: #000000; stroke-width: 0.8"/>
      </g>
     </g>
     <g id="text_25">
      <!-- 18 -->
      <g transform="translate(248.725413 40.123238) scale(0.1 -0.1)">
       <use xlink:href="#DejaVuSans-31"/>
       <use xlink:href="#DejaVuSans-38" transform="translate(63.623047 0)"/>
      </g>
     </g>
    </g>
    <g id="text_26">
     <!-- von_mises -->
     <g transform="translate(273.04885 181.606937) rotate(-90) scale(0.1 -0.1)">
      <defs>
       <path id="DejaVuSans-76" d="M 191 3500 
L 800 3500 
L 1894 563 
L 2988 3500 
L 3597 3500 
L 2284 0 
L 1503 0 
L 191 3500 
z
" transform="scale(0.015625)"/>
       <path id="DejaVuSans-5f" d="M 3263 -1063 
L 3263 -1509 
L -63 -1509 
L -63 -1063 
L 3263 -1063 
z
" transform="scale(0.015625)"/>
      </defs>
      <use xlink:href="#DejaVuSans-76"/>
      <use xlink:href="#DejaVuSans-6f" transform="translate(59.179688 0)"/>
      <use xlink:href="#DejaVuSans-6e" transform="translate(120.361328 0)"/>
      <use xlink:href="#DejaVuSans-5f" transform="translate(183.740234 0)"/>
      <use xlink:href="#DejaVuSans-6d" transform="translate(233.740234 0)"/>
      <use xlink:href="#DejaVuSans-69" transform="translate(331.152344 0)"/>
      <use xlink:href="#DejaVuSans-73" transform="translate(358.935547 0)"/>
      <use xlink:href="#DejaVuSans-65" transform="translate(411.035156 0)"/>
      <use xlink:href="#DejaVuSans-73" transform="translate(472.558594 0)"/>
     </g>
    </g>
   </g>
   <g id="LineCollection_1"/>
   <g id="patch_9">
    <path d="M 228.419813 288.430125 
L 235.072613 288.430125 
L 241.725413 288.430125 
L 241.725413 22.318125 
L 235.072613 22.318125 
L 228.419813 22.318125 
L 228.419813 288.430125 
z
" style="fill: none; stroke: #000000; stroke-width: 0.8; stroke-linejoin: miter; stroke-linecap: square"/>
   </g>
  </g>
 </g>
 <defs>
  <clipPath id="p46ebbffe6e">
   <rect x="65.411813" y="22.318125" width="145.152" height="266.112"/>
  </clipPath>
  <clipPath id="p111777fe6f">
   <rect x="228.419813" y="22.318125" width="13.3056" height="266.112"/>
  </clipPath>
 </defs>
</svg>
