<?xml version="1.0" encoding="utf-8" standalone="no"?>
<!DOCTYPE svg PUBLIC "-//W3C//DTD SVG 1.1//EN"
  "http://www.w3.org/Graphics/SVG/1.1/DTD/svg11.dtd">
<svg xmlns:xlink="http://www.w3.org/1999/xlink" width="457.92pt" height="457.92pt" viewBox="0 0 457.92 457.92" xmlns="http://www.w3.org/2000/svg" version="1.1">
 <metadata>
  <rdf:RDF xmlns:dc="http://purl.org/dc/elements/1.1/" xmlns:cc="http://creativecommons.org/ns#" xmlns:rdf="http://www.w3.org/1999/02/22-rdf-syntax-ns#">
   <cc:Work>
    <dc:type rdf:resource="http://purl.org/dc/dcmitype/StillImage"/>
    <dc:date>2025-12-19T16:15:38.722525</dc:date>
    <dc:format>image/svg+xml</dc:format>
    <dc:creator>
     <cc:Agent>
      <dc:title>Matplotlib v3.10.7, https://matplotlib.org/</dc:title>
     </cc:Agent>
    </dc:creator>
   </cc:Work>
  </rdf:RDF>
 </metadata>
 <defs>
  <style type="text/css">*{stroke-linejoin: round; stroke-linecap: butt}</style>
 </defs>
 <g id="figure_1">
  <g id="patch_1">
   <path d="M 0 457.92 
L 457.92 457.92 
L 457.92 0 
L 0 0 
z
" style="fill: #ffffff"/>
  </g>
  <g id="patch_2">
   <path d="M 7.2 450.72 
L 450.72 450.72 
L 450.72 7.2 
L 7.2 7.2 
z
" style="fill: #ffffff"/>
  </g>
  <g id="pane3d_1">
   <g id="patch_3">
    <path d="M 77.574819 328.150076 
L 300.885961 194.224168 
L 301.653893 117.171127 
L 75.446938 240.513403 
" style="fill: none; opacity: 0"/>
   </g>
  </g>
  <g id="pane3d_2">
   <g id="patch_4">
    <path d="M 300.885961 194.224168 
L 372.958575 207.784898 
L 374.59209 129.639453 
L 301.653893 117.171127 
" style="fill: none; opacity: 0"/>
   </g>
  </g>
  <g id="pane3d_3">
   <g id="patch_5">
    <path d="M 77.574819 328.150076 
L 157.130748 346.403377 
L 372.958575 207.784898 
L 300.885961 194.224168 
" style="fill: none; opacity: 0"/>
   </g>
  </g>
  <g id="axis3d_1">
   <g id="line2d_1">
    <path d="M 77.574819 328.150076 
L 157.130748 346.403377 
" style="fill: none; stroke: #ffffff; stroke-opacity: 0; stroke-width: 0.8; stroke-linecap: square"/>
   </g>
  </g>
  <g id="axis3d_2">
   <g id="line2d_2">
    <path d="M 372.958575 207.784898 
L 157.130748 346.403377 
" style="fill: none; stroke: #000000; stroke-width: 0.8; stroke-linecap: square"/>
   </g>
   <g id="xtick_1">
    <g id="line2d_3">
     <path d="M 156.482516 346.254647 
L 158.427794 346.700971 
" style="fill: none; stroke: #000000; stroke-width: 0.8; stroke-linecap: square"/>
    </g>
    <g id="text_1">
     <!-- 0 -->
     <g transform="translate(158.037696 359.301507) scale(0.1 -0.1)">
      <defs>
       <path id="DejaVuSans-30" d="M 2034 4250 
Q 1547 4250 1301 3770 
Q 1056 3291 1056 2328 
Q 1056 1369 1301 889 
Q 1547 409 2034 409 
Q 2525 409 2770 889 
Q 3016 1369 3016 2328 
Q 3016 3291 2770 3770 
Q 2525 4250 2034 4250 
z
M 2034 4750 
Q 2819 4750 3233 4129 
Q 3647 3509 3647 2328 
Q 3647 1150 3233 529 
Q 2819 -91 2034 -91 
Q 1250 -91 836 529 
Q 422 1150 422 2328 
Q 422 3509 836 4129 
Q 1250 4750 2034 4750 
z
" transform="scale(0.015625)"/>
      </defs>
      <use xlink:href="#DejaVuSans-30"/>
     </g>
    </g>
   </g>
   <g id="xtick_2">
    <g id="line2d_4">
     <path d="M 205.069439 315.066704 
L 206.974862 315.485504 
" style="fill: none; stroke: #000000; stroke-width: 0.8; stroke-linecap: square"/>
    </g>
    <g id="text_2">
     <!-- 1 -->
     <g transform="translate(206.495162 327.930715) scale(0.1 -0.1)">
      <defs>
       <path id="DejaVuSans-31" d="M 794 531 
L 1825 531 
L 1825 4091 
L 703 3866 
L 703 4441 
L 1819 4666 
L 2450 4666 
L 2450 531 
L 3481 531 
L 3481 0 
L 794 0 
L 794 531 
z
" transform="scale(0.015625)"/>
      </defs>
      <use xlink:href="#DejaVuSans-31"/>
     </g>
    </g>
   </g>
   <g id="xtick_3">
    <g id="line2d_5">
     <path d="M 250.705558 285.772881 
L 252.572307 286.166628 
" style="fill: none; stroke: #000000; stroke-width: 0.8; stroke-linecap: square"/>
    </g>
    <g id="text_3">
     <!-- 2 -->
     <g transform="translate(252.008576 298.465867) scale(0.1 -0.1)">
      <defs>
       <path id="DejaVuSans-32" d="M 1228 531 
L 3431 531 
L 3431 0 
L 469 0 
L 469 531 
Q 828 903 1448 1529 
Q 2069 2156 2228 2338 
Q 2531 2678 2651 2914 
Q 2772 3150 2772 3378 
Q 2772 3750 2511 3984 
Q 2250 4219 1831 4219 
Q 1534 4219 1204 4116 
Q 875 4013 500 3803 
L 500 4441 
Q 881 4594 1212 4672 
Q 1544 4750 1819 4750 
Q 2544 4750 2975 4387 
Q 3406 4025 3406 3419 
Q 3406 3131 3298 2873 
Q 3191 2616 2906 2266 
Q 2828 2175 2409 1742 
Q 1991 1309 1228 531 
z
" transform="scale(0.015625)"/>
      </defs>
      <use xlink:href="#DejaVuSans-32"/>
     </g>
    </g>
   </g>
   <g id="xtick_4">
    <g id="line2d_6">
     <path d="M 293.651767 258.205711 
L 295.481023 258.576587 
" style="fill: none; stroke: #000000; stroke-width: 0.8; stroke-linecap: square"/>
    </g>
    <g id="text_4">
     <!-- 3 -->
     <g transform="translate(294.838329 270.73839) scale(0.1 -0.1)">
      <defs>
       <path id="DejaVuSans-33" d="M 2597 2516 
Q 3050 2419 3304 2112 
Q 3559 1806 3559 1356 
Q 3559 666 3084 287 
Q 2609 -91 1734 -91 
Q 1441 -91 1130 -33 
Q 819 25 488 141 
L 488 750 
Q 750 597 1062 519 
Q 1375 441 1716 441 
Q 2309 441 2620 675 
Q 2931 909 2931 1356 
Q 2931 1769 2642 2001 
Q 2353 2234 1838 2234 
L 1294 2234 
L 1294 2753 
L 1863 2753 
Q 2328 2753 2575 2939 
Q 2822 3125 2822 3475 
Q 2822 3834 2567 4026 
Q 2313 4219 1838 4219 
Q 1578 4219 1281 4162 
Q 984 4106 628 3988 
L 628 4550 
Q 988 4650 1302 4700 
Q 1616 4750 1894 4750 
Q 2613 4750 3031 4423 
Q 3450 4097 3450 3541 
Q 3450 3153 3228 2886 
Q 3006 2619 2597 2516 
z
" transform="scale(0.015625)"/>
      </defs>
      <use xlink:href="#DejaVuSans-33"/>
     </g>
    </g>
   </g>
   <g id="xtick_5">
    <g id="line2d_7">
     <path d="M 334.139083 232.216906 
L 335.932017 232.566847 
" style="fill: none; stroke: #000000; stroke-width: 0.8; stroke-linecap: square"/>
    </g>
    <g id="text_5">
     <!-- 4 -->
     <g transform="translate(335.214981 244.599022) scale(0.1 -0.1)">
      <defs>
       <path id="DejaVuSans-34" d="M 2419 4116 
L 825 1625 
L 2419 1625 
L 2419 4116 
z
M 2253 4666 
L 3047 4666 
L 3047 1625 
L 3713 1625 
L 3713 1100 
L 3047 1100 
L 3047 0 
L 2419 0 
L 2419 1100 
L 313 1100 
L 313 1709 
L 2253 4666 
z
" transform="scale(0.015625)"/>
      </defs>
      <use xlink:href="#DejaVuSans-34"/>
     </g>
    </g>
   </g>
   <g id="xtick_6">
    <g id="line2d_8">
     <path d="M 372.372803 207.674682 
L 374.13057 208.005413 
" style="fill: none; stroke: #000000; stroke-width: 0.8; stroke-linecap: square"/>
    </g>
    <g id="text_6">
     <!-- 5 -->
     <g transform="translate(373.343421 219.915119) scale(0.1 -0.1)">
      <defs>
       <path id="DejaVuSans-35" d="M 691 4666 
L 3169 4666 
L 3169 4134 
L 1269 4134 
L 1269 2991 
Q 1406 3038 1543 3061 
Q 1681 3084 1819 3084 
Q 2600 3084 3056 2656 
Q 3513 2228 3513 1497 
Q 3513 744 3044 326 
Q 2575 -91 1722 -91 
Q 1428 -91 1123 -41 
Q 819 9 494 109 
L 494 744 
Q 775 591 1075 516 
Q 1375 441 1709 441 
Q 2250 441 2565 725 
Q 2881 1009 2881 1497 
Q 2881 1984 2565 2268 
Q 2250 2553 1709 2553 
Q 1456 2553 1204 2497 
Q 953 2441 691 2322 
L 691 4666 
z
" transform="scale(0.015625)"/>
      </defs>
      <use xlink:href="#DejaVuSans-35"/>
     </g>
    </g>
   </g>
   <g id="text_7">
    <!-- x -->
    <g transform="translate(283.746098 292.09925) scale(0.1 -0.1)">
     <defs>
      <path id="DejaVuSans-78" d="M 3513 3500 
L 2247 1797 
L 3578 0 
L 2900 0 
L 1881 1375 
L 863 0 
L 184 0 
L 1544 1831 
L 300 3500 
L 978 3500 
L 1906 2253 
L 2834 3500 
L 3513 3500 
z
" transform="scale(0.015625)"/>
     </defs>
     <use xlink:href="#DejaVuSans-78"/>
    </g>
   </g>
  </g>
  <g id="axis3d_3">
   <g id="line2d_9">
    <path d="M 372.958575 207.784898 
L 374.59209 129.639453 
" style="fill: none; stroke: #000000; stroke-width: 0.8; stroke-linecap: square"/>
   </g>
   <g id="text_8">
    <!-- y -->
    <g transform="translate(383.140587 166.903099) scale(0.1 -0.1)">
     <defs>
      <path id="DejaVuSans-79" d="M 2059 -325 
Q 1816 -950 1584 -1140 
Q 1353 -1331 966 -1331 
L 506 -1331 
L 506 -850 
L 844 -850 
Q 1081 -850 1212 -737 
Q 1344 -625 1503 -206 
L 1606 56 
L 191 3500 
L 800 3500 
L 1894 763 
L 2988 3500 
L 3597 3500 
L 2059 -325 
z
" transform="scale(0.015625)"/>
     </defs>
     <use xlink:href="#DejaVuSans-79"/>
    </g>
   </g>
  </g>
  <g id="axes_1">
   <g id="line2d_10">
    <path d="M 120.036875 285.350904 
L 112.018962 283.609155 
L 112.021046 283.719778 
L 112.035631 284.494035 
L 115.79983 285.312512 
L 116.090183 301.211306 
L 112.334895 300.380937 
L 112.336968 300.490992 
L 112.351478 301.261275 
L 120.348283 303.03116 
L 120.346342 302.920956 
L 120.332752 302.149423 
L 116.570054 301.317415 
L 116.280841 285.417102 
L 120.052486 286.237199 
L 120.050535 286.126425 
L 120.037363 285.378605 
L 120.037363 285.378605 
" clip-path="url(#p55e6785749)" style="fill: none; stroke: #808080; stroke-width: 1.5; stroke-linecap: square"/>
   </g>
   <g id="line2d_11">
    <path d="M 116.18539 293.324279 
L 337.228467 162.379186 
" clip-path="url(#p55e6785749)" style="fill: none; stroke: #000000; stroke-width: 2; stroke-linecap: square"/>
   </g>
   <g id="Path3DCollection_1">
    <defs>
     <path id="mdeb00e6189" d="M 0 3.535534 
C 0.937635 3.535534 1.836992 3.163008 2.5 2.5 
C 3.163008 1.836992 3.535534 0.937635 3.535534 0 
C 3.535534 -0.937635 3.163008 -1.836992 2.5 -2.5 
C 1.836992 -3.163008 0.937635 -3.535534 0 -3.535534 
C -0.937635 -3.535534 -1.836992 -3.163008 -2.5 -2.5 
C -3.163008 -1.836992 -3.535534 -0.937635 -3.535534 0 
C -3.535534 0.937635 -3.163008 1.836992 -2.5 2.5 
C -1.836992 3.163008 -0.937635 3.535534 0 3.535534 
z
" style="stroke: #000000"/>
    </defs>
    <g clip-path="url(#p55e6785749)">
     <use xlink:href="#mdeb00e6189" x="337.228467" y="162.379186" style="fill: #ffffff; stroke: #000000"/>
    </g>
   </g>
   <g id="Poly3DCollection_1">
    <path d="M 234.953514 222.966486 
L 253.719431 223.89122 
L 253.244413 227.478225 
z
" clip-path="url(#p55e6785749)" style="fill: #ff0000; stroke: #ff0000"/>
    <path d="M 234.953514 222.966486 
L 253.244413 227.478225 
L 251.964599 230.666873 
z
" clip-path="url(#p55e6785749)" style="fill: #ff0000; stroke: #ff0000"/>
    <path d="M 234.953514 222.966486 
L 253.262803 220.860513 
L 253.719431 223.89122 
z
" clip-path="url(#p55e6785749)" style="fill: #ff0000; stroke: #ff0000"/>
    <path d="M 234.953514 222.966486 
L 251.964599 230.666873 
L 250.219859 232.607044 
z
" clip-path="url(#p55e6785749)" style="fill: #ff0000; stroke: #ff0000"/>
    <path d="M 234.953514 222.966486 
L 251.994258 219.195948 
L 253.262803 220.860513 
z
" clip-path="url(#p55e6785749)" style="fill: #ff0000; stroke: #ff0000"/>
    <path d="M 234.953514 222.966486 
L 250.219859 232.607044 
L 248.475058 232.776673 
z
" clip-path="url(#p55e6785749)" style="fill: #ff0000; stroke: #ff0000"/>
    <path d="M 234.953514 222.966486 
L 250.250635 219.347799 
L 251.994258 219.195948 
z
" clip-path="url(#p55e6785749)" style="fill: #ff0000; stroke: #ff0000"/>
    <path d="M 234.953514 222.966486 
L 248.475058 232.776673 
L 247.19813 231.12381 
z
" clip-path="url(#p55e6785749)" style="fill: #ff0000; stroke: #ff0000"/>
    <path d="M 234.953514 222.966486 
L 248.49869 221.281894 
L 250.250635 219.347799 
z
" clip-path="url(#p55e6785749)" style="fill: #ff0000; stroke: #ff0000"/>
    <path d="M 234.953514 222.966486 
L 247.19813 231.12381 
L 246.734296 228.087028 
z
" clip-path="url(#p55e6785749)" style="fill: #ff0000; stroke: #ff0000"/>
    <path d="M 234.953514 222.966486 
L 247.210492 224.482245 
L 248.49869 221.281894 
z
" clip-path="url(#p55e6785749)" style="fill: #ff0000; stroke: #ff0000"/>
    <path d="M 234.953514 222.966486 
L 246.734296 228.087028 
L 247.210492 224.482245 
z
" clip-path="url(#p55e6785749)" style="fill: #ff0000; stroke: #ff0000"/>
   </g>
   <g id="Poly3DCollection_2">
    <defs>
     <path id="m32eae3160d" d="M 253.719431 -234.02878 
L 253.244413 -230.441775 
L 251.964599 -227.253127 
L 250.219859 -225.312956 
L 248.475058 -225.143327 
L 247.19813 -226.79619 
L 246.734296 -229.832972 
L 247.210492 -233.437755 
L 248.49869 -236.638106 
L 250.250635 -238.572201 
L 251.994258 -238.724052 
L 253.262803 -237.059487 
z
" style="stroke: #ff4444"/>
    </defs>
    <g clip-path="url(#p55e6785749)">
     <use xlink:href="#m32eae3160d" x="0" y="457.92" style="fill: #ff4444; stroke: #ff4444"/>
    </g>
   </g>
   <g id="Path3DCollection_2">
    <g clip-path="url(#p55e6785749)">
     <use xlink:href="#mdeb00e6189" x="116.18539" y="293.324279" style="fill: #ffffff; stroke: #000000"/>
    </g>
   </g>
   <g id="Poly3DCollection_3">
    <path d="M 120.036875 285.350904 
L 119.785863 285.296376 
L 119.534879 285.241854 
L 119.283925 285.187339 
L 119.033 285.13283 
L 118.782104 285.078327 
L 118.531238 285.023831 
L 118.2804 284.969341 
L 118.029592 284.914858 
L 117.778814 284.86038 
L 117.528064 284.80591 
L 117.277344 284.751445 
L 117.026653 284.696987 
L 116.775991 284.642535 
L 116.525359 284.58809 
L 116.274755 284.53365 
L 116.024181 284.479218 
L 115.773636 284.424791 
L 115.52312 284.370371 
L 115.272634 284.315957 
L 115.022176 284.26155 
L 114.771748 284.207149 
L 114.521349 284.152754 
L 114.270979 284.098366 
L 114.020638 284.043984 
L 113.770327 283.989608 
L 113.520044 283.935238 
L 113.269791 283.880875 
L 113.019567 283.826519 
L 112.769372 283.772168 
L 112.519206 283.717824 
L 112.26907 283.663486 
L 112.018962 283.609155 
L 112.019483 283.636811 
L 112.020004 283.664467 
L 112.020525 283.692123 
L 112.021046 283.719778 
L 112.021567 283.747433 
L 112.022088 283.775088 
L 112.022609 283.802743 
L 112.02313 283.830397 
L 112.023651 283.858052 
L 112.024171 283.885706 
L 112.024692 283.913359 
L 112.025213 283.941013 
L 112.025734 283.968666 
L 112.026255 283.996319 
L 112.026776 284.023972 
L 112.027297 284.051625 
L 112.027818 284.079277 
L 112.028339 284.106929 
L 112.02886 284.134581 
L 112.02938 284.162233 
L 112.029901 284.189884 
L 112.030422 284.217536 
L 112.030943 284.245186 
L 112.031464 284.272837 
L 112.031985 284.300488 
L 112.032506 284.328138 
L 112.033026 284.355788 
L 112.033547 284.383438 
L 112.034068 284.411087 
L 112.034589 284.438737 
L 112.03511 284.466386 
L 112.035631 284.494035 
L 112.153162 284.51959 
L 112.2707 284.545148 
L 112.388244 284.570706 
L 112.505795 284.596266 
L 112.623352 284.621827 
L 112.740916 284.64739 
L 112.858486 284.672954 
L 112.976062 284.69852 
L 113.093645 284.724087 
L 113.211235 284.749655 
L 113.32883 284.775225 
L 113.446433 284.800796 
L 113.564041 284.826368 
L 113.681656 284.851942 
L 113.799278 284.877517 
L 113.916906 284.903094 
L 114.03454 284.928672 
L 114.152181 284.954252 
L 114.269829 284.979833 
L 114.387482 285.005415 
L 114.505142 285.030999 
L 114.622809 285.056584 
L 114.740482 285.08217 
L 114.858162 285.107758 
L 114.975848 285.133348 
L 115.09354 285.158938 
L 115.211239 285.184531 
L 115.328944 285.210124 
L 115.446656 285.235719 
L 115.564374 285.261315 
L 115.682099 285.286913 
L 115.79983 285.312512 
L 115.808925 285.810525 
L 115.818018 286.308462 
L 115.82711 286.806323 
L 115.836201 287.304108 
L 115.845291 287.801817 
L 115.854379 288.29945 
L 115.863466 288.797007 
L 115.872551 289.294488 
L 115.881635 289.791893 
L 115.890717 290.289223 
L 115.899798 290.786476 
L 115.908878 291.283654 
L 115.917956 291.780756 
L 115.927033 292.277782 
L 115.936109 292.774732 
L 115.945183 293.271607 
L 115.954256 293.768405 
L 115.963328 294.265128 
L 115.972398 294.761775 
L 115.981466 295.258347 
L 115.990534 295.754843 
L 115.999599 296.251263 
L 116.008664 296.747607 
L 116.017727 297.243876 
L 116.026789 297.74007 
L 116.035849 298.236187 
L 116.044908 298.732229 
L 116.053966 299.228196 
L 116.063022 299.724087 
L 116.072077 300.219902 
L 116.081131 300.715642 
L 116.090183 301.211306 
L 115.972731 301.185335 
L 115.855285 301.159366 
L 115.737846 301.133397 
L 115.620413 301.107431 
L 115.502986 301.081465 
L 115.385566 301.055501 
L 115.268153 301.029539 
L 115.150745 301.003578 
L 115.033345 300.977618 
L 114.91595 300.95166 
L 114.798562 300.925703 
L 114.681181 300.899748 
L 114.563805 300.873794 
L 114.446437 300.847841 
L 114.329074 300.82189 
L 114.211718 300.79594 
L 114.094369 300.769992 
L 113.977026 300.744045 
L 113.859689 300.718099 
L 113.742359 300.692155 
L 113.625035 300.666213 
L 113.507717 300.640271 
L 113.390406 300.614332 
L 113.273102 300.588393 
L 113.155803 300.562456 
L 113.038511 300.536521 
L 112.921226 300.510586 
L 112.803947 300.484654 
L 112.686674 300.458722 
L 112.569408 300.432792 
L 112.452148 300.406864 
L 112.334895 300.380937 
L 112.335413 300.408451 
L 112.335931 300.435965 
L 112.33645 300.463479 
L 112.336968 300.490992 
L 112.337486 300.518505 
L 112.338004 300.546018 
L 112.338523 300.573531 
L 112.339041 300.601044 
L 112.339559 300.628556 
L 112.340077 300.656068 
L 112.340596 300.68358 
L 112.341114 300.711091 
L 112.341632 300.738603 
L 112.34215 300.766114 
L 112.342669 300.793625 
L 112.343187 300.821135 
L 112.343705 300.848646 
L 112.344223 300.876156 
L 112.344741 300.903666 
L 112.34526 300.931176 
L 112.345778 300.958685 
L 112.346296 300.986195 
L 112.346814 301.013704 
L 112.347332 301.041212 
L 112.347851 301.068721 
L 112.348369 301.096229 
L 112.348887 301.123737 
L 112.349405 301.151245 
L 112.349923 301.178753 
L 112.350441 301.20626 
L 112.35096 301.233768 
L 112.351478 301.261275 
L 112.600928 301.316484 
L 112.850407 301.3717 
L 113.099916 301.426922 
L 113.349453 301.482151 
L 113.599019 301.537386 
L 113.848614 301.592627 
L 114.098239 301.647875 
L 114.347892 301.703129 
L 114.597574 301.75839 
L 114.847285 301.813657 
L 115.097026 301.86893 
L 115.346795 301.92421 
L 115.596593 301.979497 
L 115.846421 302.03479 
L 116.096277 302.090089 
L 116.346162 302.145395 
L 116.596077 302.200707 
L 116.84602 302.256025 
L 117.095993 302.31135 
L 117.345995 302.366681 
L 117.596025 302.422019 
L 117.846085 302.477364 
L 118.096174 302.532714 
L 118.346292 302.588071 
L 118.596439 302.643435 
L 118.846615 302.698805 
L 119.09682 302.754181 
L 119.347054 302.809564 
L 119.597318 302.864953 
L 119.84761 302.920349 
L 120.097932 302.975751 
L 120.348283 303.03116 
L 120.347797 303.003609 
L 120.347312 302.976059 
L 120.346827 302.948507 
L 120.346342 302.920956 
L 120.345856 302.893404 
L 120.345371 302.865853 
L 120.344886 302.838301 
L 120.3444 302.810748 
L 120.343915 302.783196 
L 120.34343 302.755643 
L 120.342944 302.72809 
L 120.342459 302.700537 
L 120.341974 302.672983 
L 120.341489 302.64543 
L 120.341003 302.617876 
L 120.340518 302.590322 
L 120.340033 302.562767 
L 120.339547 302.535213 
L 120.339062 302.507658 
L 120.338577 302.480103 
L 120.338091 302.452547 
L 120.337606 302.424992 
L 120.337121 302.397436 
L 120.336635 302.36988 
L 120.33615 302.342324 
L 120.335665 302.314767 
L 120.335179 302.28721 
L 120.334694 302.259654 
L 120.334208 302.232096 
L 120.333723 302.204539 
L 120.333238 302.176981 
L 120.332752 302.149423 
L 120.215068 302.123401 
L 120.097391 302.09738 
L 119.97972 302.071361 
L 119.862055 302.045343 
L 119.744397 302.019326 
L 119.626745 301.993311 
L 119.509099 301.967297 
L 119.39146 301.941285 
L 119.273828 301.915274 
L 119.156202 301.889265 
L 119.038582 301.863256 
L 118.920969 301.83725 
L 118.803362 301.811245 
L 118.685762 301.785241 
L 118.568168 301.759238 
L 118.45058 301.733237 
L 118.332999 301.707238 
L 118.215425 301.68124 
L 118.097856 301.655243 
L 117.980295 301.629248 
L 117.862739 301.603254 
L 117.74519 301.577262 
L 117.627648 301.551271 
L 117.510111 301.525281 
L 117.392582 301.499293 
L 117.275059 301.473306 
L 117.157542 301.447321 
L 117.040031 301.421337 
L 116.922527 301.395354 
L 116.80503 301.369373 
L 116.687538 301.343394 
L 116.570054 301.317415 
L 116.561037 300.821704 
L 116.552019 300.325917 
L 116.543 299.830054 
L 116.533979 299.334116 
L 116.524957 298.838102 
L 116.515934 298.342013 
L 116.506909 297.845848 
L 116.497883 297.349607 
L 116.488855 296.853291 
L 116.479826 296.356899 
L 116.470796 295.860431 
L 116.461764 295.363888 
L 116.452731 294.867269 
L 116.443697 294.370575 
L 116.434661 293.873804 
L 116.425624 293.376958 
L 116.416585 292.880036 
L 116.407545 292.383038 
L 116.398504 291.885965 
L 116.389461 291.388815 
L 116.380417 290.89159 
L 116.371371 290.394289 
L 116.362324 289.896912 
L 116.353276 289.399459 
L 116.344227 288.90193 
L 116.335176 288.404326 
L 116.326123 287.906645 
L 116.317069 287.408888 
L 116.308014 286.911056 
L 116.298958 286.413147 
L 116.2899 285.915163 
L 116.280841 285.417102 
L 116.398604 285.442708 
L 116.516375 285.468316 
L 116.634151 285.493925 
L 116.751935 285.519535 
L 116.869724 285.545147 
L 116.98752 285.570761 
L 117.105323 285.596375 
L 117.223132 285.621991 
L 117.340948 285.647609 
L 117.458769 285.673228 
L 117.576598 285.698848 
L 117.694433 285.72447 
L 117.812274 285.750093 
L 117.930122 285.775717 
L 118.047976 285.801343 
L 118.165837 285.826971 
L 118.283704 285.852599 
L 118.401577 285.878229 
L 118.519457 285.903861 
L 118.637344 285.929494 
L 118.755237 285.955128 
L 118.873136 285.980764 
L 118.991042 286.006401 
L 119.108954 286.03204 
L 119.226873 286.05768 
L 119.344798 286.083321 
L 119.46273 286.108964 
L 119.580668 286.134608 
L 119.698613 286.160253 
L 119.816564 286.1859 
L 119.934522 286.211549 
L 120.052486 286.237199 
L 120.051998 286.209506 
L 120.05151 286.181812 
L 120.051023 286.154119 
L 120.050535 286.126425 
L 120.050047 286.098731 
L 120.049559 286.071037 
L 120.049071 286.043342 
L 120.048584 286.015648 
L 120.048096 285.987953 
L 120.047608 285.960257 
L 120.04712 285.932562 
L 120.046632 285.904866 
L 120.046145 285.877171 
L 120.045657 285.849474 
L 120.045169 285.821778 
L 120.044681 285.794081 
L 120.044193 285.766385 
L 120.043705 285.738688 
L 120.043218 285.71099 
L 120.04273 285.683293 
L 120.042242 285.655595 
L 120.041754 285.627897 
L 120.041266 285.600199 
L 120.040778 285.5725 
L 120.04029 285.544802 
L 120.039803 285.517103 
L 120.039315 285.489404 
L 120.038827 285.461704 
L 120.038339 285.434004 
L 120.037851 285.406305 
L 120.037363 285.378605 
z
" clip-path="url(#p55e6785749)" style="fill: #808080; fill-opacity: 0.3"/>
   </g>
   <g id="line2d_12">
    <path d="M 312.433889 238.266181 
L 250.235232 225.984097 
" clip-path="url(#p55e6785749)" style="fill: none; stroke: #ff0000; stroke-width: 2; stroke-linecap: square"/>
   </g>
   <g id="text_9">
    <!-- 111100 -->
    <g transform="translate(100.78108 285.955062) scale(0.08 -0.08)">
     <use xlink:href="#DejaVuSans-31"/>
     <use xlink:href="#DejaVuSans-31" transform="translate(63.623047 0)"/>
     <use xlink:href="#DejaVuSans-31" transform="translate(127.246094 0)"/>
     <use xlink:href="#DejaVuSans-31" transform="translate(190.869141 0)"/>
     <use xlink:href="#DejaVuSans-30" transform="translate(254.492188 0)"/>
     <use xlink:href="#DejaVuSans-30" transform="translate(318.115234 0)"/>
    </g>
   </g>
   <g id="text_10">
    <!-- 011000 -->
    <g transform="translate(322.058049 155.906821) scale(0.08 -0.08)">
     <use xlink:href="#DejaVuSans-30"/>
     <use xlink:href="#DejaVuSans-31" transform="translate(63.623047 0)"/>
     <use xlink:href="#DejaVuSans-31" transform="translate(127.246094 0)"/>
     <use xlink:href="#DejaVuSans-30" transform="translate(190.869141 0)"/>
     <use xlink:href="#DejaVuSans-30" transform="translate(254.492188 0)"/>
     <use xlink:href="#DejaVuSans-30" transform="translate(318.115234 0)"/>
    </g>
   </g>
  </g>
 </g>
 <defs>
  <clipPath id="p55e6785749">
   <rect x="7.2" y="7.2" width="443.52" height="443.52"/>
  </clipPath>
 </defs>
</svg>
