<?xml version="1.0" encoding="utf-8" standalone="no"?>
<!DOCTYPE svg PUBLIC "-//W3C//DTD SVG 1.1//EN"
  "http://www.w3.org/Graphics/SVG/1.1/DTD/svg11.dtd">
<svg xmlns:xlink="http://www.w3.org/1999/xlink" width="1000.620625pt" height="637.83625pt" viewBox="0 0 1000.620625 637.83625" xmlns="http://www.w3.org/2000/svg" version="1.1">
 <metadata>
  <rdf:RDF xmlns:dc="http://purl.org/dc/elements/1.1/" xmlns:cc="http://creativecommons.org/ns#" xmlns:rdf="http://www.w3.org/1999/02/22-rdf-syntax-ns#">
   <cc:Work>
    <dc:type rdf:resource="http://purl.org/dc/dcmitype/StillImage"/>
    <dc:date>2025-12-18T14:15:54.765106</dc:date>
    <dc:format>image/svg+xml</dc:format>
    <dc:creator>
     <cc:Agent>
      <dc:title>Matplotlib v3.10.7, https://matplotlib.org/</dc:title>
     </cc:Agent>
    </dc:creator>
   </cc:Work>
  </rdf:RDF>
 </metadata>
 <defs>
  <style type="text/css">*{stroke-linejoin: round; stroke-linecap: butt}</style>
 </defs>
 <g id="figure_1">
  <g id="patch_1">
   <path d="M 0 637.83625 
L 1000.620625 637.83625 
L 1000.620625 0 
L 0 0 
z
" style="fill: #ffffff"/>
  </g>
  <g id="axes_1">
   <g id="patch_2">
    <path d="M 59.690625 293.56 
L 494.525625 293.56 
L 494.525625 44.88 
L 59.690625 44.88 
z
" style="fill: #ffffff"/>
   </g>
   <g id="matplotlib.axis_1">
    <g id="xtick_1">
     <g id="line2d_1">
      <path d="M 79.455852 293.56 
L 79.455852 44.88 
" clip-path="url(#p32bea6139c)" style="fill: none; stroke: #b0b0b0; stroke-opacity: 0.3; stroke-width: 0.8; stroke-linecap: square"/>
     </g>
     <g id="line2d_2">
      <defs>
       <path id="mef182eb9a8" d="M 0 0 
L 0 3.5 
" style="stroke: #000000; stroke-width: 0.8"/>
      </defs>
      <g>
       <use xlink:href="#mef182eb9a8" x="79.455852" y="293.56" style="stroke: #000000; stroke-width: 0.8"/>
      </g>
     </g>
     <g id="text_1">
      <!-- 0 -->
      <g transform="translate(76.274602 308.158437) scale(0.1 -0.1)">
       <defs>
        <path id="DejaVuSans-30" d="M 2034 4250 
Q 1547 4250 1301 3770 
Q 1056 3291 1056 2328 
Q 1056 1369 1301 889 
Q 1547 409 2034 409 
Q 2525 409 2770 889 
Q 3016 1369 3016 2328 
Q 3016 3291 2770 3770 
Q 2525 4250 2034 4250 
z
M 2034 4750 
Q 2819 4750 3233 4129 
Q 3647 3509 3647 2328 
Q 3647 1150 3233 529 
Q 2819 -91 2034 -91 
Q 1250 -91 836 529 
Q 422 1150 422 2328 
Q 422 3509 836 4129 
Q 1250 4750 2034 4750 
z
" transform="scale(0.015625)"/>
       </defs>
       <use xlink:href="#DejaVuSans-30"/>
      </g>
     </g>
    </g>
    <g id="xtick_2">
     <g id="line2d_3">
      <path d="M 128.86892 293.56 
L 128.86892 44.88 
" clip-path="url(#p32bea6139c)" style="fill: none; stroke: #b0b0b0; stroke-opacity: 0.3; stroke-width: 0.8; stroke-linecap: square"/>
     </g>
     <g id="line2d_4">
      <g>
       <use xlink:href="#mef182eb9a8" x="128.86892" y="293.56" style="stroke: #000000; stroke-width: 0.8"/>
      </g>
     </g>
     <g id="text_2">
      <!-- 1 -->
      <g transform="translate(125.68767 308.158437) scale(0.1 -0.1)">
       <defs>
        <path id="DejaVuSans-31" d="M 794 531 
L 1825 531 
L 1825 4091 
L 703 3866 
L 703 4441 
L 1819 4666 
L 2450 4666 
L 2450 531 
L 3481 531 
L 3481 0 
L 794 0 
L 794 531 
z
" transform="scale(0.015625)"/>
       </defs>
       <use xlink:href="#DejaVuSans-31"/>
      </g>
     </g>
    </g>
    <g id="xtick_3">
     <g id="line2d_5">
      <path d="M 178.281989 293.56 
L 178.281989 44.88 
" clip-path="url(#p32bea6139c)" style="fill: none; stroke: #b0b0b0; stroke-opacity: 0.3; stroke-width: 0.8; stroke-linecap: square"/>
     </g>
     <g id="line2d_6">
      <g>
       <use xlink:href="#mef182eb9a8" x="178.281989" y="293.56" style="stroke: #000000; stroke-width: 0.8"/>
      </g>
     </g>
     <g id="text_3">
      <!-- 2 -->
      <g transform="translate(175.100739 308.158437) scale(0.1 -0.1)">
       <defs>
        <path id="DejaVuSans-32" d="M 1228 531 
L 3431 531 
L 3431 0 
L 469 0 
L 469 531 
Q 828 903 1448 1529 
Q 2069 2156 2228 2338 
Q 2531 2678 2651 2914 
Q 2772 3150 2772 3378 
Q 2772 3750 2511 3984 
Q 2250 4219 1831 4219 
Q 1534 4219 1204 4116 
Q 875 4013 500 3803 
L 500 4441 
Q 881 4594 1212 4672 
Q 1544 4750 1819 4750 
Q 2544 4750 2975 4387 
Q 3406 4025 3406 3419 
Q 3406 3131 3298 2873 
Q 3191 2616 2906 2266 
Q 2828 2175 2409 1742 
Q 1991 1309 1228 531 
z
" transform="scale(0.015625)"/>
       </defs>
       <use xlink:href="#DejaVuSans-32"/>
      </g>
     </g>
    </g>
    <g id="xtick_4">
     <g id="line2d_7">
      <path d="M 227.695057 293.56 
L 227.695057 44.88 
" clip-path="url(#p32bea6139c)" style="fill: none; stroke: #b0b0b0; stroke-opacity: 0.3; stroke-width: 0.8; stroke-linecap: square"/>
     </g>
     <g id="line2d_8">
      <g>
       <use xlink:href="#mef182eb9a8" x="227.695057" y="293.56" style="stroke: #000000; stroke-width: 0.8"/>
      </g>
     </g>
     <g id="text_4">
      <!-- 3 -->
      <g transform="translate(224.513807 308.158437) scale(0.1 -0.1)">
       <defs>
        <path id="DejaVuSans-33" d="M 2597 2516 
Q 3050 2419 3304 2112 
Q 3559 1806 3559 1356 
Q 3559 666 3084 287 
Q 2609 -91 1734 -91 
Q 1441 -91 1130 -33 
Q 819 25 488 141 
L 488 750 
Q 750 597 1062 519 
Q 1375 441 1716 441 
Q 2309 441 2620 675 
Q 2931 909 2931 1356 
Q 2931 1769 2642 2001 
Q 2353 2234 1838 2234 
L 1294 2234 
L 1294 2753 
L 1863 2753 
Q 2328 2753 2575 2939 
Q 2822 3125 2822 3475 
Q 2822 3834 2567 4026 
Q 2313 4219 1838 4219 
Q 1578 4219 1281 4162 
Q 984 4106 628 3988 
L 628 4550 
Q 988 4650 1302 4700 
Q 1616 4750 1894 4750 
Q 2613 4750 3031 4423 
Q 3450 4097 3450 3541 
Q 3450 3153 3228 2886 
Q 3006 2619 2597 2516 
z
" transform="scale(0.015625)"/>
       </defs>
       <use xlink:href="#DejaVuSans-33"/>
      </g>
     </g>
    </g>
    <g id="xtick_5">
     <g id="line2d_9">
      <path d="M 277.108125 293.56 
L 277.108125 44.88 
" clip-path="url(#p32bea6139c)" style="fill: none; stroke: #b0b0b0; stroke-opacity: 0.3; stroke-width: 0.8; stroke-linecap: square"/>
     </g>
     <g id="line2d_10">
      <g>
       <use xlink:href="#mef182eb9a8" x="277.108125" y="293.56" style="stroke: #000000; stroke-width: 0.8"/>
      </g>
     </g>
     <g id="text_5">
      <!-- 4 -->
      <g transform="translate(273.926875 308.158437) scale(0.1 -0.1)">
       <defs>
        <path id="DejaVuSans-34" d="M 2419 4116 
L 825 1625 
L 2419 1625 
L 2419 4116 
z
M 2253 4666 
L 3047 4666 
L 3047 1625 
L 3713 1625 
L 3713 1100 
L 3047 1100 
L 3047 0 
L 2419 0 
L 2419 1100 
L 313 1100 
L 313 1709 
L 2253 4666 
z
" transform="scale(0.015625)"/>
       </defs>
       <use xlink:href="#DejaVuSans-34"/>
      </g>
     </g>
    </g>
    <g id="xtick_6">
     <g id="line2d_11">
      <path d="M 326.521193 293.56 
L 326.521193 44.88 
" clip-path="url(#p32bea6139c)" style="fill: none; stroke: #b0b0b0; stroke-opacity: 0.3; stroke-width: 0.8; stroke-linecap: square"/>
     </g>
     <g id="line2d_12">
      <g>
       <use xlink:href="#mef182eb9a8" x="326.521193" y="293.56" style="stroke: #000000; stroke-width: 0.8"/>
      </g>
     </g>
     <g id="text_6">
      <!-- 5 -->
      <g transform="translate(323.339943 308.158437) scale(0.1 -0.1)">
       <defs>
        <path id="DejaVuSans-35" d="M 691 4666 
L 3169 4666 
L 3169 4134 
L 1269 4134 
L 1269 2991 
Q 1406 3038 1543 3061 
Q 1681 3084 1819 3084 
Q 2600 3084 3056 2656 
Q 3513 2228 3513 1497 
Q 3513 744 3044 326 
Q 2575 -91 1722 -91 
Q 1428 -91 1123 -41 
Q 819 9 494 109 
L 494 744 
Q 775 591 1075 516 
Q 1375 441 1709 441 
Q 2250 441 2565 725 
Q 2881 1009 2881 1497 
Q 2881 1984 2565 2268 
Q 2250 2553 1709 2553 
Q 1456 2553 1204 2497 
Q 953 2441 691 2322 
L 691 4666 
z
" transform="scale(0.015625)"/>
       </defs>
       <use xlink:href="#DejaVuSans-35"/>
      </g>
     </g>
    </g>
    <g id="xtick_7">
     <g id="line2d_13">
      <path d="M 375.934261 293.56 
L 375.934261 44.88 
" clip-path="url(#p32bea6139c)" style="fill: none; stroke: #b0b0b0; stroke-opacity: 0.3; stroke-width: 0.8; stroke-linecap: square"/>
     </g>
     <g id="line2d_14">
      <g>
       <use xlink:href="#mef182eb9a8" x="375.934261" y="293.56" style="stroke: #000000; stroke-width: 0.8"/>
      </g>
     </g>
     <g id="text_7">
      <!-- 6 -->
      <g transform="translate(372.753011 308.158437) scale(0.1 -0.1)">
       <defs>
        <path id="DejaVuSans-36" d="M 2113 2584 
Q 1688 2584 1439 2293 
Q 1191 2003 1191 1497 
Q 1191 994 1439 701 
Q 1688 409 2113 409 
Q 2538 409 2786 701 
Q 3034 994 3034 1497 
Q 3034 2003 2786 2293 
Q 2538 2584 2113 2584 
z
M 3366 4563 
L 3366 3988 
Q 3128 4100 2886 4159 
Q 2644 4219 2406 4219 
Q 1781 4219 1451 3797 
Q 1122 3375 1075 2522 
Q 1259 2794 1537 2939 
Q 1816 3084 2150 3084 
Q 2853 3084 3261 2657 
Q 3669 2231 3669 1497 
Q 3669 778 3244 343 
Q 2819 -91 2113 -91 
Q 1303 -91 875 529 
Q 447 1150 447 2328 
Q 447 3434 972 4092 
Q 1497 4750 2381 4750 
Q 2619 4750 2861 4703 
Q 3103 4656 3366 4563 
z
" transform="scale(0.015625)"/>
       </defs>
       <use xlink:href="#DejaVuSans-36"/>
      </g>
     </g>
    </g>
    <g id="xtick_8">
     <g id="line2d_15">
      <path d="M 425.34733 293.56 
L 425.34733 44.88 
" clip-path="url(#p32bea6139c)" style="fill: none; stroke: #b0b0b0; stroke-opacity: 0.3; stroke-width: 0.8; stroke-linecap: square"/>
     </g>
     <g id="line2d_16">
      <g>
       <use xlink:href="#mef182eb9a8" x="425.34733" y="293.56" style="stroke: #000000; stroke-width: 0.8"/>
      </g>
     </g>
     <g id="text_8">
      <!-- 7 -->
      <g transform="translate(422.16608 308.158437) scale(0.1 -0.1)">
       <defs>
        <path id="DejaVuSans-37" d="M 525 4666 
L 3525 4666 
L 3525 4397 
L 1831 0 
L 1172 0 
L 2766 4134 
L 525 4134 
L 525 4666 
z
" transform="scale(0.015625)"/>
       </defs>
       <use xlink:href="#DejaVuSans-37"/>
      </g>
     </g>
    </g>
    <g id="xtick_9">
     <g id="line2d_17">
      <path d="M 474.760398 293.56 
L 474.760398 44.88 
" clip-path="url(#p32bea6139c)" style="fill: none; stroke: #b0b0b0; stroke-opacity: 0.3; stroke-width: 0.8; stroke-linecap: square"/>
     </g>
     <g id="line2d_18">
      <g>
       <use xlink:href="#mef182eb9a8" x="474.760398" y="293.56" style="stroke: #000000; stroke-width: 0.8"/>
      </g>
     </g>
     <g id="text_9">
      <!-- 8 -->
      <g transform="translate(471.579148 308.158437) scale(0.1 -0.1)">
       <defs>
        <path id="DejaVuSans-38" d="M 2034 2216 
Q 1584 2216 1326 1975 
Q 1069 1734 1069 1313 
Q 1069 891 1326 650 
Q 1584 409 2034 409 
Q 2484 409 2743 651 
Q 3003 894 3003 1313 
Q 3003 1734 2745 1975 
Q 2488 2216 2034 2216 
z
M 1403 2484 
Q 997 2584 770 2862 
Q 544 3141 544 3541 
Q 544 4100 942 4425 
Q 1341 4750 2034 4750 
Q 2731 4750 3128 4425 
Q 3525 4100 3525 3541 
Q 3525 3141 3298 2862 
Q 3072 2584 2669 2484 
Q 3125 2378 3379 2068 
Q 3634 1759 3634 1313 
Q 3634 634 3220 271 
Q 2806 -91 2034 -91 
Q 1263 -91 848 271 
Q 434 634 434 1313 
Q 434 1759 690 2068 
Q 947 2378 1403 2484 
z
M 1172 3481 
Q 1172 3119 1398 2916 
Q 1625 2713 2034 2713 
Q 2441 2713 2670 2916 
Q 2900 3119 2900 3481 
Q 2900 3844 2670 4047 
Q 2441 4250 2034 4250 
Q 1625 4250 1398 4047 
Q 1172 3844 1172 3481 
z
" transform="scale(0.015625)"/>
       </defs>
       <use xlink:href="#DejaVuSans-38"/>
      </g>
     </g>
    </g>
    <g id="text_10">
     <!-- Position (m) -->
     <g transform="translate(247.283125 321.836562) scale(0.1 -0.1)">
      <defs>
       <path id="DejaVuSans-50" d="M 1259 4147 
L 1259 2394 
L 2053 2394 
Q 2494 2394 2734 2622 
Q 2975 2850 2975 3272 
Q 2975 3691 2734 3919 
Q 2494 4147 2053 4147 
L 1259 4147 
z
M 628 4666 
L 2053 4666 
Q 2838 4666 3239 4311 
Q 3641 3956 3641 3272 
Q 3641 2581 3239 2228 
Q 2838 1875 2053 1875 
L 1259 1875 
L 1259 0 
L 628 0 
L 628 4666 
z
" transform="scale(0.015625)"/>
       <path id="DejaVuSans-6f" d="M 1959 3097 
Q 1497 3097 1228 2736 
Q 959 2375 959 1747 
Q 959 1119 1226 758 
Q 1494 397 1959 397 
Q 2419 397 2687 759 
Q 2956 1122 2956 1747 
Q 2956 2369 2687 2733 
Q 2419 3097 1959 3097 
z
M 1959 3584 
Q 2709 3584 3137 3096 
Q 3566 2609 3566 1747 
Q 3566 888 3137 398 
Q 2709 -91 1959 -91 
Q 1206 -91 779 398 
Q 353 888 353 1747 
Q 353 2609 779 3096 
Q 1206 3584 1959 3584 
z
" transform="scale(0.015625)"/>
       <path id="DejaVuSans-73" d="M 2834 3397 
L 2834 2853 
Q 2591 2978 2328 3040 
Q 2066 3103 1784 3103 
Q 1356 3103 1142 2972 
Q 928 2841 928 2578 
Q 928 2378 1081 2264 
Q 1234 2150 1697 2047 
L 1894 2003 
Q 2506 1872 2764 1633 
Q 3022 1394 3022 966 
Q 3022 478 2636 193 
Q 2250 -91 1575 -91 
Q 1294 -91 989 -36 
Q 684 19 347 128 
L 347 722 
Q 666 556 975 473 
Q 1284 391 1588 391 
Q 1994 391 2212 530 
Q 2431 669 2431 922 
Q 2431 1156 2273 1281 
Q 2116 1406 1581 1522 
L 1381 1569 
Q 847 1681 609 1914 
Q 372 2147 372 2553 
Q 372 3047 722 3315 
Q 1072 3584 1716 3584 
Q 2034 3584 2315 3537 
Q 2597 3491 2834 3397 
z
" transform="scale(0.015625)"/>
       <path id="DejaVuSans-69" d="M 603 3500 
L 1178 3500 
L 1178 0 
L 603 0 
L 603 3500 
z
M 603 4863 
L 1178 4863 
L 1178 4134 
L 603 4134 
L 603 4863 
z
" transform="scale(0.015625)"/>
       <path id="DejaVuSans-74" d="M 1172 4494 
L 1172 3500 
L 2356 3500 
L 2356 3053 
L 1172 3053 
L 1172 1153 
Q 1172 725 1289 603 
Q 1406 481 1766 481 
L 2356 481 
L 2356 0 
L 1766 0 
Q 1100 0 847 248 
Q 594 497 594 1153 
L 594 3053 
L 172 3053 
L 172 3500 
L 594 3500 
L 594 4494 
L 1172 4494 
z
" transform="scale(0.015625)"/>
       <path id="DejaVuSans-6e" d="M 3513 2113 
L 3513 0 
L 2938 0 
L 2938 2094 
Q 2938 2591 2744 2837 
Q 2550 3084 2163 3084 
Q 1697 3084 1428 2787 
Q 1159 2491 1159 1978 
L 1159 0 
L 581 0 
L 581 3500 
L 1159 3500 
L 1159 2956 
Q 1366 3272 1645 3428 
Q 1925 3584 2291 3584 
Q 2894 3584 3203 3211 
Q 3513 2838 3513 2113 
z
" transform="scale(0.015625)"/>
       <path id="DejaVuSans-20" transform="scale(0.015625)"/>
       <path id="DejaVuSans-28" d="M 1984 4856 
Q 1566 4138 1362 3434 
Q 1159 2731 1159 2009 
Q 1159 1288 1364 580 
Q 1569 -128 1984 -844 
L 1484 -844 
Q 1016 -109 783 600 
Q 550 1309 550 2009 
Q 550 2706 781 3412 
Q 1013 4119 1484 4856 
L 1984 4856 
z
" transform="scale(0.015625)"/>
       <path id="DejaVuSans-6d" d="M 3328 2828 
Q 3544 3216 3844 3400 
Q 4144 3584 4550 3584 
Q 5097 3584 5394 3201 
Q 5691 2819 5691 2113 
L 5691 0 
L 5113 0 
L 5113 2094 
Q 5113 2597 4934 2840 
Q 4756 3084 4391 3084 
Q 3944 3084 3684 2787 
Q 3425 2491 3425 1978 
L 3425 0 
L 2847 0 
L 2847 2094 
Q 2847 2600 2669 2842 
Q 2491 3084 2119 3084 
Q 1678 3084 1418 2786 
Q 1159 2488 1159 1978 
L 1159 0 
L 581 0 
L 581 3500 
L 1159 3500 
L 1159 2956 
Q 1356 3278 1631 3431 
Q 1906 3584 2284 3584 
Q 2666 3584 2933 3390 
Q 3200 3197 3328 2828 
z
" transform="scale(0.015625)"/>
       <path id="DejaVuSans-29" d="M 513 4856 
L 1013 4856 
Q 1481 4119 1714 3412 
Q 1947 2706 1947 2009 
Q 1947 1309 1714 600 
Q 1481 -109 1013 -844 
L 513 -844 
Q 928 -128 1133 580 
Q 1338 1288 1338 2009 
Q 1338 2731 1133 3434 
Q 928 4138 513 4856 
z
" transform="scale(0.015625)"/>
      </defs>
      <use xlink:href="#DejaVuSans-50"/>
      <use xlink:href="#DejaVuSans-6f" transform="translate(56.677734 0)"/>
      <use xlink:href="#DejaVuSans-73" transform="translate(117.859375 0)"/>
      <use xlink:href="#DejaVuSans-69" transform="translate(169.958984 0)"/>
      <use xlink:href="#DejaVuSans-74" transform="translate(197.742188 0)"/>
      <use xlink:href="#DejaVuSans-69" transform="translate(236.951172 0)"/>
      <use xlink:href="#DejaVuSans-6f" transform="translate(264.734375 0)"/>
      <use xlink:href="#DejaVuSans-6e" transform="translate(325.916016 0)"/>
      <use xlink:href="#DejaVuSans-20" transform="translate(389.294922 0)"/>
      <use xlink:href="#DejaVuSans-28" transform="translate(421.082031 0)"/>
      <use xlink:href="#DejaVuSans-6d" transform="translate(460.095703 0)"/>
      <use xlink:href="#DejaVuSans-29" transform="translate(557.507812 0)"/>
     </g>
    </g>
   </g>
   <g id="matplotlib.axis_2">
    <g id="ytick_1">
     <g id="line2d_19">
      <path d="M 59.690625 282.256364 
L 494.525625 282.256364 
" clip-path="url(#p32bea6139c)" style="fill: none; stroke: #b0b0b0; stroke-opacity: 0.3; stroke-width: 0.8; stroke-linecap: square"/>
     </g>
     <g id="line2d_20">
      <defs>
       <path id="ma903e0453e" d="M 0 0 
L -3.5 0 
" style="stroke: #000000; stroke-width: 0.8"/>
      </defs>
      <g>
       <use xlink:href="#ma903e0453e" x="59.690625" y="282.256364" style="stroke: #000000; stroke-width: 0.8"/>
      </g>
     </g>
     <g id="text_11">
      <!-- 0 -->
      <g transform="translate(46.328125 286.055582) scale(0.1 -0.1)">
       <use xlink:href="#DejaVuSans-30"/>
      </g>
     </g>
    </g>
    <g id="ytick_2">
     <g id="line2d_21">
      <path d="M 59.690625 252.046995 
L 494.525625 252.046995 
" clip-path="url(#p32bea6139c)" style="fill: none; stroke: #b0b0b0; stroke-opacity: 0.3; stroke-width: 0.8; stroke-linecap: square"/>
     </g>
     <g id="line2d_22">
      <g>
       <use xlink:href="#ma903e0453e" x="59.690625" y="252.046995" style="stroke: #000000; stroke-width: 0.8"/>
      </g>
     </g>
     <g id="text_12">
      <!-- 2000 -->
      <g transform="translate(27.240625 255.846213) scale(0.1 -0.1)">
       <use xlink:href="#DejaVuSans-32"/>
       <use xlink:href="#DejaVuSans-30" transform="translate(63.623047 0)"/>
       <use xlink:href="#DejaVuSans-30" transform="translate(127.246094 0)"/>
       <use xlink:href="#DejaVuSans-30" transform="translate(190.869141 0)"/>
      </g>
     </g>
    </g>
    <g id="ytick_3">
     <g id="line2d_23">
      <path d="M 59.690625 221.837625 
L 494.525625 221.837625 
" clip-path="url(#p32bea6139c)" style="fill: none; stroke: #b0b0b0; stroke-opacity: 0.3; stroke-width: 0.8; stroke-linecap: square"/>
     </g>
     <g id="line2d_24">
      <g>
       <use xlink:href="#ma903e0453e" x="59.690625" y="221.837625" style="stroke: #000000; stroke-width: 0.8"/>
      </g>
     </g>
     <g id="text_13">
      <!-- 4000 -->
      <g transform="translate(27.240625 225.636844) scale(0.1 -0.1)">
       <use xlink:href="#DejaVuSans-34"/>
       <use xlink:href="#DejaVuSans-30" transform="translate(63.623047 0)"/>
       <use xlink:href="#DejaVuSans-30" transform="translate(127.246094 0)"/>
       <use xlink:href="#DejaVuSans-30" transform="translate(190.869141 0)"/>
      </g>
     </g>
    </g>
    <g id="ytick_4">
     <g id="line2d_25">
      <path d="M 59.690625 191.628256 
L 494.525625 191.628256 
" clip-path="url(#p32bea6139c)" style="fill: none; stroke: #b0b0b0; stroke-opacity: 0.3; stroke-width: 0.8; stroke-linecap: square"/>
     </g>
     <g id="line2d_26">
      <g>
       <use xlink:href="#ma903e0453e" x="59.690625" y="191.628256" style="stroke: #000000; stroke-width: 0.8"/>
      </g>
     </g>
     <g id="text_14">
      <!-- 6000 -->
      <g transform="translate(27.240625 195.427475) scale(0.1 -0.1)">
       <use xlink:href="#DejaVuSans-36"/>
       <use xlink:href="#DejaVuSans-30" transform="translate(63.623047 0)"/>
       <use xlink:href="#DejaVuSans-30" transform="translate(127.246094 0)"/>
       <use xlink:href="#DejaVuSans-30" transform="translate(190.869141 0)"/>
      </g>
     </g>
    </g>
    <g id="ytick_5">
     <g id="line2d_27">
      <path d="M 59.690625 161.418887 
L 494.525625 161.418887 
" clip-path="url(#p32bea6139c)" style="fill: none; stroke: #b0b0b0; stroke-opacity: 0.3; stroke-width: 0.8; stroke-linecap: square"/>
     </g>
     <g id="line2d_28">
      <g>
       <use xlink:href="#ma903e0453e" x="59.690625" y="161.418887" style="stroke: #000000; stroke-width: 0.8"/>
      </g>
     </g>
     <g id="text_15">
      <!-- 8000 -->
      <g transform="translate(27.240625 165.218106) scale(0.1 -0.1)">
       <use xlink:href="#DejaVuSans-38"/>
       <use xlink:href="#DejaVuSans-30" transform="translate(63.623047 0)"/>
       <use xlink:href="#DejaVuSans-30" transform="translate(127.246094 0)"/>
       <use xlink:href="#DejaVuSans-30" transform="translate(190.869141 0)"/>
      </g>
     </g>
    </g>
    <g id="ytick_6">
     <g id="line2d_29">
      <path d="M 59.690625 131.209518 
L 494.525625 131.209518 
" clip-path="url(#p32bea6139c)" style="fill: none; stroke: #b0b0b0; stroke-opacity: 0.3; stroke-width: 0.8; stroke-linecap: square"/>
     </g>
     <g id="line2d_30">
      <g>
       <use xlink:href="#ma903e0453e" x="59.690625" y="131.209518" style="stroke: #000000; stroke-width: 0.8"/>
      </g>
     </g>
     <g id="text_16">
      <!-- 10000 -->
      <g transform="translate(20.878125 135.008737) scale(0.1 -0.1)">
       <use xlink:href="#DejaVuSans-31"/>
       <use xlink:href="#DejaVuSans-30" transform="translate(63.623047 0)"/>
       <use xlink:href="#DejaVuSans-30" transform="translate(127.246094 0)"/>
       <use xlink:href="#DejaVuSans-30" transform="translate(190.869141 0)"/>
       <use xlink:href="#DejaVuSans-30" transform="translate(254.492188 0)"/>
      </g>
     </g>
    </g>
    <g id="ytick_7">
     <g id="line2d_31">
      <path d="M 59.690625 101.000149 
L 494.525625 101.000149 
" clip-path="url(#p32bea6139c)" style="fill: none; stroke: #b0b0b0; stroke-opacity: 0.3; stroke-width: 0.8; stroke-linecap: square"/>
     </g>
     <g id="line2d_32">
      <g>
       <use xlink:href="#ma903e0453e" x="59.690625" y="101.000149" style="stroke: #000000; stroke-width: 0.8"/>
      </g>
     </g>
     <g id="text_17">
      <!-- 12000 -->
      <g transform="translate(20.878125 104.799368) scale(0.1 -0.1)">
       <use xlink:href="#DejaVuSans-31"/>
       <use xlink:href="#DejaVuSans-32" transform="translate(63.623047 0)"/>
       <use xlink:href="#DejaVuSans-30" transform="translate(127.246094 0)"/>
       <use xlink:href="#DejaVuSans-30" transform="translate(190.869141 0)"/>
       <use xlink:href="#DejaVuSans-30" transform="translate(254.492188 0)"/>
      </g>
     </g>
    </g>
    <g id="ytick_8">
     <g id="line2d_33">
      <path d="M 59.690625 70.79078 
L 494.525625 70.79078 
" clip-path="url(#p32bea6139c)" style="fill: none; stroke: #b0b0b0; stroke-opacity: 0.3; stroke-width: 0.8; stroke-linecap: square"/>
     </g>
     <g id="line2d_34">
      <g>
       <use xlink:href="#ma903e0453e" x="59.690625" y="70.79078" style="stroke: #000000; stroke-width: 0.8"/>
      </g>
     </g>
     <g id="text_18">
      <!-- 14000 -->
      <g transform="translate(20.878125 74.589999) scale(0.1 -0.1)">
       <use xlink:href="#DejaVuSans-31"/>
       <use xlink:href="#DejaVuSans-34" transform="translate(63.623047 0)"/>
       <use xlink:href="#DejaVuSans-30" transform="translate(127.246094 0)"/>
       <use xlink:href="#DejaVuSans-30" transform="translate(190.869141 0)"/>
       <use xlink:href="#DejaVuSans-30" transform="translate(254.492188 0)"/>
      </g>
     </g>
    </g>
    <g id="text_19">
     <!-- N (N) -->
     <g transform="translate(14.798438 182.191875) rotate(-90) scale(0.1 -0.1)">
      <defs>
       <path id="DejaVuSans-4e" d="M 628 4666 
L 1478 4666 
L 3547 763 
L 3547 4666 
L 4159 4666 
L 4159 0 
L 3309 0 
L 1241 3903 
L 1241 0 
L 628 0 
L 628 4666 
z
" transform="scale(0.015625)"/>
      </defs>
      <use xlink:href="#DejaVuSans-4e"/>
      <use xlink:href="#DejaVuSans-20" transform="translate(74.804688 0)"/>
      <use xlink:href="#DejaVuSans-28" transform="translate(106.591797 0)"/>
      <use xlink:href="#DejaVuSans-4e" transform="translate(145.605469 0)"/>
      <use xlink:href="#DejaVuSans-29" transform="translate(220.410156 0)"/>
     </g>
    </g>
   </g>
   <g id="line2d_35">
    <path d="M 79.455852 282.256364 
L 83.448827 282.256364 
L 87.441803 282.256364 
L 91.434778 282.256364 
L 95.427753 282.256364 
L 99.420728 282.256364 
L 103.413704 282.256364 
L 107.406679 282.256364 
L 111.399654 282.256364 
L 115.392629 282.256364 
L 119.385604 282.256364 
L 123.37858 282.256364 
L 127.371555 282.256364 
L 131.36453 282.256364 
L 135.357505 282.256364 
L 139.35048 282.256364 
L 143.343456 282.256364 
L 147.336431 282.256364 
L 151.329406 282.256364 
L 155.322381 282.256364 
L 159.315356 282.256364 
L 163.308332 282.256364 
L 167.301307 282.256364 
L 171.294282 282.256364 
L 175.287257 282.256364 
L 179.280232 282.256364 
L 183.273208 282.256364 
L 187.266183 282.256364 
L 191.259158 282.256364 
L 195.252133 282.256364 
L 199.245108 282.256364 
L 203.238084 282.256364 
L 207.231059 282.256364 
L 211.224034 282.256364 
L 215.217009 282.256364 
L 219.209985 282.256364 
L 223.20296 282.256364 
L 227.195935 282.256364 
L 231.18891 282.256364 
L 235.181885 282.256364 
L 239.174861 282.256364 
L 243.167836 282.256364 
L 247.160811 282.256364 
L 251.153786 282.256364 
L 255.146761 282.256364 
L 259.139737 282.256364 
L 263.132712 282.256364 
L 267.125687 282.256364 
L 271.118662 282.256364 
L 275.111637 282.256364 
L 279.104613 282.256364 
L 283.097588 282.256364 
L 287.090563 282.256364 
L 291.083538 282.256364 
L 295.076513 282.256364 
L 299.069489 282.256364 
L 303.062464 282.256364 
L 307.055439 282.256364 
L 311.048414 282.256364 
L 315.041389 282.256364 
L 319.034365 282.256364 
L 323.02734 282.256364 
L 327.020315 282.256364 
L 331.01329 282.256364 
L 335.006265 282.256364 
L 338.999241 282.256364 
L 342.992216 282.256364 
L 346.985191 282.256364 
L 350.978166 282.256364 
L 354.971142 282.256364 
L 358.964117 282.256364 
L 362.957092 282.256364 
L 366.950067 282.256364 
L 370.943042 282.256364 
L 374.936018 282.256364 
L 378.928993 282.256364 
L 382.921968 282.256364 
L 386.914943 282.256364 
L 390.907918 282.256364 
L 394.900894 282.256364 
L 398.893869 282.256364 
L 402.886844 282.256364 
L 406.879819 282.256364 
L 410.872794 282.256364 
L 414.86577 282.256364 
L 418.858745 282.256364 
L 422.85172 282.256364 
L 426.844695 282.256364 
L 430.83767 282.256364 
L 434.830646 282.256364 
L 438.823621 282.256364 
L 442.816596 282.256364 
L 446.809571 282.256364 
L 450.802546 282.256364 
L 454.795522 282.256364 
L 458.788497 282.256364 
L 462.781472 282.256364 
L 466.774447 282.256364 
L 470.767423 282.256364 
L 474.760398 56.183636 
" clip-path="url(#p32bea6139c)" style="fill: none; stroke: #0000ff; stroke-width: 2; stroke-linecap: square"/>
   </g>
   <g id="line2d_36">
    <path d="M 59.690625 282.256364 
L 494.525625 282.256364 
" clip-path="url(#p32bea6139c)" style="fill: none; stroke-dasharray: 1.85,0.8; stroke-dashoffset: 0; stroke: #000000; stroke-opacity: 0.5; stroke-width: 0.5"/>
   </g>
   <g id="patch_3">
    <path d="M 59.690625 293.56 
L 59.690625 44.88 
" style="fill: none; stroke: #000000; stroke-width: 0.8; stroke-linejoin: miter; stroke-linecap: square"/>
   </g>
   <g id="patch_4">
    <path d="M 494.525625 293.56 
L 494.525625 44.88 
" style="fill: none; stroke: #000000; stroke-width: 0.8; stroke-linejoin: miter; stroke-linecap: square"/>
   </g>
   <g id="patch_5">
    <path d="M 59.690625 293.56 
L 494.525625 293.56 
" style="fill: none; stroke: #000000; stroke-width: 0.8; stroke-linejoin: miter; stroke-linecap: square"/>
   </g>
   <g id="patch_6">
    <path d="M 59.690625 44.88 
L 494.525625 44.88 
" style="fill: none; stroke: #000000; stroke-width: 0.8; stroke-linejoin: miter; stroke-linecap: square"/>
   </g>
   <g id="text_20">
    <!-- Axial Force -->
    <g transform="translate(244.307813 38.88) scale(0.12 -0.12)">
     <defs>
      <path id="DejaVuSans-41" d="M 2188 4044 
L 1331 1722 
L 3047 1722 
L 2188 4044 
z
M 1831 4666 
L 2547 4666 
L 4325 0 
L 3669 0 
L 3244 1197 
L 1141 1197 
L 716 0 
L 50 0 
L 1831 4666 
z
" transform="scale(0.015625)"/>
      <path id="DejaVuSans-78" d="M 3513 3500 
L 2247 1797 
L 3578 0 
L 2900 0 
L 1881 1375 
L 863 0 
L 184 0 
L 1544 1831 
L 300 3500 
L 978 3500 
L 1906 2253 
L 2834 3500 
L 3513 3500 
z
" transform="scale(0.015625)"/>
      <path id="DejaVuSans-61" d="M 2194 1759 
Q 1497 1759 1228 1600 
Q 959 1441 959 1056 
Q 959 750 1161 570 
Q 1363 391 1709 391 
Q 2188 391 2477 730 
Q 2766 1069 2766 1631 
L 2766 1759 
L 2194 1759 
z
M 3341 1997 
L 3341 0 
L 2766 0 
L 2766 531 
Q 2569 213 2275 61 
Q 1981 -91 1556 -91 
Q 1019 -91 701 211 
Q 384 513 384 1019 
Q 384 1609 779 1909 
Q 1175 2209 1959 2209 
L 2766 2209 
L 2766 2266 
Q 2766 2663 2505 2880 
Q 2244 3097 1772 3097 
Q 1472 3097 1187 3025 
Q 903 2953 641 2809 
L 641 3341 
Q 956 3463 1253 3523 
Q 1550 3584 1831 3584 
Q 2591 3584 2966 3190 
Q 3341 2797 3341 1997 
z
" transform="scale(0.015625)"/>
      <path id="DejaVuSans-6c" d="M 603 4863 
L 1178 4863 
L 1178 0 
L 603 0 
L 603 4863 
z
" transform="scale(0.015625)"/>
      <path id="DejaVuSans-46" d="M 628 4666 
L 3309 4666 
L 3309 4134 
L 1259 4134 
L 1259 2759 
L 3109 2759 
L 3109 2228 
L 1259 2228 
L 1259 0 
L 628 0 
L 628 4666 
z
" transform="scale(0.015625)"/>
      <path id="DejaVuSans-72" d="M 2631 2963 
Q 2534 3019 2420 3045 
Q 2306 3072 2169 3072 
Q 1681 3072 1420 2755 
Q 1159 2438 1159 1844 
L 1159 0 
L 581 0 
L 581 3500 
L 1159 3500 
L 1159 2956 
Q 1341 3275 1631 3429 
Q 1922 3584 2338 3584 
Q 2397 3584 2469 3576 
Q 2541 3569 2628 3553 
L 2631 2963 
z
" transform="scale(0.015625)"/>
      <path id="DejaVuSans-63" d="M 3122 3366 
L 3122 2828 
Q 2878 2963 2633 3030 
Q 2388 3097 2138 3097 
Q 1578 3097 1268 2742 
Q 959 2388 959 1747 
Q 959 1106 1268 751 
Q 1578 397 2138 397 
Q 2388 397 2633 464 
Q 2878 531 3122 666 
L 3122 134 
Q 2881 22 2623 -34 
Q 2366 -91 2075 -91 
Q 1284 -91 818 406 
Q 353 903 353 1747 
Q 353 2603 823 3093 
Q 1294 3584 2113 3584 
Q 2378 3584 2631 3529 
Q 2884 3475 3122 3366 
z
" transform="scale(0.015625)"/>
      <path id="DejaVuSans-65" d="M 3597 1894 
L 3597 1613 
L 953 1613 
Q 991 1019 1311 708 
Q 1631 397 2203 397 
Q 2534 397 2845 478 
Q 3156 559 3463 722 
L 3463 178 
Q 3153 47 2828 -22 
Q 2503 -91 2169 -91 
Q 1331 -91 842 396 
Q 353 884 353 1716 
Q 353 2575 817 3079 
Q 1281 3584 2069 3584 
Q 2775 3584 3186 3129 
Q 3597 2675 3597 1894 
z
M 3022 2063 
Q 3016 2534 2758 2815 
Q 2500 3097 2075 3097 
Q 1594 3097 1305 2825 
Q 1016 2553 972 2059 
L 3022 2063 
z
" transform="scale(0.015625)"/>
     </defs>
     <use xlink:href="#DejaVuSans-41"/>
     <use xlink:href="#DejaVuSans-78" transform="translate(68.408203 0)"/>
     <use xlink:href="#DejaVuSans-69" transform="translate(127.587891 0)"/>
     <use xlink:href="#DejaVuSans-61" transform="translate(155.371094 0)"/>
     <use xlink:href="#DejaVuSans-6c" transform="translate(216.650391 0)"/>
     <use xlink:href="#DejaVuSans-20" transform="translate(244.433594 0)"/>
     <use xlink:href="#DejaVuSans-46" transform="translate(276.220703 0)"/>
     <use xlink:href="#DejaVuSans-6f" transform="translate(330.115234 0)"/>
     <use xlink:href="#DejaVuSans-72" transform="translate(391.296875 0)"/>
     <use xlink:href="#DejaVuSans-63" transform="translate(430.160156 0)"/>
     <use xlink:href="#DejaVuSans-65" transform="translate(485.140625 0)"/>
    </g>
   </g>
  </g>
  <g id="axes_2">
   <g id="patch_7">
    <path d="M 558.585625 293.56 
L 993.420625 293.56 
L 993.420625 44.88 
L 558.585625 44.88 
z
" style="fill: #ffffff"/>
   </g>
   <g id="matplotlib.axis_3">
    <g id="xtick_10">
     <g id="line2d_37">
      <path d="M 578.350852 293.56 
L 578.350852 44.88 
" clip-path="url(#pe3bd681311)" style="fill: none; stroke: #b0b0b0; stroke-opacity: 0.3; stroke-width: 0.8; stroke-linecap: square"/>
     </g>
     <g id="line2d_38">
      <g>
       <use xlink:href="#mef182eb9a8" x="578.350852" y="293.56" style="stroke: #000000; stroke-width: 0.8"/>
      </g>
     </g>
     <g id="text_21">
      <!-- 0 -->
      <g transform="translate(575.169602 308.158437) scale(0.1 -0.1)">
       <use xlink:href="#DejaVuSans-30"/>
      </g>
     </g>
    </g>
    <g id="xtick_11">
     <g id="line2d_39">
      <path d="M 627.76392 293.56 
L 627.76392 44.88 
" clip-path="url(#pe3bd681311)" style="fill: none; stroke: #b0b0b0; stroke-opacity: 0.3; stroke-width: 0.8; stroke-linecap: square"/>
     </g>
     <g id="line2d_40">
      <g>
       <use xlink:href="#mef182eb9a8" x="627.76392" y="293.56" style="stroke: #000000; stroke-width: 0.8"/>
      </g>
     </g>
     <g id="text_22">
      <!-- 1 -->
      <g transform="translate(624.58267 308.158437) scale(0.1 -0.1)">
       <use xlink:href="#DejaVuSans-31"/>
      </g>
     </g>
    </g>
    <g id="xtick_12">
     <g id="line2d_41">
      <path d="M 677.176989 293.56 
L 677.176989 44.88 
" clip-path="url(#pe3bd681311)" style="fill: none; stroke: #b0b0b0; stroke-opacity: 0.3; stroke-width: 0.8; stroke-linecap: square"/>
     </g>
     <g id="line2d_42">
      <g>
       <use xlink:href="#mef182eb9a8" x="677.176989" y="293.56" style="stroke: #000000; stroke-width: 0.8"/>
      </g>
     </g>
     <g id="text_23">
      <!-- 2 -->
      <g transform="translate(673.995739 308.158437) scale(0.1 -0.1)">
       <use xlink:href="#DejaVuSans-32"/>
      </g>
     </g>
    </g>
    <g id="xtick_13">
     <g id="line2d_43">
      <path d="M 726.590057 293.56 
L 726.590057 44.88 
" clip-path="url(#pe3bd681311)" style="fill: none; stroke: #b0b0b0; stroke-opacity: 0.3; stroke-width: 0.8; stroke-linecap: square"/>
     </g>
     <g id="line2d_44">
      <g>
       <use xlink:href="#mef182eb9a8" x="726.590057" y="293.56" style="stroke: #000000; stroke-width: 0.8"/>
      </g>
     </g>
     <g id="text_24">
      <!-- 3 -->
      <g transform="translate(723.408807 308.158437) scale(0.1 -0.1)">
       <use xlink:href="#DejaVuSans-33"/>
      </g>
     </g>
    </g>
    <g id="xtick_14">
     <g id="line2d_45">
      <path d="M 776.003125 293.56 
L 776.003125 44.88 
" clip-path="url(#pe3bd681311)" style="fill: none; stroke: #b0b0b0; stroke-opacity: 0.3; stroke-width: 0.8; stroke-linecap: square"/>
     </g>
     <g id="line2d_46">
      <g>
       <use xlink:href="#mef182eb9a8" x="776.003125" y="293.56" style="stroke: #000000; stroke-width: 0.8"/>
      </g>
     </g>
     <g id="text_25">
      <!-- 4 -->
      <g transform="translate(772.821875 308.158437) scale(0.1 -0.1)">
       <use xlink:href="#DejaVuSans-34"/>
      </g>
     </g>
    </g>
    <g id="xtick_15">
     <g id="line2d_47">
      <path d="M 825.416193 293.56 
L 825.416193 44.88 
" clip-path="url(#pe3bd681311)" style="fill: none; stroke: #b0b0b0; stroke-opacity: 0.3; stroke-width: 0.8; stroke-linecap: square"/>
     </g>
     <g id="line2d_48">
      <g>
       <use xlink:href="#mef182eb9a8" x="825.416193" y="293.56" style="stroke: #000000; stroke-width: 0.8"/>
      </g>
     </g>
     <g id="text_26">
      <!-- 5 -->
      <g transform="translate(822.234943 308.158437) scale(0.1 -0.1)">
       <use xlink:href="#DejaVuSans-35"/>
      </g>
     </g>
    </g>
    <g id="xtick_16">
     <g id="line2d_49">
      <path d="M 874.829261 293.56 
L 874.829261 44.88 
" clip-path="url(#pe3bd681311)" style="fill: none; stroke: #b0b0b0; stroke-opacity: 0.3; stroke-width: 0.8; stroke-linecap: square"/>
     </g>
     <g id="line2d_50">
      <g>
       <use xlink:href="#mef182eb9a8" x="874.829261" y="293.56" style="stroke: #000000; stroke-width: 0.8"/>
      </g>
     </g>
     <g id="text_27">
      <!-- 6 -->
      <g transform="translate(871.648011 308.158437) scale(0.1 -0.1)">
       <use xlink:href="#DejaVuSans-36"/>
      </g>
     </g>
    </g>
    <g id="xtick_17">
     <g id="line2d_51">
      <path d="M 924.24233 293.56 
L 924.24233 44.88 
" clip-path="url(#pe3bd681311)" style="fill: none; stroke: #b0b0b0; stroke-opacity: 0.3; stroke-width: 0.8; stroke-linecap: square"/>
     </g>
     <g id="line2d_52">
      <g>
       <use xlink:href="#mef182eb9a8" x="924.24233" y="293.56" style="stroke: #000000; stroke-width: 0.8"/>
      </g>
     </g>
     <g id="text_28">
      <!-- 7 -->
      <g transform="translate(921.06108 308.158437) scale(0.1 -0.1)">
       <use xlink:href="#DejaVuSans-37"/>
      </g>
     </g>
    </g>
    <g id="xtick_18">
     <g id="line2d_53">
      <path d="M 973.655398 293.56 
L 973.655398 44.88 
" clip-path="url(#pe3bd681311)" style="fill: none; stroke: #b0b0b0; stroke-opacity: 0.3; stroke-width: 0.8; stroke-linecap: square"/>
     </g>
     <g id="line2d_54">
      <g>
       <use xlink:href="#mef182eb9a8" x="973.655398" y="293.56" style="stroke: #000000; stroke-width: 0.8"/>
      </g>
     </g>
     <g id="text_29">
      <!-- 8 -->
      <g transform="translate(970.474148 308.158437) scale(0.1 -0.1)">
       <use xlink:href="#DejaVuSans-38"/>
      </g>
     </g>
    </g>
    <g id="text_30">
     <!-- Position (m) -->
     <g transform="translate(746.178125 321.836562) scale(0.1 -0.1)">
      <use xlink:href="#DejaVuSans-50"/>
      <use xlink:href="#DejaVuSans-6f" transform="translate(56.677734 0)"/>
      <use xlink:href="#DejaVuSans-73" transform="translate(117.859375 0)"/>
      <use xlink:href="#DejaVuSans-69" transform="translate(169.958984 0)"/>
      <use xlink:href="#DejaVuSans-74" transform="translate(197.742188 0)"/>
      <use xlink:href="#DejaVuSans-69" transform="translate(236.951172 0)"/>
      <use xlink:href="#DejaVuSans-6f" transform="translate(264.734375 0)"/>
      <use xlink:href="#DejaVuSans-6e" transform="translate(325.916016 0)"/>
      <use xlink:href="#DejaVuSans-20" transform="translate(389.294922 0)"/>
      <use xlink:href="#DejaVuSans-28" transform="translate(421.082031 0)"/>
      <use xlink:href="#DejaVuSans-6d" transform="translate(460.095703 0)"/>
      <use xlink:href="#DejaVuSans-29" transform="translate(557.507812 0)"/>
     </g>
    </g>
   </g>
   <g id="matplotlib.axis_4">
    <g id="ytick_9">
     <g id="line2d_55">
      <path d="M 558.585625 279.957417 
L 993.420625 279.957417 
" clip-path="url(#pe3bd681311)" style="fill: none; stroke: #b0b0b0; stroke-opacity: 0.3; stroke-width: 0.8; stroke-linecap: square"/>
     </g>
     <g id="line2d_56">
      <g>
       <use xlink:href="#ma903e0453e" x="558.585625" y="279.957417" style="stroke: #000000; stroke-width: 0.8"/>
      </g>
     </g>
     <g id="text_31">
      <!-- −250000 -->
      <g transform="translate(505.030938 283.756635) scale(0.1 -0.1)">
       <defs>
        <path id="DejaVuSans-2212" d="M 678 2272 
L 4684 2272 
L 4684 1741 
L 678 1741 
L 678 2272 
z
" transform="scale(0.015625)"/>
       </defs>
       <use xlink:href="#DejaVuSans-2212"/>
       <use xlink:href="#DejaVuSans-32" transform="translate(83.789062 0)"/>
       <use xlink:href="#DejaVuSans-35" transform="translate(147.412109 0)"/>
       <use xlink:href="#DejaVuSans-30" transform="translate(211.035156 0)"/>
       <use xlink:href="#DejaVuSans-30" transform="translate(274.658203 0)"/>
       <use xlink:href="#DejaVuSans-30" transform="translate(338.28125 0)"/>
       <use xlink:href="#DejaVuSans-30" transform="translate(401.904297 0)"/>
      </g>
     </g>
    </g>
    <g id="ytick_10">
     <g id="line2d_57">
      <path d="M 558.585625 235.202661 
L 993.420625 235.202661 
" clip-path="url(#pe3bd681311)" style="fill: none; stroke: #b0b0b0; stroke-opacity: 0.3; stroke-width: 0.8; stroke-linecap: square"/>
     </g>
     <g id="line2d_58">
      <g>
       <use xlink:href="#ma903e0453e" x="558.585625" y="235.202661" style="stroke: #000000; stroke-width: 0.8"/>
      </g>
     </g>
     <g id="text_32">
      <!-- −200000 -->
      <g transform="translate(505.030938 239.001879) scale(0.1 -0.1)">
       <use xlink:href="#DejaVuSans-2212"/>
       <use xlink:href="#DejaVuSans-32" transform="translate(83.789062 0)"/>
       <use xlink:href="#DejaVuSans-30" transform="translate(147.412109 0)"/>
       <use xlink:href="#DejaVuSans-30" transform="translate(211.035156 0)"/>
       <use xlink:href="#DejaVuSans-30" transform="translate(274.658203 0)"/>
       <use xlink:href="#DejaVuSans-30" transform="translate(338.28125 0)"/>
       <use xlink:href="#DejaVuSans-30" transform="translate(401.904297 0)"/>
      </g>
     </g>
    </g>
    <g id="ytick_11">
     <g id="line2d_59">
      <path d="M 558.585625 190.447904 
L 993.420625 190.447904 
" clip-path="url(#pe3bd681311)" style="fill: none; stroke: #b0b0b0; stroke-opacity: 0.3; stroke-width: 0.8; stroke-linecap: square"/>
     </g>
     <g id="line2d_60">
      <g>
       <use xlink:href="#ma903e0453e" x="558.585625" y="190.447904" style="stroke: #000000; stroke-width: 0.8"/>
      </g>
     </g>
     <g id="text_33">
      <!-- −150000 -->
      <g transform="translate(505.030938 194.247123) scale(0.1 -0.1)">
       <use xlink:href="#DejaVuSans-2212"/>
       <use xlink:href="#DejaVuSans-31" transform="translate(83.789062 0)"/>
       <use xlink:href="#DejaVuSans-35" transform="translate(147.412109 0)"/>
       <use xlink:href="#DejaVuSans-30" transform="translate(211.035156 0)"/>
       <use xlink:href="#DejaVuSans-30" transform="translate(274.658203 0)"/>
       <use xlink:href="#DejaVuSans-30" transform="translate(338.28125 0)"/>
       <use xlink:href="#DejaVuSans-30" transform="translate(401.904297 0)"/>
      </g>
     </g>
    </g>
    <g id="ytick_12">
     <g id="line2d_61">
      <path d="M 558.585625 145.693148 
L 993.420625 145.693148 
" clip-path="url(#pe3bd681311)" style="fill: none; stroke: #b0b0b0; stroke-opacity: 0.3; stroke-width: 0.8; stroke-linecap: square"/>
     </g>
     <g id="line2d_62">
      <g>
       <use xlink:href="#ma903e0453e" x="558.585625" y="145.693148" style="stroke: #000000; stroke-width: 0.8"/>
      </g>
     </g>
     <g id="text_34">
      <!-- −100000 -->
      <g transform="translate(505.030938 149.492367) scale(0.1 -0.1)">
       <use xlink:href="#DejaVuSans-2212"/>
       <use xlink:href="#DejaVuSans-31" transform="translate(83.789062 0)"/>
       <use xlink:href="#DejaVuSans-30" transform="translate(147.412109 0)"/>
       <use xlink:href="#DejaVuSans-30" transform="translate(211.035156 0)"/>
       <use xlink:href="#DejaVuSans-30" transform="translate(274.658203 0)"/>
       <use xlink:href="#DejaVuSans-30" transform="translate(338.28125 0)"/>
       <use xlink:href="#DejaVuSans-30" transform="translate(401.904297 0)"/>
      </g>
     </g>
    </g>
    <g id="ytick_13">
     <g id="line2d_63">
      <path d="M 558.585625 100.938392 
L 993.420625 100.938392 
" clip-path="url(#pe3bd681311)" style="fill: none; stroke: #b0b0b0; stroke-opacity: 0.3; stroke-width: 0.8; stroke-linecap: square"/>
     </g>
     <g id="line2d_64">
      <g>
       <use xlink:href="#ma903e0453e" x="558.585625" y="100.938392" style="stroke: #000000; stroke-width: 0.8"/>
      </g>
     </g>
     <g id="text_35">
      <!-- −50000 -->
      <g transform="translate(511.393438 104.737611) scale(0.1 -0.1)">
       <use xlink:href="#DejaVuSans-2212"/>
       <use xlink:href="#DejaVuSans-35" transform="translate(83.789062 0)"/>
       <use xlink:href="#DejaVuSans-30" transform="translate(147.412109 0)"/>
       <use xlink:href="#DejaVuSans-30" transform="translate(211.035156 0)"/>
       <use xlink:href="#DejaVuSans-30" transform="translate(274.658203 0)"/>
       <use xlink:href="#DejaVuSans-30" transform="translate(338.28125 0)"/>
      </g>
     </g>
    </g>
    <g id="ytick_14">
     <g id="line2d_65">
      <path d="M 558.585625 56.183636 
L 993.420625 56.183636 
" clip-path="url(#pe3bd681311)" style="fill: none; stroke: #b0b0b0; stroke-opacity: 0.3; stroke-width: 0.8; stroke-linecap: square"/>
     </g>
     <g id="line2d_66">
      <g>
       <use xlink:href="#ma903e0453e" x="558.585625" y="56.183636" style="stroke: #000000; stroke-width: 0.8"/>
      </g>
     </g>
     <g id="text_36">
      <!-- 0 -->
      <g transform="translate(545.223125 59.982855) scale(0.1 -0.1)">
       <use xlink:href="#DejaVuSans-30"/>
      </g>
     </g>
    </g>
   </g>
   <g id="line2d_67">
    <path d="M 578.350852 56.183636 
L 582.343827 56.183636 
L 586.336803 56.183636 
L 590.329778 56.183636 
L 594.322753 56.183636 
L 598.315728 56.183636 
L 602.308704 56.183636 
L 606.301679 56.183636 
L 610.294654 56.183636 
L 614.287629 56.183636 
L 618.280604 56.183636 
L 622.27358 56.183636 
L 626.266555 56.183636 
L 630.25953 56.183636 
L 634.252505 56.183636 
L 638.24548 56.183636 
L 642.238456 56.183636 
L 646.231431 56.183636 
L 650.224406 56.183636 
L 654.217381 56.183636 
L 658.210356 56.183636 
L 662.203332 56.183636 
L 666.196307 56.183636 
L 670.189282 56.183636 
L 674.182257 56.183636 
L 678.175232 56.183636 
L 682.168208 56.183636 
L 686.161183 56.183636 
L 690.154158 56.183636 
L 694.147133 56.183636 
L 698.140108 56.183636 
L 702.133084 56.183636 
L 706.126059 56.183636 
L 710.119034 56.183636 
L 714.112009 56.183636 
L 718.104985 56.183636 
L 722.09796 56.183636 
L 726.090935 56.183636 
L 730.08391 56.183636 
L 734.076885 56.183636 
L 738.069861 56.183636 
L 742.062836 56.183636 
L 746.055811 56.183636 
L 750.048786 56.183636 
L 754.041761 56.183636 
L 758.034737 56.183636 
L 762.027712 56.183636 
L 766.020687 56.183636 
L 770.013662 56.183636 
L 774.006637 56.183636 
L 777.999613 56.183636 
L 781.992588 56.183636 
L 785.985563 56.183636 
L 789.978538 56.183636 
L 793.971513 56.183636 
L 797.964489 56.183636 
L 801.957464 56.183636 
L 805.950439 56.183636 
L 809.943414 56.183636 
L 813.936389 56.183636 
L 817.929365 56.183636 
L 821.92234 56.183636 
L 825.915315 56.183636 
L 829.90829 56.183636 
L 833.901265 56.183636 
L 837.894241 56.183636 
L 841.887216 56.183636 
L 845.880191 56.183636 
L 849.873166 56.183636 
L 853.866142 56.183636 
L 857.859117 56.183636 
L 861.852092 56.183636 
L 865.845067 56.183636 
L 869.838042 56.183636 
L 873.831018 56.183636 
L 877.823993 56.183636 
L 881.816968 56.183636 
L 885.809943 56.183636 
L 889.802918 56.183636 
L 893.795894 56.183636 
L 897.788869 56.183636 
L 901.781844 56.183636 
L 905.774819 56.183636 
L 909.767794 56.183636 
L 913.76077 56.183636 
L 917.753745 56.183636 
L 921.74672 56.183636 
L 925.739695 56.183636 
L 929.73267 56.183636 
L 933.725646 56.183636 
L 937.718621 56.183636 
L 941.711596 56.183636 
L 945.704571 56.183636 
L 949.697546 56.183636 
L 953.690522 56.183636 
L 957.683497 56.183636 
L 961.676472 56.183636 
L 965.669447 56.183636 
L 969.662423 56.183636 
L 973.655398 56.183636 
" clip-path="url(#pe3bd681311)" style="fill: none; stroke: #ff0000; stroke-width: 2; stroke-linecap: square"/>
   </g>
   <g id="line2d_68">
    <path d="M 558.585625 56.183636 
L 993.420625 56.183636 
" clip-path="url(#pe3bd681311)" style="fill: none; stroke-dasharray: 1.85,0.8; stroke-dashoffset: 0; stroke: #000000; stroke-opacity: 0.5; stroke-width: 0.5"/>
   </g>
   <g id="line2d_69">
    <path d="M 578.350852 65.134588 
L 582.343827 65.134588 
L 586.336803 65.134588 
L 590.329778 65.134588 
L 594.322753 65.134588 
L 598.315728 65.134588 
L 602.308704 65.134588 
L 606.301679 65.134588 
L 610.294654 65.134588 
L 614.287629 65.134588 
L 618.280604 83.03649 
L 622.27358 83.03649 
L 626.266555 83.03649 
L 630.25953 83.03649 
L 634.252505 83.03649 
L 638.24548 83.03649 
L 642.238456 83.03649 
L 646.231431 83.03649 
L 650.224406 83.03649 
L 654.217381 83.03649 
L 658.210356 100.938392 
L 662.203332 100.938392 
L 666.196307 100.938392 
L 670.189282 100.938392 
L 674.182257 100.938392 
L 678.175232 100.938392 
L 682.168208 100.938392 
L 686.161183 100.938392 
L 690.154158 100.938392 
L 694.147133 100.938392 
L 698.140108 118.840295 
L 702.133084 118.840295 
L 706.126059 118.840295 
L 710.119034 118.840295 
L 714.112009 118.840295 
L 718.104985 118.840295 
L 722.09796 118.840295 
L 726.090935 118.840295 
L 730.08391 118.840295 
L 734.076885 118.840295 
L 738.069861 136.742197 
L 742.062836 136.742197 
L 746.055811 136.742197 
L 750.048786 136.742197 
L 754.041761 136.742197 
L 758.034737 136.742197 
L 762.027712 136.742197 
L 766.020687 136.742197 
L 770.013662 136.742197 
L 774.006637 136.742197 
L 777.999613 199.398856 
L 781.992588 199.398856 
L 785.985563 199.398856 
L 789.978538 199.398856 
L 793.971513 199.398856 
L 797.964489 199.398856 
L 801.957464 199.398856 
L 805.950439 199.398856 
L 809.943414 199.398856 
L 813.936389 199.398856 
L 817.929365 217.300758 
L 821.92234 217.300758 
L 825.915315 217.300758 
L 829.90829 217.300758 
L 833.901265 217.300758 
L 837.894241 217.300758 
L 841.887216 217.300758 
L 845.880191 217.300758 
L 849.873166 217.300758 
L 853.866142 217.300758 
L 857.859117 235.202661 
L 861.852092 235.202661 
L 865.845067 235.202661 
L 869.838042 235.202661 
L 873.831018 235.202661 
L 877.823993 235.202661 
L 881.816968 235.202661 
L 885.809943 235.202661 
L 889.802918 235.202661 
L 893.795894 235.202661 
L 897.788869 253.104563 
L 901.781844 253.104563 
L 905.774819 253.104563 
L 909.767794 253.104563 
L 913.76077 253.104563 
L 917.753745 253.104563 
L 921.74672 253.104563 
L 925.739695 253.104563 
L 929.73267 253.104563 
L 933.725646 253.104563 
L 937.718621 271.006465 
L 941.711596 271.006465 
L 945.704571 271.006465 
L 949.697546 271.006465 
L 953.690522 271.006465 
L 957.683497 271.006465 
L 961.676472 271.006465 
L 965.669447 271.006465 
L 969.662423 271.006465 
L 973.655398 282.256364 
" clip-path="url(#pe3bd681311)" style="fill: none; stroke: #008000; stroke-width: 2; stroke-linecap: square"/>
   </g>
   <g id="line2d_70">
    <path d="M 558.585625 56.183636 
L 993.420625 56.183636 
" clip-path="url(#pe3bd681311)" style="fill: none; stroke-dasharray: 1.85,0.8; stroke-dashoffset: 0; stroke: #000000; stroke-opacity: 0.5; stroke-width: 0.5"/>
   </g>
   <g id="patch_8">
    <path d="M 558.585625 293.56 
L 558.585625 44.88 
" style="fill: none; stroke: #000000; stroke-width: 0.8; stroke-linejoin: miter; stroke-linecap: square"/>
   </g>
   <g id="patch_9">
    <path d="M 993.420625 293.56 
L 993.420625 44.88 
" style="fill: none; stroke: #000000; stroke-width: 0.8; stroke-linejoin: miter; stroke-linecap: square"/>
   </g>
   <g id="patch_10">
    <path d="M 558.585625 293.56 
L 993.420625 293.56 
" style="fill: none; stroke: #000000; stroke-width: 0.8; stroke-linejoin: miter; stroke-linecap: square"/>
   </g>
   <g id="patch_11">
    <path d="M 558.585625 44.88 
L 993.420625 44.88 
" style="fill: none; stroke: #000000; stroke-width: 0.8; stroke-linejoin: miter; stroke-linecap: square"/>
   </g>
   <g id="legend_1">
    <g id="patch_12">
     <path d="M 565.585625 288.56 
L 610.0825 288.56 
Q 612.0825 288.56 612.0825 286.56 
L 612.0825 258.20375 
Q 612.0825 256.20375 610.0825 256.20375 
L 565.585625 256.20375 
Q 563.585625 256.20375 563.585625 258.20375 
L 563.585625 286.56 
Q 563.585625 288.56 565.585625 288.56 
z
" style="fill: #ffffff; opacity: 0.8; stroke: #cccccc; stroke-linejoin: miter"/>
    </g>
    <g id="line2d_71">
     <path d="M 567.585625 264.302187 
L 577.585625 264.302187 
L 587.585625 264.302187 
" style="fill: none; stroke: #ff0000; stroke-width: 2; stroke-linecap: square"/>
    </g>
    <g id="text_37">
     <!-- Vy -->
     <g transform="translate(595.585625 267.802187) scale(0.1 -0.1)">
      <defs>
       <path id="DejaVuSans-56" d="M 1831 0 
L 50 4666 
L 709 4666 
L 2188 738 
L 3669 4666 
L 4325 4666 
L 2547 0 
L 1831 0 
z
" transform="scale(0.015625)"/>
       <path id="DejaVuSans-79" d="M 2059 -325 
Q 1816 -950 1584 -1140 
Q 1353 -1331 966 -1331 
L 506 -1331 
L 506 -850 
L 844 -850 
Q 1081 -850 1212 -737 
Q 1344 -625 1503 -206 
L 1606 56 
L 191 3500 
L 800 3500 
L 1894 763 
L 2988 3500 
L 3597 3500 
L 2059 -325 
z
" transform="scale(0.015625)"/>
      </defs>
      <use xlink:href="#DejaVuSans-56"/>
      <use xlink:href="#DejaVuSans-79" transform="translate(65.783203 0)"/>
     </g>
    </g>
    <g id="line2d_72">
     <path d="M 567.585625 278.980312 
L 577.585625 278.980312 
L 587.585625 278.980312 
" style="fill: none; stroke: #008000; stroke-width: 2; stroke-linecap: square"/>
    </g>
    <g id="text_38">
     <!-- Vz -->
     <g transform="translate(595.585625 282.480312) scale(0.1 -0.1)">
      <defs>
       <path id="DejaVuSans-7a" d="M 353 3500 
L 3084 3500 
L 3084 2975 
L 922 459 
L 3084 459 
L 3084 0 
L 275 0 
L 275 525 
L 2438 3041 
L 353 3041 
L 353 3500 
z
" transform="scale(0.015625)"/>
      </defs>
      <use xlink:href="#DejaVuSans-56"/>
      <use xlink:href="#DejaVuSans-7a" transform="translate(68.408203 0)"/>
     </g>
    </g>
   </g>
  </g>
  <g id="axes_3">
   <g id="patch_13">
    <path d="M 59.690625 600.28 
L 494.525625 600.28 
L 494.525625 351.6 
L 59.690625 351.6 
z
" style="fill: #ffffff"/>
   </g>
   <g id="matplotlib.axis_5">
    <g id="xtick_19">
     <g id="line2d_73">
      <path d="M 79.455852 600.28 
L 79.455852 351.6 
" clip-path="url(#p56b61ef744)" style="fill: none; stroke: #b0b0b0; stroke-opacity: 0.3; stroke-width: 0.8; stroke-linecap: square"/>
     </g>
     <g id="line2d_74">
      <g>
       <use xlink:href="#mef182eb9a8" x="79.455852" y="600.28" style="stroke: #000000; stroke-width: 0.8"/>
      </g>
     </g>
     <g id="text_39">
      <!-- 0 -->
      <g transform="translate(76.274602 614.878437) scale(0.1 -0.1)">
       <use xlink:href="#DejaVuSans-30"/>
      </g>
     </g>
    </g>
    <g id="xtick_20">
     <g id="line2d_75">
      <path d="M 128.86892 600.28 
L 128.86892 351.6 
" clip-path="url(#p56b61ef744)" style="fill: none; stroke: #b0b0b0; stroke-opacity: 0.3; stroke-width: 0.8; stroke-linecap: square"/>
     </g>
     <g id="line2d_76">
      <g>
       <use xlink:href="#mef182eb9a8" x="128.86892" y="600.28" style="stroke: #000000; stroke-width: 0.8"/>
      </g>
     </g>
     <g id="text_40">
      <!-- 1 -->
      <g transform="translate(125.68767 614.878437) scale(0.1 -0.1)">
       <use xlink:href="#DejaVuSans-31"/>
      </g>
     </g>
    </g>
    <g id="xtick_21">
     <g id="line2d_77">
      <path d="M 178.281989 600.28 
L 178.281989 351.6 
" clip-path="url(#p56b61ef744)" style="fill: none; stroke: #b0b0b0; stroke-opacity: 0.3; stroke-width: 0.8; stroke-linecap: square"/>
     </g>
     <g id="line2d_78">
      <g>
       <use xlink:href="#mef182eb9a8" x="178.281989" y="600.28" style="stroke: #000000; stroke-width: 0.8"/>
      </g>
     </g>
     <g id="text_41">
      <!-- 2 -->
      <g transform="translate(175.100739 614.878437) scale(0.1 -0.1)">
       <use xlink:href="#DejaVuSans-32"/>
      </g>
     </g>
    </g>
    <g id="xtick_22">
     <g id="line2d_79">
      <path d="M 227.695057 600.28 
L 227.695057 351.6 
" clip-path="url(#p56b61ef744)" style="fill: none; stroke: #b0b0b0; stroke-opacity: 0.3; stroke-width: 0.8; stroke-linecap: square"/>
     </g>
     <g id="line2d_80">
      <g>
       <use xlink:href="#mef182eb9a8" x="227.695057" y="600.28" style="stroke: #000000; stroke-width: 0.8"/>
      </g>
     </g>
     <g id="text_42">
      <!-- 3 -->
      <g transform="translate(224.513807 614.878437) scale(0.1 -0.1)">
       <use xlink:href="#DejaVuSans-33"/>
      </g>
     </g>
    </g>
    <g id="xtick_23">
     <g id="line2d_81">
      <path d="M 277.108125 600.28 
L 277.108125 351.6 
" clip-path="url(#p56b61ef744)" style="fill: none; stroke: #b0b0b0; stroke-opacity: 0.3; stroke-width: 0.8; stroke-linecap: square"/>
     </g>
     <g id="line2d_82">
      <g>
       <use xlink:href="#mef182eb9a8" x="277.108125" y="600.28" style="stroke: #000000; stroke-width: 0.8"/>
      </g>
     </g>
     <g id="text_43">
      <!-- 4 -->
      <g transform="translate(273.926875 614.878437) scale(0.1 -0.1)">
       <use xlink:href="#DejaVuSans-34"/>
      </g>
     </g>
    </g>
    <g id="xtick_24">
     <g id="line2d_83">
      <path d="M 326.521193 600.28 
L 326.521193 351.6 
" clip-path="url(#p56b61ef744)" style="fill: none; stroke: #b0b0b0; stroke-opacity: 0.3; stroke-width: 0.8; stroke-linecap: square"/>
     </g>
     <g id="line2d_84">
      <g>
       <use xlink:href="#mef182eb9a8" x="326.521193" y="600.28" style="stroke: #000000; stroke-width: 0.8"/>
      </g>
     </g>
     <g id="text_44">
      <!-- 5 -->
      <g transform="translate(323.339943 614.878437) scale(0.1 -0.1)">
       <use xlink:href="#DejaVuSans-35"/>
      </g>
     </g>
    </g>
    <g id="xtick_25">
     <g id="line2d_85">
      <path d="M 375.934261 600.28 
L 375.934261 351.6 
" clip-path="url(#p56b61ef744)" style="fill: none; stroke: #b0b0b0; stroke-opacity: 0.3; stroke-width: 0.8; stroke-linecap: square"/>
     </g>
     <g id="line2d_86">
      <g>
       <use xlink:href="#mef182eb9a8" x="375.934261" y="600.28" style="stroke: #000000; stroke-width: 0.8"/>
      </g>
     </g>
     <g id="text_45">
      <!-- 6 -->
      <g transform="translate(372.753011 614.878437) scale(0.1 -0.1)">
       <use xlink:href="#DejaVuSans-36"/>
      </g>
     </g>
    </g>
    <g id="xtick_26">
     <g id="line2d_87">
      <path d="M 425.34733 600.28 
L 425.34733 351.6 
" clip-path="url(#p56b61ef744)" style="fill: none; stroke: #b0b0b0; stroke-opacity: 0.3; stroke-width: 0.8; stroke-linecap: square"/>
     </g>
     <g id="line2d_88">
      <g>
       <use xlink:href="#mef182eb9a8" x="425.34733" y="600.28" style="stroke: #000000; stroke-width: 0.8"/>
      </g>
     </g>
     <g id="text_46">
      <!-- 7 -->
      <g transform="translate(422.16608 614.878437) scale(0.1 -0.1)">
       <use xlink:href="#DejaVuSans-37"/>
      </g>
     </g>
    </g>
    <g id="xtick_27">
     <g id="line2d_89">
      <path d="M 474.760398 600.28 
L 474.760398 351.6 
" clip-path="url(#p56b61ef744)" style="fill: none; stroke: #b0b0b0; stroke-opacity: 0.3; stroke-width: 0.8; stroke-linecap: square"/>
     </g>
     <g id="line2d_90">
      <g>
       <use xlink:href="#mef182eb9a8" x="474.760398" y="600.28" style="stroke: #000000; stroke-width: 0.8"/>
      </g>
     </g>
     <g id="text_47">
      <!-- 8 -->
      <g transform="translate(471.579148 614.878437) scale(0.1 -0.1)">
       <use xlink:href="#DejaVuSans-38"/>
      </g>
     </g>
    </g>
    <g id="text_48">
     <!-- Position (m) -->
     <g transform="translate(247.283125 628.556562) scale(0.1 -0.1)">
      <use xlink:href="#DejaVuSans-50"/>
      <use xlink:href="#DejaVuSans-6f" transform="translate(56.677734 0)"/>
      <use xlink:href="#DejaVuSans-73" transform="translate(117.859375 0)"/>
      <use xlink:href="#DejaVuSans-69" transform="translate(169.958984 0)"/>
      <use xlink:href="#DejaVuSans-74" transform="translate(197.742188 0)"/>
      <use xlink:href="#DejaVuSans-69" transform="translate(236.951172 0)"/>
      <use xlink:href="#DejaVuSans-6f" transform="translate(264.734375 0)"/>
      <use xlink:href="#DejaVuSans-6e" transform="translate(325.916016 0)"/>
      <use xlink:href="#DejaVuSans-20" transform="translate(389.294922 0)"/>
      <use xlink:href="#DejaVuSans-28" transform="translate(421.082031 0)"/>
      <use xlink:href="#DejaVuSans-6d" transform="translate(460.095703 0)"/>
      <use xlink:href="#DejaVuSans-29" transform="translate(557.507812 0)"/>
     </g>
    </g>
   </g>
   <g id="matplotlib.axis_6">
    <g id="ytick_15">
     <g id="line2d_91">
      <path d="M 59.690625 588.976364 
L 494.525625 588.976364 
" clip-path="url(#p56b61ef744)" style="fill: none; stroke: #b0b0b0; stroke-opacity: 0.3; stroke-width: 0.8; stroke-linecap: square"/>
     </g>
     <g id="line2d_92">
      <g>
       <use xlink:href="#ma903e0453e" x="59.690625" y="588.976364" style="stroke: #000000; stroke-width: 0.8"/>
      </g>
     </g>
     <g id="text_49">
      <!-- 0.0 -->
      <g transform="translate(36.7875 592.775582) scale(0.1 -0.1)">
       <defs>
        <path id="DejaVuSans-2e" d="M 684 794 
L 1344 794 
L 1344 0 
L 684 0 
L 684 794 
z
" transform="scale(0.015625)"/>
       </defs>
       <use xlink:href="#DejaVuSans-30"/>
       <use xlink:href="#DejaVuSans-2e" transform="translate(63.623047 0)"/>
       <use xlink:href="#DejaVuSans-30" transform="translate(95.410156 0)"/>
      </g>
     </g>
    </g>
    <g id="ytick_16">
     <g id="line2d_93">
      <path d="M 59.690625 545.1133 
L 494.525625 545.1133 
" clip-path="url(#p56b61ef744)" style="fill: none; stroke: #b0b0b0; stroke-opacity: 0.3; stroke-width: 0.8; stroke-linecap: square"/>
     </g>
     <g id="line2d_94">
      <g>
       <use xlink:href="#ma903e0453e" x="59.690625" y="545.1133" style="stroke: #000000; stroke-width: 0.8"/>
      </g>
     </g>
     <g id="text_50">
      <!-- 0.2 -->
      <g transform="translate(36.7875 548.912519) scale(0.1 -0.1)">
       <use xlink:href="#DejaVuSans-30"/>
       <use xlink:href="#DejaVuSans-2e" transform="translate(63.623047 0)"/>
       <use xlink:href="#DejaVuSans-32" transform="translate(95.410156 0)"/>
      </g>
     </g>
    </g>
    <g id="ytick_17">
     <g id="line2d_95">
      <path d="M 59.690625 501.250237 
L 494.525625 501.250237 
" clip-path="url(#p56b61ef744)" style="fill: none; stroke: #b0b0b0; stroke-opacity: 0.3; stroke-width: 0.8; stroke-linecap: square"/>
     </g>
     <g id="line2d_96">
      <g>
       <use xlink:href="#ma903e0453e" x="59.690625" y="501.250237" style="stroke: #000000; stroke-width: 0.8"/>
      </g>
     </g>
     <g id="text_51">
      <!-- 0.4 -->
      <g transform="translate(36.7875 505.049456) scale(0.1 -0.1)">
       <use xlink:href="#DejaVuSans-30"/>
       <use xlink:href="#DejaVuSans-2e" transform="translate(63.623047 0)"/>
       <use xlink:href="#DejaVuSans-34" transform="translate(95.410156 0)"/>
      </g>
     </g>
    </g>
    <g id="ytick_18">
     <g id="line2d_97">
      <path d="M 59.690625 457.387173 
L 494.525625 457.387173 
" clip-path="url(#p56b61ef744)" style="fill: none; stroke: #b0b0b0; stroke-opacity: 0.3; stroke-width: 0.8; stroke-linecap: square"/>
     </g>
     <g id="line2d_98">
      <g>
       <use xlink:href="#ma903e0453e" x="59.690625" y="457.387173" style="stroke: #000000; stroke-width: 0.8"/>
      </g>
     </g>
     <g id="text_52">
      <!-- 0.6 -->
      <g transform="translate(36.7875 461.186392) scale(0.1 -0.1)">
       <use xlink:href="#DejaVuSans-30"/>
       <use xlink:href="#DejaVuSans-2e" transform="translate(63.623047 0)"/>
       <use xlink:href="#DejaVuSans-36" transform="translate(95.410156 0)"/>
      </g>
     </g>
    </g>
    <g id="ytick_19">
     <g id="line2d_99">
      <path d="M 59.690625 413.52411 
L 494.525625 413.52411 
" clip-path="url(#p56b61ef744)" style="fill: none; stroke: #b0b0b0; stroke-opacity: 0.3; stroke-width: 0.8; stroke-linecap: square"/>
     </g>
     <g id="line2d_100">
      <g>
       <use xlink:href="#ma903e0453e" x="59.690625" y="413.52411" style="stroke: #000000; stroke-width: 0.8"/>
      </g>
     </g>
     <g id="text_53">
      <!-- 0.8 -->
      <g transform="translate(36.7875 417.323329) scale(0.1 -0.1)">
       <use xlink:href="#DejaVuSans-30"/>
       <use xlink:href="#DejaVuSans-2e" transform="translate(63.623047 0)"/>
       <use xlink:href="#DejaVuSans-38" transform="translate(95.410156 0)"/>
      </g>
     </g>
    </g>
    <g id="ytick_20">
     <g id="line2d_101">
      <path d="M 59.690625 369.661047 
L 494.525625 369.661047 
" clip-path="url(#p56b61ef744)" style="fill: none; stroke: #b0b0b0; stroke-opacity: 0.3; stroke-width: 0.8; stroke-linecap: square"/>
     </g>
     <g id="line2d_102">
      <g>
       <use xlink:href="#ma903e0453e" x="59.690625" y="369.661047" style="stroke: #000000; stroke-width: 0.8"/>
      </g>
     </g>
     <g id="text_54">
      <!-- 1.0 -->
      <g transform="translate(36.7875 373.460265) scale(0.1 -0.1)">
       <use xlink:href="#DejaVuSans-31"/>
       <use xlink:href="#DejaVuSans-2e" transform="translate(63.623047 0)"/>
       <use xlink:href="#DejaVuSans-30" transform="translate(95.410156 0)"/>
      </g>
     </g>
    </g>
    <g id="text_55">
     <!-- 1e6 -->
     <g transform="translate(59.690625 348.6) scale(0.1 -0.1)">
      <use xlink:href="#DejaVuSans-31"/>
      <use xlink:href="#DejaVuSans-65" transform="translate(63.623047 0)"/>
      <use xlink:href="#DejaVuSans-36" transform="translate(125.146484 0)"/>
     </g>
    </g>
   </g>
   <g id="line2d_103">
    <path d="M 79.455852 588.976364 
L 83.448827 588.976364 
L 87.441803 588.976364 
L 91.434778 588.976364 
L 95.427753 588.976364 
L 99.420728 588.976364 
L 103.413704 588.976364 
L 107.406679 588.976364 
L 111.399654 588.976364 
L 115.392629 588.976364 
L 119.385604 588.976364 
L 123.37858 588.976364 
L 127.371555 588.976364 
L 131.36453 588.976364 
L 135.357505 588.976364 
L 139.35048 588.976364 
L 143.343456 588.976364 
L 147.336431 588.976364 
L 151.329406 588.976364 
L 155.322381 588.976364 
L 159.315356 588.976364 
L 163.308332 588.976364 
L 167.301307 588.976364 
L 171.294282 588.976364 
L 175.287257 588.976364 
L 179.280232 588.976364 
L 183.273208 588.976364 
L 187.266183 588.976364 
L 191.259158 588.976364 
L 195.252133 588.976364 
L 199.245108 588.976364 
L 203.238084 588.976364 
L 207.231059 588.976364 
L 211.224034 588.976364 
L 215.217009 588.976364 
L 219.209985 588.976364 
L 223.20296 588.976364 
L 227.195935 588.976364 
L 231.18891 588.976364 
L 235.181885 588.976364 
L 239.174861 588.976364 
L 243.167836 588.976364 
L 247.160811 588.976364 
L 251.153786 588.976364 
L 255.146761 588.976364 
L 259.139737 588.976364 
L 263.132712 588.976364 
L 267.125687 588.976364 
L 271.118662 588.976364 
L 275.111637 588.976364 
L 279.104613 588.976364 
L 283.097588 588.976364 
L 287.090563 588.976364 
L 291.083538 588.976364 
L 295.076513 588.976364 
L 299.069489 588.976364 
L 303.062464 588.976364 
L 307.055439 588.976364 
L 311.048414 588.976364 
L 315.041389 588.976364 
L 319.034365 588.976364 
L 323.02734 588.976364 
L 327.020315 588.976364 
L 331.01329 588.976364 
L 335.006265 588.976364 
L 338.999241 588.976364 
L 342.992216 588.976364 
L 346.985191 588.976364 
L 350.978166 588.976364 
L 354.971142 588.976364 
L 358.964117 588.976364 
L 362.957092 588.976364 
L 366.950067 588.976364 
L 370.943042 588.976364 
L 374.936018 588.976364 
L 378.928993 588.976364 
L 382.921968 588.976364 
L 386.914943 588.976364 
L 390.907918 588.976364 
L 394.900894 588.976364 
L 398.893869 588.976364 
L 402.886844 588.976364 
L 406.879819 588.976364 
L 410.872794 588.976364 
L 414.86577 588.976364 
L 418.858745 588.976364 
L 422.85172 588.976364 
L 426.844695 588.976364 
L 430.83767 588.976364 
L 434.830646 588.976364 
L 438.823621 588.976364 
L 442.816596 588.976364 
L 446.809571 588.976364 
L 450.802546 588.976364 
L 454.795522 588.976364 
L 458.788497 588.976364 
L 462.781472 588.976364 
L 466.774447 588.976364 
L 470.767423 588.976364 
L 474.760398 588.976364 
" clip-path="url(#p56b61ef744)" style="fill: none; stroke: #ff0000; stroke-width: 2; stroke-linecap: square"/>
   </g>
   <g id="line2d_104">
    <path d="M 59.690625 588.976364 
L 494.525625 588.976364 
" clip-path="url(#p56b61ef744)" style="fill: none; stroke-dasharray: 1.85,0.8; stroke-dashoffset: 0; stroke: #000000; stroke-opacity: 0.5; stroke-width: 0.5"/>
   </g>
   <g id="line2d_105">
    <path d="M 79.455852 362.903636 
L 83.448827 363.080861 
L 87.441803 363.258085 
L 91.434778 363.43531 
L 95.427753 363.612534 
L 99.420728 363.789759 
L 103.413704 363.966983 
L 107.406679 364.144208 
L 111.399654 364.321432 
L 115.392629 364.498657 
L 119.385604 364.711326 
L 123.37858 365.243 
L 127.371555 365.774673 
L 131.36453 366.306347 
L 135.357505 366.83802 
L 139.35048 367.369694 
L 143.343456 367.901367 
L 147.336431 368.433041 
L 151.329406 368.964714 
L 155.322381 369.496388 
L 159.315356 370.098951 
L 163.308332 370.985074 
L 167.301307 371.871196 
L 171.294282 372.757318 
L 175.287257 373.643441 
L 179.280232 374.529563 
L 183.273208 375.415686 
L 187.266183 376.301808 
L 191.259158 377.187931 
L 195.252133 378.074053 
L 199.245108 379.066511 
L 203.238084 380.307082 
L 207.231059 381.547654 
L 211.224034 382.788225 
L 215.217009 384.028797 
L 219.209985 385.269368 
L 223.20296 386.50994 
L 227.195935 387.750511 
L 231.18891 388.991083 
L 235.181885 390.231654 
L 239.174861 391.614005 
L 243.167836 393.209026 
L 247.160811 394.804046 
L 251.153786 396.399067 
L 255.146761 397.994087 
L 259.139737 399.589108 
L 263.132712 401.184128 
L 267.125687 402.779149 
L 271.118662 404.374169 
L 275.111637 405.96919 
L 279.104613 408.184496 
L 283.097588 411.020088 
L 287.090563 413.85568 
L 291.083538 416.691272 
L 295.076513 419.526864 
L 299.069489 422.362456 
L 303.062464 425.198048 
L 307.055439 428.03364 
L 311.048414 430.869232 
L 315.041389 433.704824 
L 319.034365 436.753085 
L 323.02734 439.943126 
L 327.020315 443.133167 
L 331.01329 446.323208 
L 335.006265 449.513249 
L 338.999241 452.70329 
L 342.992216 455.893331 
L 346.985191 459.083372 
L 350.978166 462.273413 
L 354.971142 465.463454 
L 358.964117 468.901609 
L 362.957092 472.446099 
L 366.950067 475.990589 
L 370.943042 479.535079 
L 374.936018 483.079569 
L 378.928993 486.624059 
L 382.921968 490.168549 
L 386.914943 493.713039 
L 390.907918 497.257529 
L 394.900894 500.802019 
L 398.893869 504.630068 
L 402.886844 508.529007 
L 406.879819 512.427946 
L 410.872794 516.326885 
L 414.86577 520.225824 
L 418.858745 524.124763 
L 422.85172 528.023702 
L 426.844695 531.922641 
L 430.83767 535.82158 
L 434.830646 539.720519 
L 438.823621 543.938462 
L 442.816596 548.19185 
L 446.809571 552.445238 
L 450.802546 556.698626 
L 454.795522 560.952014 
L 458.788497 565.205402 
L 462.781472 569.45879 
L 466.774447 573.712177 
L 470.767423 577.965565 
L 474.760398 584.470078 
" clip-path="url(#p56b61ef744)" style="fill: none; stroke: #008000; stroke-width: 2; stroke-linecap: square"/>
   </g>
   <g id="line2d_106">
    <path d="M 59.690625 588.976364 
L 494.525625 588.976364 
" clip-path="url(#p56b61ef744)" style="fill: none; stroke-dasharray: 1.85,0.8; stroke-dashoffset: 0; stroke: #000000; stroke-opacity: 0.5; stroke-width: 0.5"/>
   </g>
   <g id="patch_14">
    <path d="M 59.690625 600.28 
L 59.690625 351.6 
" style="fill: none; stroke: #000000; stroke-width: 0.8; stroke-linejoin: miter; stroke-linecap: square"/>
   </g>
   <g id="patch_15">
    <path d="M 494.525625 600.28 
L 494.525625 351.6 
" style="fill: none; stroke: #000000; stroke-width: 0.8; stroke-linejoin: miter; stroke-linecap: square"/>
   </g>
   <g id="patch_16">
    <path d="M 59.690625 600.28 
L 494.525625 600.28 
" style="fill: none; stroke: #000000; stroke-width: 0.8; stroke-linejoin: miter; stroke-linecap: square"/>
   </g>
   <g id="patch_17">
    <path d="M 59.690625 351.6 
L 494.525625 351.6 
" style="fill: none; stroke: #000000; stroke-width: 0.8; stroke-linejoin: miter; stroke-linecap: square"/>
   </g>
   <g id="legend_2">
    <g id="patch_18">
     <path d="M 440.97875 388.95625 
L 487.525625 388.95625 
Q 489.525625 388.95625 489.525625 386.95625 
L 489.525625 358.6 
Q 489.525625 356.6 487.525625 356.6 
L 440.97875 356.6 
Q 438.97875 356.6 438.97875 358.6 
L 438.97875 386.95625 
Q 438.97875 388.95625 440.97875 388.95625 
z
" style="fill: #ffffff; opacity: 0.8; stroke: #cccccc; stroke-linejoin: miter"/>
    </g>
    <g id="line2d_107">
     <path d="M 442.97875 364.698437 
L 452.97875 364.698437 
L 462.97875 364.698437 
" style="fill: none; stroke: #ff0000; stroke-width: 2; stroke-linecap: square"/>
    </g>
    <g id="text_56">
     <!-- My -->
     <g transform="translate(470.97875 368.198437) scale(0.1 -0.1)">
      <defs>
       <path id="DejaVuSans-4d" d="M 628 4666 
L 1569 4666 
L 2759 1491 
L 3956 4666 
L 4897 4666 
L 4897 0 
L 4281 0 
L 4281 4097 
L 3078 897 
L 2444 897 
L 1241 4097 
L 1241 0 
L 628 0 
L 628 4666 
z
" transform="scale(0.015625)"/>
      </defs>
      <use xlink:href="#DejaVuSans-4d"/>
      <use xlink:href="#DejaVuSans-79" transform="translate(86.279297 0)"/>
     </g>
    </g>
    <g id="line2d_108">
     <path d="M 442.97875 379.376562 
L 452.97875 379.376562 
L 462.97875 379.376562 
" style="fill: none; stroke: #008000; stroke-width: 2; stroke-linecap: square"/>
    </g>
    <g id="text_57">
     <!-- Mz -->
     <g transform="translate(470.97875 382.876562) scale(0.1 -0.1)">
      <use xlink:href="#DejaVuSans-4d"/>
      <use xlink:href="#DejaVuSans-7a" transform="translate(86.279297 0)"/>
     </g>
    </g>
   </g>
  </g>
  <g id="axes_4">
   <g id="patch_19">
    <path d="M 558.585625 600.28 
L 993.420625 600.28 
L 993.420625 351.6 
L 558.585625 351.6 
z
" style="fill: #ffffff"/>
   </g>
   <g id="matplotlib.axis_7">
    <g id="xtick_28">
     <g id="line2d_109">
      <path d="M 578.350852 600.28 
L 578.350852 351.6 
" clip-path="url(#p0148153244)" style="fill: none; stroke: #b0b0b0; stroke-opacity: 0.3; stroke-width: 0.8; stroke-linecap: square"/>
     </g>
     <g id="line2d_110">
      <g>
       <use xlink:href="#mef182eb9a8" x="578.350852" y="600.28" style="stroke: #000000; stroke-width: 0.8"/>
      </g>
     </g>
     <g id="text_58">
      <!-- 0 -->
      <g transform="translate(575.169602 614.878437) scale(0.1 -0.1)">
       <use xlink:href="#DejaVuSans-30"/>
      </g>
     </g>
    </g>
    <g id="xtick_29">
     <g id="line2d_111">
      <path d="M 627.76392 600.28 
L 627.76392 351.6 
" clip-path="url(#p0148153244)" style="fill: none; stroke: #b0b0b0; stroke-opacity: 0.3; stroke-width: 0.8; stroke-linecap: square"/>
     </g>
     <g id="line2d_112">
      <g>
       <use xlink:href="#mef182eb9a8" x="627.76392" y="600.28" style="stroke: #000000; stroke-width: 0.8"/>
      </g>
     </g>
     <g id="text_59">
      <!-- 1 -->
      <g transform="translate(624.58267 614.878437) scale(0.1 -0.1)">
       <use xlink:href="#DejaVuSans-31"/>
      </g>
     </g>
    </g>
    <g id="xtick_30">
     <g id="line2d_113">
      <path d="M 677.176989 600.28 
L 677.176989 351.6 
" clip-path="url(#p0148153244)" style="fill: none; stroke: #b0b0b0; stroke-opacity: 0.3; stroke-width: 0.8; stroke-linecap: square"/>
     </g>
     <g id="line2d_114">
      <g>
       <use xlink:href="#mef182eb9a8" x="677.176989" y="600.28" style="stroke: #000000; stroke-width: 0.8"/>
      </g>
     </g>
     <g id="text_60">
      <!-- 2 -->
      <g transform="translate(673.995739 614.878437) scale(0.1 -0.1)">
       <use xlink:href="#DejaVuSans-32"/>
      </g>
     </g>
    </g>
    <g id="xtick_31">
     <g id="line2d_115">
      <path d="M 726.590057 600.28 
L 726.590057 351.6 
" clip-path="url(#p0148153244)" style="fill: none; stroke: #b0b0b0; stroke-opacity: 0.3; stroke-width: 0.8; stroke-linecap: square"/>
     </g>
     <g id="line2d_116">
      <g>
       <use xlink:href="#mef182eb9a8" x="726.590057" y="600.28" style="stroke: #000000; stroke-width: 0.8"/>
      </g>
     </g>
     <g id="text_61">
      <!-- 3 -->
      <g transform="translate(723.408807 614.878437) scale(0.1 -0.1)">
       <use xlink:href="#DejaVuSans-33"/>
      </g>
     </g>
    </g>
    <g id="xtick_32">
     <g id="line2d_117">
      <path d="M 776.003125 600.28 
L 776.003125 351.6 
" clip-path="url(#p0148153244)" style="fill: none; stroke: #b0b0b0; stroke-opacity: 0.3; stroke-width: 0.8; stroke-linecap: square"/>
     </g>
     <g id="line2d_118">
      <g>
       <use xlink:href="#mef182eb9a8" x="776.003125" y="600.28" style="stroke: #000000; stroke-width: 0.8"/>
      </g>
     </g>
     <g id="text_62">
      <!-- 4 -->
      <g transform="translate(772.821875 614.878437) scale(0.1 -0.1)">
       <use xlink:href="#DejaVuSans-34"/>
      </g>
     </g>
    </g>
    <g id="xtick_33">
     <g id="line2d_119">
      <path d="M 825.416193 600.28 
L 825.416193 351.6 
" clip-path="url(#p0148153244)" style="fill: none; stroke: #b0b0b0; stroke-opacity: 0.3; stroke-width: 0.8; stroke-linecap: square"/>
     </g>
     <g id="line2d_120">
      <g>
       <use xlink:href="#mef182eb9a8" x="825.416193" y="600.28" style="stroke: #000000; stroke-width: 0.8"/>
      </g>
     </g>
     <g id="text_63">
      <!-- 5 -->
      <g transform="translate(822.234943 614.878437) scale(0.1 -0.1)">
       <use xlink:href="#DejaVuSans-35"/>
      </g>
     </g>
    </g>
    <g id="xtick_34">
     <g id="line2d_121">
      <path d="M 874.829261 600.28 
L 874.829261 351.6 
" clip-path="url(#p0148153244)" style="fill: none; stroke: #b0b0b0; stroke-opacity: 0.3; stroke-width: 0.8; stroke-linecap: square"/>
     </g>
     <g id="line2d_122">
      <g>
       <use xlink:href="#mef182eb9a8" x="874.829261" y="600.28" style="stroke: #000000; stroke-width: 0.8"/>
      </g>
     </g>
     <g id="text_64">
      <!-- 6 -->
      <g transform="translate(871.648011 614.878437) scale(0.1 -0.1)">
       <use xlink:href="#DejaVuSans-36"/>
      </g>
     </g>
    </g>
    <g id="xtick_35">
     <g id="line2d_123">
      <path d="M 924.24233 600.28 
L 924.24233 351.6 
" clip-path="url(#p0148153244)" style="fill: none; stroke: #b0b0b0; stroke-opacity: 0.3; stroke-width: 0.8; stroke-linecap: square"/>
     </g>
     <g id="line2d_124">
      <g>
       <use xlink:href="#mef182eb9a8" x="924.24233" y="600.28" style="stroke: #000000; stroke-width: 0.8"/>
      </g>
     </g>
     <g id="text_65">
      <!-- 7 -->
      <g transform="translate(921.06108 614.878437) scale(0.1 -0.1)">
       <use xlink:href="#DejaVuSans-37"/>
      </g>
     </g>
    </g>
    <g id="xtick_36">
     <g id="line2d_125">
      <path d="M 973.655398 600.28 
L 973.655398 351.6 
" clip-path="url(#p0148153244)" style="fill: none; stroke: #b0b0b0; stroke-opacity: 0.3; stroke-width: 0.8; stroke-linecap: square"/>
     </g>
     <g id="line2d_126">
      <g>
       <use xlink:href="#mef182eb9a8" x="973.655398" y="600.28" style="stroke: #000000; stroke-width: 0.8"/>
      </g>
     </g>
     <g id="text_66">
      <!-- 8 -->
      <g transform="translate(970.474148 614.878437) scale(0.1 -0.1)">
       <use xlink:href="#DejaVuSans-38"/>
      </g>
     </g>
    </g>
    <g id="text_67">
     <!-- Position (m) -->
     <g transform="translate(746.178125 628.556562) scale(0.1 -0.1)">
      <use xlink:href="#DejaVuSans-50"/>
      <use xlink:href="#DejaVuSans-6f" transform="translate(56.677734 0)"/>
      <use xlink:href="#DejaVuSans-73" transform="translate(117.859375 0)"/>
      <use xlink:href="#DejaVuSans-69" transform="translate(169.958984 0)"/>
      <use xlink:href="#DejaVuSans-74" transform="translate(197.742188 0)"/>
      <use xlink:href="#DejaVuSans-69" transform="translate(236.951172 0)"/>
      <use xlink:href="#DejaVuSans-6f" transform="translate(264.734375 0)"/>
      <use xlink:href="#DejaVuSans-6e" transform="translate(325.916016 0)"/>
      <use xlink:href="#DejaVuSans-20" transform="translate(389.294922 0)"/>
      <use xlink:href="#DejaVuSans-28" transform="translate(421.082031 0)"/>
      <use xlink:href="#DejaVuSans-6d" transform="translate(460.095703 0)"/>
      <use xlink:href="#DejaVuSans-29" transform="translate(557.507812 0)"/>
     </g>
    </g>
   </g>
   <g id="matplotlib.axis_8">
    <g id="ytick_21">
     <g id="line2d_127">
      <path d="M 558.585625 589.072156 
L 993.420625 589.072156 
" clip-path="url(#p0148153244)" style="fill: none; stroke: #b0b0b0; stroke-opacity: 0.3; stroke-width: 0.8; stroke-linecap: square"/>
     </g>
     <g id="line2d_128">
      <g>
       <use xlink:href="#ma903e0453e" x="558.585625" y="589.072156" style="stroke: #000000; stroke-width: 0.8"/>
      </g>
     </g>
     <g id="text_68">
      <!-- −1.0 -->
      <g transform="translate(527.302813 592.871374) scale(0.1 -0.1)">
       <use xlink:href="#DejaVuSans-2212"/>
       <use xlink:href="#DejaVuSans-31" transform="translate(83.789062 0)"/>
       <use xlink:href="#DejaVuSans-2e" transform="translate(147.412109 0)"/>
       <use xlink:href="#DejaVuSans-30" transform="translate(179.199219 0)"/>
      </g>
     </g>
    </g>
    <g id="ytick_22">
     <g id="line2d_129">
      <path d="M 558.585625 543.838452 
L 993.420625 543.838452 
" clip-path="url(#p0148153244)" style="fill: none; stroke: #b0b0b0; stroke-opacity: 0.3; stroke-width: 0.8; stroke-linecap: square"/>
     </g>
     <g id="line2d_130">
      <g>
       <use xlink:href="#ma903e0453e" x="558.585625" y="543.838452" style="stroke: #000000; stroke-width: 0.8"/>
      </g>
     </g>
     <g id="text_69">
      <!-- −0.8 -->
      <g transform="translate(527.302813 547.637671) scale(0.1 -0.1)">
       <use xlink:href="#DejaVuSans-2212"/>
       <use xlink:href="#DejaVuSans-30" transform="translate(83.789062 0)"/>
       <use xlink:href="#DejaVuSans-2e" transform="translate(147.412109 0)"/>
       <use xlink:href="#DejaVuSans-38" transform="translate(179.199219 0)"/>
      </g>
     </g>
    </g>
    <g id="ytick_23">
     <g id="line2d_131">
      <path d="M 558.585625 498.604748 
L 993.420625 498.604748 
" clip-path="url(#p0148153244)" style="fill: none; stroke: #b0b0b0; stroke-opacity: 0.3; stroke-width: 0.8; stroke-linecap: square"/>
     </g>
     <g id="line2d_132">
      <g>
       <use xlink:href="#ma903e0453e" x="558.585625" y="498.604748" style="stroke: #000000; stroke-width: 0.8"/>
      </g>
     </g>
     <g id="text_70">
      <!-- −0.6 -->
      <g transform="translate(527.302813 502.403967) scale(0.1 -0.1)">
       <use xlink:href="#DejaVuSans-2212"/>
       <use xlink:href="#DejaVuSans-30" transform="translate(83.789062 0)"/>
       <use xlink:href="#DejaVuSans-2e" transform="translate(147.412109 0)"/>
       <use xlink:href="#DejaVuSans-36" transform="translate(179.199219 0)"/>
      </g>
     </g>
    </g>
    <g id="ytick_24">
     <g id="line2d_133">
      <path d="M 558.585625 453.371044 
L 993.420625 453.371044 
" clip-path="url(#p0148153244)" style="fill: none; stroke: #b0b0b0; stroke-opacity: 0.3; stroke-width: 0.8; stroke-linecap: square"/>
     </g>
     <g id="line2d_134">
      <g>
       <use xlink:href="#ma903e0453e" x="558.585625" y="453.371044" style="stroke: #000000; stroke-width: 0.8"/>
      </g>
     </g>
     <g id="text_71">
      <!-- −0.4 -->
      <g transform="translate(527.302813 457.170263) scale(0.1 -0.1)">
       <use xlink:href="#DejaVuSans-2212"/>
       <use xlink:href="#DejaVuSans-30" transform="translate(83.789062 0)"/>
       <use xlink:href="#DejaVuSans-2e" transform="translate(147.412109 0)"/>
       <use xlink:href="#DejaVuSans-34" transform="translate(179.199219 0)"/>
      </g>
     </g>
    </g>
    <g id="ytick_25">
     <g id="line2d_135">
      <path d="M 558.585625 408.13734 
L 993.420625 408.13734 
" clip-path="url(#p0148153244)" style="fill: none; stroke: #b0b0b0; stroke-opacity: 0.3; stroke-width: 0.8; stroke-linecap: square"/>
     </g>
     <g id="line2d_136">
      <g>
       <use xlink:href="#ma903e0453e" x="558.585625" y="408.13734" style="stroke: #000000; stroke-width: 0.8"/>
      </g>
     </g>
     <g id="text_72">
      <!-- −0.2 -->
      <g transform="translate(527.302813 411.936559) scale(0.1 -0.1)">
       <use xlink:href="#DejaVuSans-2212"/>
       <use xlink:href="#DejaVuSans-30" transform="translate(83.789062 0)"/>
       <use xlink:href="#DejaVuSans-2e" transform="translate(147.412109 0)"/>
       <use xlink:href="#DejaVuSans-32" transform="translate(179.199219 0)"/>
      </g>
     </g>
    </g>
    <g id="ytick_26">
     <g id="line2d_137">
      <path d="M 558.585625 362.903636 
L 993.420625 362.903636 
" clip-path="url(#p0148153244)" style="fill: none; stroke: #b0b0b0; stroke-opacity: 0.3; stroke-width: 0.8; stroke-linecap: square"/>
     </g>
     <g id="line2d_138">
      <g>
       <use xlink:href="#ma903e0453e" x="558.585625" y="362.903636" style="stroke: #000000; stroke-width: 0.8"/>
      </g>
     </g>
     <g id="text_73">
      <!-- 0.0 -->
      <g transform="translate(535.6825 366.702855) scale(0.1 -0.1)">
       <use xlink:href="#DejaVuSans-30"/>
       <use xlink:href="#DejaVuSans-2e" transform="translate(63.623047 0)"/>
       <use xlink:href="#DejaVuSans-30" transform="translate(95.410156 0)"/>
      </g>
     </g>
    </g>
    <g id="text_74">
     <!-- T (N·m) -->
     <g transform="translate(521.223125 494.684531) rotate(-90) scale(0.1 -0.1)">
      <defs>
       <path id="DejaVuSans-54" d="M -19 4666 
L 3928 4666 
L 3928 4134 
L 2272 4134 
L 2272 0 
L 1638 0 
L 1638 4134 
L -19 4134 
L -19 4666 
z
" transform="scale(0.015625)"/>
       <path id="DejaVuSans-b7" d="M 684 2619 
L 1344 2619 
L 1344 1825 
L 684 1825 
L 684 2619 
z
" transform="scale(0.015625)"/>
      </defs>
      <use xlink:href="#DejaVuSans-54"/>
      <use xlink:href="#DejaVuSans-20" transform="translate(61.083984 0)"/>
      <use xlink:href="#DejaVuSans-28" transform="translate(92.871094 0)"/>
      <use xlink:href="#DejaVuSans-4e" transform="translate(131.884766 0)"/>
      <use xlink:href="#DejaVuSans-b7" transform="translate(206.689453 0)"/>
      <use xlink:href="#DejaVuSans-6d" transform="translate(238.476562 0)"/>
      <use xlink:href="#DejaVuSans-29" transform="translate(335.888672 0)"/>
     </g>
    </g>
    <g id="text_75">
     <!-- 1e−11 -->
     <g transform="translate(558.585625 348.6) scale(0.1 -0.1)">
      <use xlink:href="#DejaVuSans-31"/>
      <use xlink:href="#DejaVuSans-65" transform="translate(63.623047 0)"/>
      <use xlink:href="#DejaVuSans-2212" transform="translate(125.146484 0)"/>
      <use xlink:href="#DejaVuSans-31" transform="translate(208.935547 0)"/>
      <use xlink:href="#DejaVuSans-31" transform="translate(272.558594 0)"/>
     </g>
    </g>
   </g>
   <g id="line2d_139">
    <path d="M 578.350852 588.976364 
L 582.343827 588.976364 
L 586.336803 588.976364 
L 590.329778 588.976364 
L 594.322753 588.976364 
L 598.315728 588.976364 
L 602.308704 588.976364 
L 606.301679 588.976364 
L 610.294654 588.976364 
L 614.287629 588.976364 
L 618.280604 588.976364 
L 622.27358 588.976364 
L 626.266555 588.976364 
L 630.25953 588.976364 
L 634.252505 588.976364 
L 638.24548 588.976364 
L 642.238456 588.976364 
L 646.231431 588.976364 
L 650.224406 588.976364 
L 654.217381 588.976364 
L 658.210356 588.976364 
L 662.203332 588.976364 
L 666.196307 588.976364 
L 670.189282 588.976364 
L 674.182257 588.976364 
L 678.175232 588.976364 
L 682.168208 588.976364 
L 686.161183 588.976364 
L 690.154158 588.976364 
L 694.147133 588.976364 
L 698.140108 588.976364 
L 702.133084 588.976364 
L 706.126059 588.976364 
L 710.119034 588.976364 
L 714.112009 588.976364 
L 718.104985 588.976364 
L 722.09796 588.976364 
L 726.090935 588.976364 
L 730.08391 588.976364 
L 734.076885 588.976364 
L 738.069861 588.976364 
L 742.062836 588.976364 
L 746.055811 588.976364 
L 750.048786 588.976364 
L 754.041761 588.976364 
L 758.034737 588.976364 
L 762.027712 588.976364 
L 766.020687 588.976364 
L 770.013662 588.976364 
L 774.006637 588.976364 
L 777.999613 588.976364 
L 781.992588 588.976364 
L 785.985563 588.976364 
L 789.978538 588.976364 
L 793.971513 588.976364 
L 797.964489 588.976364 
L 801.957464 588.976364 
L 805.950439 588.976364 
L 809.943414 588.976364 
L 813.936389 588.976364 
L 817.929365 588.976364 
L 821.92234 588.976364 
L 825.915315 588.976364 
L 829.90829 588.976364 
L 833.901265 588.976364 
L 837.894241 588.976364 
L 841.887216 588.976364 
L 845.880191 588.976364 
L 849.873166 588.976364 
L 853.866142 588.976364 
L 857.859117 588.976364 
L 861.852092 588.976364 
L 865.845067 588.976364 
L 869.838042 588.976364 
L 873.831018 588.976364 
L 877.823993 588.976364 
L 881.816968 588.976364 
L 885.809943 588.976364 
L 889.802918 588.976364 
L 893.795894 588.976364 
L 897.788869 588.976364 
L 901.781844 588.976364 
L 905.774819 588.976364 
L 909.767794 588.976364 
L 913.76077 588.976364 
L 917.753745 588.976364 
L 921.74672 588.976364 
L 925.739695 588.976364 
L 929.73267 588.976364 
L 933.725646 588.976364 
L 937.718621 588.976364 
L 941.711596 588.976364 
L 945.704571 588.976364 
L 949.697546 588.976364 
L 953.690522 588.976364 
L 957.683497 588.976364 
L 961.676472 588.976364 
L 965.669447 588.976364 
L 969.662423 588.976364 
L 973.655398 588.976364 
" clip-path="url(#p0148153244)" style="fill: none; stroke: #bf00bf; stroke-width: 2; stroke-linecap: square"/>
   </g>
   <g id="line2d_140">
    <path d="M 558.585625 362.903636 
L 993.420625 362.903636 
" clip-path="url(#p0148153244)" style="fill: none; stroke-dasharray: 1.85,0.8; stroke-dashoffset: 0; stroke: #000000; stroke-opacity: 0.5; stroke-width: 0.5"/>
   </g>
   <g id="patch_20">
    <path d="M 558.585625 600.28 
L 558.585625 351.6 
" style="fill: none; stroke: #000000; stroke-width: 0.8; stroke-linejoin: miter; stroke-linecap: square"/>
   </g>
   <g id="patch_21">
    <path d="M 993.420625 600.28 
L 993.420625 351.6 
" style="fill: none; stroke: #000000; stroke-width: 0.8; stroke-linejoin: miter; stroke-linecap: square"/>
   </g>
   <g id="patch_22">
    <path d="M 558.585625 600.28 
L 993.420625 600.28 
" style="fill: none; stroke: #000000; stroke-width: 0.8; stroke-linejoin: miter; stroke-linecap: square"/>
   </g>
   <g id="patch_23">
    <path d="M 558.585625 351.6 
L 993.420625 351.6 
" style="fill: none; stroke: #000000; stroke-width: 0.8; stroke-linejoin: miter; stroke-linecap: square"/>
   </g>
   <g id="text_76">
    <!-- Torsion -->
    <g transform="translate(754.954375 345.6) scale(0.12 -0.12)">
     <use xlink:href="#DejaVuSans-54"/>
     <use xlink:href="#DejaVuSans-6f" transform="translate(44.083984 0)"/>
     <use xlink:href="#DejaVuSans-72" transform="translate(105.265625 0)"/>
     <use xlink:href="#DejaVuSans-73" transform="translate(146.378906 0)"/>
     <use xlink:href="#DejaVuSans-69" transform="translate(198.478516 0)"/>
     <use xlink:href="#DejaVuSans-6f" transform="translate(226.261719 0)"/>
     <use xlink:href="#DejaVuSans-6e" transform="translate(287.443359 0)"/>
    </g>
   </g>
  </g>
  <g id="text_77">
   <!-- Member beam - Internal Forces -->
   <g transform="translate(385.343281 17.077969) scale(0.13 -0.13)">
    <defs>
     <path id="DejaVuSans-Bold-4d" d="M 588 4666 
L 2119 4666 
L 3181 2169 
L 4250 4666 
L 5778 4666 
L 5778 0 
L 4641 0 
L 4641 3413 
L 3566 897 
L 2803 897 
L 1728 3413 
L 1728 0 
L 588 0 
L 588 4666 
z
" transform="scale(0.015625)"/>
     <path id="DejaVuSans-Bold-65" d="M 4031 1759 
L 4031 1441 
L 1416 1441 
Q 1456 1047 1700 850 
Q 1944 653 2381 653 
Q 2734 653 3104 758 
Q 3475 863 3866 1075 
L 3866 213 
Q 3469 63 3072 -14 
Q 2675 -91 2278 -91 
Q 1328 -91 801 392 
Q 275 875 275 1747 
Q 275 2603 792 3093 
Q 1309 3584 2216 3584 
Q 3041 3584 3536 3087 
Q 4031 2591 4031 1759 
z
M 2881 2131 
Q 2881 2450 2695 2645 
Q 2509 2841 2209 2841 
Q 1884 2841 1681 2658 
Q 1478 2475 1428 2131 
L 2881 2131 
z
" transform="scale(0.015625)"/>
     <path id="DejaVuSans-Bold-6d" d="M 3781 2919 
Q 3994 3244 4286 3414 
Q 4578 3584 4928 3584 
Q 5531 3584 5847 3212 
Q 6163 2841 6163 2131 
L 6163 0 
L 5038 0 
L 5038 1825 
Q 5041 1866 5042 1909 
Q 5044 1953 5044 2034 
Q 5044 2406 4934 2573 
Q 4825 2741 4581 2741 
Q 4263 2741 4089 2478 
Q 3916 2216 3909 1719 
L 3909 0 
L 2784 0 
L 2784 1825 
Q 2784 2406 2684 2573 
Q 2584 2741 2328 2741 
Q 2006 2741 1831 2477 
Q 1656 2213 1656 1722 
L 1656 0 
L 531 0 
L 531 3500 
L 1656 3500 
L 1656 2988 
Q 1863 3284 2130 3434 
Q 2397 3584 2719 3584 
Q 3081 3584 3359 3409 
Q 3638 3234 3781 2919 
z
" transform="scale(0.015625)"/>
     <path id="DejaVuSans-Bold-62" d="M 2400 722 
Q 2759 722 2948 984 
Q 3138 1247 3138 1747 
Q 3138 2247 2948 2509 
Q 2759 2772 2400 2772 
Q 2041 2772 1848 2508 
Q 1656 2244 1656 1747 
Q 1656 1250 1848 986 
Q 2041 722 2400 722 
z
M 1656 2988 
Q 1888 3294 2169 3439 
Q 2450 3584 2816 3584 
Q 3463 3584 3878 3070 
Q 4294 2556 4294 1747 
Q 4294 938 3878 423 
Q 3463 -91 2816 -91 
Q 2450 -91 2169 54 
Q 1888 200 1656 506 
L 1656 0 
L 538 0 
L 538 4863 
L 1656 4863 
L 1656 2988 
z
" transform="scale(0.015625)"/>
     <path id="DejaVuSans-Bold-72" d="M 3138 2547 
Q 2991 2616 2845 2648 
Q 2700 2681 2553 2681 
Q 2122 2681 1889 2404 
Q 1656 2128 1656 1613 
L 1656 0 
L 538 0 
L 538 3500 
L 1656 3500 
L 1656 2925 
Q 1872 3269 2151 3426 
Q 2431 3584 2822 3584 
Q 2878 3584 2943 3579 
Q 3009 3575 3134 3559 
L 3138 2547 
z
" transform="scale(0.015625)"/>
     <path id="DejaVuSans-Bold-20" transform="scale(0.015625)"/>
     <path id="DejaVuSans-Bold-61" d="M 2106 1575 
Q 1756 1575 1579 1456 
Q 1403 1338 1403 1106 
Q 1403 894 1545 773 
Q 1688 653 1941 653 
Q 2256 653 2472 879 
Q 2688 1106 2688 1447 
L 2688 1575 
L 2106 1575 
z
M 3816 1997 
L 3816 0 
L 2688 0 
L 2688 519 
Q 2463 200 2181 54 
Q 1900 -91 1497 -91 
Q 953 -91 614 226 
Q 275 544 275 1050 
Q 275 1666 698 1953 
Q 1122 2241 2028 2241 
L 2688 2241 
L 2688 2328 
Q 2688 2594 2478 2717 
Q 2269 2841 1825 2841 
Q 1466 2841 1156 2769 
Q 847 2697 581 2553 
L 581 3406 
Q 941 3494 1303 3539 
Q 1666 3584 2028 3584 
Q 2975 3584 3395 3211 
Q 3816 2838 3816 1997 
z
" transform="scale(0.015625)"/>
     <path id="DejaVuSans-Bold-2d" d="M 347 2297 
L 2309 2297 
L 2309 1388 
L 347 1388 
L 347 2297 
z
" transform="scale(0.015625)"/>
     <path id="DejaVuSans-Bold-49" d="M 588 4666 
L 1791 4666 
L 1791 0 
L 588 0 
L 588 4666 
z
" transform="scale(0.015625)"/>
     <path id="DejaVuSans-Bold-6e" d="M 4056 2131 
L 4056 0 
L 2931 0 
L 2931 347 
L 2931 1631 
Q 2931 2084 2911 2256 
Q 2891 2428 2841 2509 
Q 2775 2619 2662 2680 
Q 2550 2741 2406 2741 
Q 2056 2741 1856 2470 
Q 1656 2200 1656 1722 
L 1656 0 
L 538 0 
L 538 3500 
L 1656 3500 
L 1656 2988 
Q 1909 3294 2193 3439 
Q 2478 3584 2822 3584 
Q 3428 3584 3742 3212 
Q 4056 2841 4056 2131 
z
" transform="scale(0.015625)"/>
     <path id="DejaVuSans-Bold-74" d="M 1759 4494 
L 1759 3500 
L 2913 3500 
L 2913 2700 
L 1759 2700 
L 1759 1216 
Q 1759 972 1856 886 
Q 1953 800 2241 800 
L 2816 800 
L 2816 0 
L 1856 0 
Q 1194 0 917 276 
Q 641 553 641 1216 
L 641 2700 
L 84 2700 
L 84 3500 
L 641 3500 
L 641 4494 
L 1759 4494 
z
" transform="scale(0.015625)"/>
     <path id="DejaVuSans-Bold-6c" d="M 538 4863 
L 1656 4863 
L 1656 0 
L 538 0 
L 538 4863 
z
" transform="scale(0.015625)"/>
     <path id="DejaVuSans-Bold-46" d="M 588 4666 
L 3834 4666 
L 3834 3756 
L 1791 3756 
L 1791 2888 
L 3713 2888 
L 3713 1978 
L 1791 1978 
L 1791 0 
L 588 0 
L 588 4666 
z
" transform="scale(0.015625)"/>
     <path id="DejaVuSans-Bold-6f" d="M 2203 2784 
Q 1831 2784 1636 2517 
Q 1441 2250 1441 1747 
Q 1441 1244 1636 976 
Q 1831 709 2203 709 
Q 2569 709 2762 976 
Q 2956 1244 2956 1747 
Q 2956 2250 2762 2517 
Q 2569 2784 2203 2784 
z
M 2203 3584 
Q 3106 3584 3614 3096 
Q 4122 2609 4122 1747 
Q 4122 884 3614 396 
Q 3106 -91 2203 -91 
Q 1297 -91 786 396 
Q 275 884 275 1747 
Q 275 2609 786 3096 
Q 1297 3584 2203 3584 
z
" transform="scale(0.015625)"/>
     <path id="DejaVuSans-Bold-63" d="M 3366 3391 
L 3366 2478 
Q 3138 2634 2908 2709 
Q 2678 2784 2431 2784 
Q 1963 2784 1702 2511 
Q 1441 2238 1441 1747 
Q 1441 1256 1702 982 
Q 1963 709 2431 709 
Q 2694 709 2930 787 
Q 3166 866 3366 1019 
L 3366 103 
Q 3103 6 2833 -42 
Q 2563 -91 2291 -91 
Q 1344 -91 809 395 
Q 275 881 275 1747 
Q 275 2613 809 3098 
Q 1344 3584 2291 3584 
Q 2566 3584 2833 3536 
Q 3100 3488 3366 3391 
z
" transform="scale(0.015625)"/>
     <path id="DejaVuSans-Bold-73" d="M 3272 3391 
L 3272 2541 
Q 2913 2691 2578 2766 
Q 2244 2841 1947 2841 
Q 1628 2841 1473 2761 
Q 1319 2681 1319 2516 
Q 1319 2381 1436 2309 
Q 1553 2238 1856 2203 
L 2053 2175 
Q 2913 2066 3209 1816 
Q 3506 1566 3506 1031 
Q 3506 472 3093 190 
Q 2681 -91 1863 -91 
Q 1516 -91 1145 -36 
Q 775 19 384 128 
L 384 978 
Q 719 816 1070 734 
Q 1422 653 1784 653 
Q 2113 653 2278 743 
Q 2444 834 2444 1013 
Q 2444 1163 2330 1236 
Q 2216 1309 1875 1350 
L 1678 1375 
Q 931 1469 631 1722 
Q 331 1975 331 2491 
Q 331 3047 712 3315 
Q 1094 3584 1881 3584 
Q 2191 3584 2531 3537 
Q 2872 3491 3272 3391 
z
" transform="scale(0.015625)"/>
    </defs>
    <use xlink:href="#DejaVuSans-Bold-4d"/>
    <use xlink:href="#DejaVuSans-Bold-65" transform="translate(99.511719 0)"/>
    <use xlink:href="#DejaVuSans-Bold-6d" transform="translate(167.333984 0)"/>
    <use xlink:href="#DejaVuSans-Bold-62" transform="translate(271.533203 0)"/>
    <use xlink:href="#DejaVuSans-Bold-65" transform="translate(343.115234 0)"/>
    <use xlink:href="#DejaVuSans-Bold-72" transform="translate(410.9375 0)"/>
    <use xlink:href="#DejaVuSans-Bold-20" transform="translate(460.253906 0)"/>
    <use xlink:href="#DejaVuSans-Bold-62" transform="translate(495.068359 0)"/>
    <use xlink:href="#DejaVuSans-Bold-65" transform="translate(566.650391 0)"/>
    <use xlink:href="#DejaVuSans-Bold-61" transform="translate(634.472656 0)"/>
    <use xlink:href="#DejaVuSans-Bold-6d" transform="translate(701.953125 0)"/>
    <use xlink:href="#DejaVuSans-Bold-20" transform="translate(806.152344 0)"/>
    <use xlink:href="#DejaVuSans-Bold-2d" transform="translate(840.966797 0)"/>
    <use xlink:href="#DejaVuSans-Bold-20" transform="translate(882.470703 0)"/>
    <use xlink:href="#DejaVuSans-Bold-49" transform="translate(917.285156 0)"/>
    <use xlink:href="#DejaVuSans-Bold-6e" transform="translate(954.492188 0)"/>
    <use xlink:href="#DejaVuSans-Bold-74" transform="translate(1025.683594 0)"/>
    <use xlink:href="#DejaVuSans-Bold-65" transform="translate(1073.486328 0)"/>
    <use xlink:href="#DejaVuSans-Bold-72" transform="translate(1141.308594 0)"/>
    <use xlink:href="#DejaVuSans-Bold-6e" transform="translate(1190.625 0)"/>
    <use xlink:href="#DejaVuSans-Bold-61" transform="translate(1261.816406 0)"/>
    <use xlink:href="#DejaVuSans-Bold-6c" transform="translate(1329.296875 0)"/>
    <use xlink:href="#DejaVuSans-Bold-20" transform="translate(1363.574219 0)"/>
    <use xlink:href="#DejaVuSans-Bold-46" transform="translate(1398.388672 0)"/>
    <use xlink:href="#DejaVuSans-Bold-6f" transform="translate(1462.699219 0)"/>
    <use xlink:href="#DejaVuSans-Bold-72" transform="translate(1531.400391 0)"/>
    <use xlink:href="#DejaVuSans-Bold-63" transform="translate(1580.716797 0)"/>
    <use xlink:href="#DejaVuSans-Bold-65" transform="translate(1639.994141 0)"/>
    <use xlink:href="#DejaVuSans-Bold-73" transform="translate(1707.816406 0)"/>
   </g>
  </g>
 </g>
 <defs>
  <clipPath id="p32bea6139c">
   <rect x="59.690625" y="44.88" width="434.835" height="248.68"/>
  </clipPath>
  <clipPath id="pe3bd681311">
   <rect x="558.585625" y="44.88" width="434.835" height="248.68"/>
  </clipPath>
  <clipPath id="p56b61ef744">
   <rect x="59.690625" y="351.6" width="434.835" height="248.68"/>
  </clipPath>
  <clipPath id="p0148153244">
   <rect x="558.585625" y="351.6" width="434.835" height="248.68"/>
  </clipPath>
 </defs>
</svg>
