<?xml version="1.0" encoding="utf-8" standalone="no"?>
<!DOCTYPE svg PUBLIC "-//W3C//DTD SVG 1.1//EN"
  "http://www.w3.org/Graphics/SVG/1.1/DTD/svg11.dtd">
<svg xmlns:xlink="http://www.w3.org/1999/xlink" width="554.635519pt" height="567.838125pt" viewBox="0 0 554.635519 567.838125" xmlns="http://www.w3.org/2000/svg" version="1.1">
 <metadata>
  <rdf:RDF xmlns:dc="http://purl.org/dc/elements/1.1/" xmlns:cc="http://creativecommons.org/ns#" xmlns:rdf="http://www.w3.org/1999/02/22-rdf-syntax-ns#">
   <cc:Work>
    <dc:type rdf:resource="http://purl.org/dc/dcmitype/StillImage"/>
    <dc:date>2025-12-19T15:26:36.151837</dc:date>
    <dc:format>image/svg+xml</dc:format>
    <dc:creator>
     <cc:Agent>
      <dc:title>Matplotlib v3.10.7, https://matplotlib.org/</dc:title>
     </cc:Agent>
    </dc:creator>
   </cc:Work>
  </rdf:RDF>
 </metadata>
 <defs>
  <style type="text/css">*{stroke-linejoin: round; stroke-linecap: butt}</style>
 </defs>
 <g id="figure_1">
  <g id="patch_1">
   <path d="M 0 567.838125 
L 554.635519 567.838125 
L 554.635519 0 
L 0 0 
z
" style="fill: #ffffff"/>
  </g>
  <g id="patch_2">
   <path d="M 7.2 560.638125 
L 545.52 560.638125 
L 545.52 22.318125 
L 7.2 22.318125 
z
" style="fill: #ffffff"/>
  </g>
  <g id="pane3d_1">
   <g id="patch_3">
    <path d="M 47.846872 427.905665 
L 225.617717 278.894618 
L 223.146532 63.99405 
L 36.868436 199.93132 
" style="fill: #f2f2f2; opacity: 0.5; stroke: #f2f2f2; stroke-linejoin: miter"/>
   </g>
  </g>
  <g id="pane3d_2">
   <g id="patch_4">
    <path d="M 225.617717 278.894618 
L 510.876494 361.808082 
L 521.056374 139.505511 
L 223.146532 63.99405 
" style="fill: #e6e6e6; opacity: 0.5; stroke: #e6e6e6; stroke-linejoin: miter"/>
   </g>
  </g>
  <g id="pane3d_3">
   <g id="patch_5">
    <path d="M 47.846872 427.905665 
L 350.235108 526.665662 
L 510.876494 361.808082 
L 225.617717 278.894618 
" style="fill: #ececec; opacity: 0.5; stroke: #ececec; stroke-linejoin: miter"/>
   </g>
  </g>
  <g id="grid3d_1">
   <g id="Line3DCollection_1">
    <path d="M 72.439727 435.937691 
L 248.911726 285.665266 
L 247.426496 70.148313 
" style="fill: none; stroke: #b0b0b0; stroke-width: 0.8"/>
    <path d="M 112.059286 448.877439 
L 286.403592 296.562672 
L 286.522833 80.058095 
" style="fill: none; stroke: #b0b0b0; stroke-width: 0.8"/>
    <path d="M 152.242591 462.001306 
L 324.384592 307.602249 
L 326.151352 90.102769 
" style="fill: none; stroke: #b0b0b0; stroke-width: 0.8"/>
    <path d="M 193.001759 475.31325 
L 362.864362 318.786799 
L 366.322992 100.285109 
" style="fill: none; stroke: #b0b0b0; stroke-width: 0.8"/>
    <path d="M 234.349259 488.817344 
L 401.852791 330.119196 
L 407.048997 110.607964 
" style="fill: none; stroke: #b0b0b0; stroke-width: 0.8"/>
    <path d="M 276.297923 502.517777 
L 441.360032 341.602391 
L 448.340921 121.074263 
" style="fill: none; stroke: #b0b0b0; stroke-width: 0.8"/>
    <path d="M 318.860955 516.418864 
L 481.396509 353.239415 
L 490.210643 131.687017 
" style="fill: none; stroke: #b0b0b0; stroke-width: 0.8"/>
   </g>
  </g>
  <g id="grid3d_2">
   <g id="Line3DCollection_2">
    <path d="M 41.781063 196.346308 
L 52.51784 423.990367 
L 354.47418 522.315332 
" style="fill: none; stroke: #b0b0b0; stroke-width: 0.8"/>
    <path d="M 68.99552 176.486437 
L 78.410503 402.286624 
L 377.95484 498.218399 
" style="fill: none; stroke: #b0b0b0; stroke-width: 0.8"/>
    <path d="M 95.539412 157.115914 
L 103.692824 381.094481 
L 400.85285 474.719407 
" style="fill: none; stroke: #b0b0b0; stroke-width: 0.8"/>
    <path d="M 121.437219 138.216874 
L 128.386132 360.39606 
L 423.189632 451.796374 
" style="fill: none; stroke: #b0b0b0; stroke-width: 0.8"/>
    <path d="M 146.712248 119.772309 
L 152.510775 340.174306 
L 444.98557 429.42838 
" style="fill: none; stroke: #b0b0b0; stroke-width: 0.8"/>
    <path d="M 171.386697 101.76602 
L 176.086173 320.41294 
L 466.260072 407.595507 
" style="fill: none; stroke: #b0b0b0; stroke-width: 0.8"/>
    <path d="M 195.48172 84.18257 
L 199.13087 301.096418 
L 487.031628 386.278781 
" style="fill: none; stroke: #b0b0b0; stroke-width: 0.8"/>
    <path d="M 219.017489 67.007237 
L 221.662589 282.209885 
L 507.317865 365.46011 
" style="fill: none; stroke: #b0b0b0; stroke-width: 0.8"/>
   </g>
  </g>
  <g id="grid3d_3">
   <g id="Line3DCollection_3">
    <path d="M 512.125311 334.537113 
L 225.314003 252.482824 
L 46.502084 399.980254 
" style="fill: none; stroke: #b0b0b0; stroke-width: 0.8"/>
    <path d="M 513.472406 305.120003 
L 224.986563 224.007849 
L 45.050841 369.844255 
" style="fill: none; stroke: #b0b0b0; stroke-width: 0.8"/>
    <path d="M 514.835479 275.353973 
L 224.655426 195.211326 
L 43.581725 339.337122 
" style="fill: none; stroke: #b0b0b0; stroke-width: 0.8"/>
    <path d="M 516.214816 245.232776 
L 224.320529 166.087776 
L 42.094405 308.451957 
" style="fill: none; stroke: #b0b0b0; stroke-width: 0.8"/>
    <path d="M 517.61071 214.750018 
L 223.981806 136.631596 
L 40.58854 277.181689 
" style="fill: none; stroke: #b0b0b0; stroke-width: 0.8"/>
    <path d="M 519.023461 183.899149 
L 223.639193 106.837055 
L 39.06378 245.519071 
" style="fill: none; stroke: #b0b0b0; stroke-width: 0.8"/>
    <path d="M 520.453375 152.673461 
L 223.292621 76.69829 
L 37.519769 213.45667 
" style="fill: none; stroke: #b0b0b0; stroke-width: 0.8"/>
   </g>
  </g>
  <g id="axis3d_1">
   <g id="line2d_1">
    <path d="M 47.846872 427.905665 
L 350.235108 526.665662 
" style="fill: none; stroke: #000000; stroke-width: 0.8; stroke-linecap: square"/>
   </g>
   <g id="xtick_1">
    <g id="line2d_2">
     <path d="M 73.976575 434.629008 
L 69.359428 438.560679 
" style="fill: none; stroke: #000000; stroke-width: 0.8; stroke-linecap: square"/>
    </g>
    <g id="text_1">
     <!-- −0.5 -->
     <g transform="translate(52.786488 459.238737) scale(0.1 -0.1)">
      <defs>
       <path id="DejaVuSans-2212" d="M 678 2272 
L 4684 2272 
L 4684 1741 
L 678 1741 
L 678 2272 
z
" transform="scale(0.015625)"/>
       <path id="DejaVuSans-30" d="M 2034 4250 
Q 1547 4250 1301 3770 
Q 1056 3291 1056 2328 
Q 1056 1369 1301 889 
Q 1547 409 2034 409 
Q 2525 409 2770 889 
Q 3016 1369 3016 2328 
Q 3016 3291 2770 3770 
Q 2525 4250 2034 4250 
z
M 2034 4750 
Q 2819 4750 3233 4129 
Q 3647 3509 3647 2328 
Q 3647 1150 3233 529 
Q 2819 -91 2034 -91 
Q 1250 -91 836 529 
Q 422 1150 422 2328 
Q 422 3509 836 4129 
Q 1250 4750 2034 4750 
z
" transform="scale(0.015625)"/>
       <path id="DejaVuSans-2e" d="M 684 794 
L 1344 794 
L 1344 0 
L 684 0 
L 684 794 
z
" transform="scale(0.015625)"/>
       <path id="DejaVuSans-35" d="M 691 4666 
L 3169 4666 
L 3169 4134 
L 1269 4134 
L 1269 2991 
Q 1406 3038 1543 3061 
Q 1681 3084 1819 3084 
Q 2600 3084 3056 2656 
Q 3513 2228 3513 1497 
Q 3513 744 3044 326 
Q 2575 -91 1722 -91 
Q 1428 -91 1123 -41 
Q 819 9 494 109 
L 494 744 
Q 775 591 1075 516 
Q 1375 441 1709 441 
Q 2250 441 2565 725 
Q 2881 1009 2881 1497 
Q 2881 1984 2565 2268 
Q 2250 2553 1709 2553 
Q 1456 2553 1204 2497 
Q 953 2441 691 2322 
L 691 4666 
z
" transform="scale(0.015625)"/>
      </defs>
      <use xlink:href="#DejaVuSans-2212"/>
      <use xlink:href="#DejaVuSans-30" transform="translate(83.789062 0)"/>
      <use xlink:href="#DejaVuSans-2e" transform="translate(147.412109 0)"/>
      <use xlink:href="#DejaVuSans-35" transform="translate(179.199219 0)"/>
     </g>
    </g>
   </g>
   <g id="xtick_2">
    <g id="line2d_3">
     <path d="M 113.578477 447.550208 
L 109.014332 451.537643 
" style="fill: none; stroke: #000000; stroke-width: 0.8; stroke-linecap: square"/>
    </g>
    <g id="text_2">
     <!-- 0.0 -->
     <g transform="translate(96.615991 472.313544) scale(0.1 -0.1)">
      <use xlink:href="#DejaVuSans-30"/>
      <use xlink:href="#DejaVuSans-2e" transform="translate(63.623047 0)"/>
      <use xlink:href="#DejaVuSans-30" transform="translate(95.410156 0)"/>
     </g>
    </g>
   </g>
   <g id="xtick_3">
    <g id="line2d_4">
     <path d="M 153.743465 460.65513 
L 149.234303 464.699525 
" style="fill: none; stroke: #000000; stroke-width: 0.8; stroke-linecap: square"/>
    </g>
    <g id="text_3">
     <!-- 0.5 -->
     <g transform="translate(136.820733 485.57474) scale(0.1 -0.1)">
      <use xlink:href="#DejaVuSans-30"/>
      <use xlink:href="#DejaVuSans-2e" transform="translate(63.623047 0)"/>
      <use xlink:href="#DejaVuSans-35" transform="translate(95.410156 0)"/>
     </g>
    </g>
   </g>
   <g id="xtick_4">
    <g id="line2d_5">
     <path d="M 194.483634 473.94772 
L 190.031507 478.050304 
" style="fill: none; stroke: #000000; stroke-width: 0.8; stroke-linecap: square"/>
    </g>
    <g id="text_4">
     <!-- 1.0 -->
     <g transform="translate(177.602727 499.026337) scale(0.1 -0.1)">
      <defs>
       <path id="DejaVuSans-31" d="M 794 531 
L 1825 531 
L 1825 4091 
L 703 3866 
L 703 4441 
L 1819 4666 
L 2450 4666 
L 2450 531 
L 3481 531 
L 3481 0 
L 794 0 
L 794 531 
z
" transform="scale(0.015625)"/>
      </defs>
      <use xlink:href="#DejaVuSans-31"/>
      <use xlink:href="#DejaVuSans-2e" transform="translate(63.623047 0)"/>
      <use xlink:href="#DejaVuSans-30" transform="translate(95.410156 0)"/>
     </g>
    </g>
   </g>
   <g id="xtick_5">
    <g id="line2d_6">
     <path d="M 235.811428 487.432039 
L 231.418459 491.594077 
" style="fill: none; stroke: #000000; stroke-width: 0.8; stroke-linecap: square"/>
    </g>
    <g id="text_5">
     <!-- 1.5 -->
     <g transform="translate(218.974494 512.672466) scale(0.1 -0.1)">
      <use xlink:href="#DejaVuSans-31"/>
      <use xlink:href="#DejaVuSans-2e" transform="translate(63.623047 0)"/>
      <use xlink:href="#DejaVuSans-35" transform="translate(95.410156 0)"/>
     </g>
    </g>
   </g>
   <g id="xtick_6">
    <g id="line2d_7">
     <path d="M 277.739654 501.112265 
L 273.408041 505.335059 
" style="fill: none; stroke: #000000; stroke-width: 0.8; stroke-linecap: square"/>
    </g>
    <g id="text_6">
     <!-- 2.0 -->
     <g transform="translate(260.948921 526.517377) scale(0.1 -0.1)">
      <defs>
       <path id="DejaVuSans-32" d="M 1228 531 
L 3431 531 
L 3431 0 
L 469 0 
L 469 531 
Q 828 903 1448 1529 
Q 2069 2156 2228 2338 
Q 2531 2678 2651 2914 
Q 2772 3150 2772 3378 
Q 2772 3750 2511 3984 
Q 2250 4219 1831 4219 
Q 1534 4219 1204 4116 
Q 875 4013 500 3803 
L 500 4441 
Q 881 4594 1212 4672 
Q 1544 4750 1819 4750 
Q 2544 4750 2975 4387 
Q 3406 4025 3406 3419 
Q 3406 3131 3298 2873 
Q 3191 2616 2906 2266 
Q 2828 2175 2409 1742 
Q 1991 1309 1228 531 
z
" transform="scale(0.015625)"/>
      </defs>
      <use xlink:href="#DejaVuSans-32"/>
      <use xlink:href="#DejaVuSans-2e" transform="translate(63.623047 0)"/>
      <use xlink:href="#DejaVuSans-30" transform="translate(95.410156 0)"/>
     </g>
    </g>
   </g>
   <g id="xtick_7">
    <g id="line2d_8">
     <path d="M 320.281492 514.992699 
L 316.013511 519.277589 
" style="fill: none; stroke: #000000; stroke-width: 0.8; stroke-linecap: square"/>
    </g>
    <g id="text_7">
     <!-- 2.5 -->
     <g transform="translate(303.539274 540.565446) scale(0.1 -0.1)">
      <use xlink:href="#DejaVuSans-32"/>
      <use xlink:href="#DejaVuSans-2e" transform="translate(63.623047 0)"/>
      <use xlink:href="#DejaVuSans-35" transform="translate(95.410156 0)"/>
     </g>
    </g>
   </g>
   <g id="text_8">
    <!-- X -->
    <g transform="translate(175.40673 513.867762) scale(0.1 -0.1)">
     <defs>
      <path id="DejaVuSans-58" d="M 403 4666 
L 1081 4666 
L 2241 2931 
L 3406 4666 
L 4084 4666 
L 2584 2425 
L 4184 0 
L 3506 0 
L 2194 1984 
L 872 0 
L 191 0 
L 1856 2491 
L 403 4666 
z
" transform="scale(0.015625)"/>
     </defs>
     <use xlink:href="#DejaVuSans-58"/>
    </g>
   </g>
  </g>
  <g id="axis3d_2">
   <g id="line2d_9">
    <path d="M 510.876494 361.808082 
L 350.235108 526.665662 
" style="fill: none; stroke: #000000; stroke-width: 0.8; stroke-linecap: square"/>
   </g>
   <g id="xtick_8">
    <g id="line2d_10">
     <path d="M 351.929109 521.486589 
L 359.570928 523.974968 
" style="fill: none; stroke: #000000; stroke-width: 0.8; stroke-linecap: square"/>
    </g>
    <g id="text_9">
     <!-- −0.5 -->
     <g transform="translate(355.255028 543.38466) scale(0.1 -0.1)">
      <use xlink:href="#DejaVuSans-2212"/>
      <use xlink:href="#DejaVuSans-30" transform="translate(83.789062 0)"/>
      <use xlink:href="#DejaVuSans-2e" transform="translate(147.412109 0)"/>
      <use xlink:href="#DejaVuSans-35" transform="translate(179.199219 0)"/>
     </g>
    </g>
   </g>
   <g id="xtick_9">
    <g id="line2d_11">
     <path d="M 375.431711 497.410344 
L 383.007565 499.83658 
" style="fill: none; stroke: #000000; stroke-width: 0.8; stroke-linecap: square"/>
    </g>
    <g id="text_10">
     <!-- 0.0 -->
     <g transform="translate(382.770029 519.111377) scale(0.1 -0.1)">
      <use xlink:href="#DejaVuSans-30"/>
      <use xlink:href="#DejaVuSans-2e" transform="translate(63.623047 0)"/>
      <use xlink:href="#DejaVuSans-30" transform="translate(95.410156 0)"/>
     </g>
    </g>
   </g>
   <g id="xtick_10">
    <g id="line2d_12">
     <path d="M 398.351364 473.931275 
L 405.862153 476.297667 
" style="fill: none; stroke: #000000; stroke-width: 0.8; stroke-linecap: square"/>
    </g>
    <g id="text_11">
     <!-- 0.5 -->
     <g transform="translate(405.516229 495.440586) scale(0.1 -0.1)">
      <use xlink:href="#DejaVuSans-30"/>
      <use xlink:href="#DejaVuSans-2e" transform="translate(63.623047 0)"/>
      <use xlink:href="#DejaVuSans-35" transform="translate(95.410156 0)"/>
     </g>
    </g>
   </g>
   <g id="xtick_11">
    <g id="line2d_13">
     <path d="M 420.709493 451.027436 
L 428.156111 453.336171 
" style="fill: none; stroke: #000000; stroke-width: 0.8; stroke-linecap: square"/>
    </g>
    <g id="text_12">
     <!-- 1.0 -->
     <g transform="translate(427.704761 472.350131) scale(0.1 -0.1)">
      <use xlink:href="#DejaVuSans-31"/>
      <use xlink:href="#DejaVuSans-2e" transform="translate(63.623047 0)"/>
      <use xlink:href="#DejaVuSans-30" transform="translate(95.410156 0)"/>
     </g>
    </g>
   </g>
   <g id="xtick_12">
    <g id="line2d_14">
     <path d="M 442.526483 428.677944 
L 449.909817 430.931104 
" style="fill: none; stroke: #000000; stroke-width: 0.8; stroke-linecap: square"/>
    </g>
    <g id="text_13">
     <!-- 1.5 -->
     <g transform="translate(449.355887 449.818926) scale(0.1 -0.1)">
      <use xlink:href="#DejaVuSans-31"/>
      <use xlink:href="#DejaVuSans-2e" transform="translate(63.623047 0)"/>
      <use xlink:href="#DejaVuSans-35" transform="translate(95.410156 0)"/>
     </g>
    </g>
   </g>
   <g id="xtick_13">
    <g id="line2d_15">
     <path d="M 463.821746 406.862914 
L 471.142674 409.062482 
" style="fill: none; stroke: #000000; stroke-width: 0.8; stroke-linecap: square"/>
    </g>
    <g id="text_14">
     <!-- 2.0 -->
     <g transform="translate(470.488896 427.826898) scale(0.1 -0.1)">
      <use xlink:href="#DejaVuSans-32"/>
      <use xlink:href="#DejaVuSans-2e" transform="translate(63.623047 0)"/>
      <use xlink:href="#DejaVuSans-30" transform="translate(95.410156 0)"/>
     </g>
    </g>
   </g>
   <g id="xtick_14">
    <g id="line2d_16">
     <path d="M 484.613774 385.5634 
L 491.873167 387.711266 
" style="fill: none; stroke: #000000; stroke-width: 0.8; stroke-linecap: square"/>
    </g>
    <g id="text_15">
     <!-- 2.5 -->
     <g transform="translate(491.122168 406.354922) scale(0.1 -0.1)">
      <use xlink:href="#DejaVuSans-32"/>
      <use xlink:href="#DejaVuSans-2e" transform="translate(63.623047 0)"/>
      <use xlink:href="#DejaVuSans-35" transform="translate(95.410156 0)"/>
     </g>
    </g>
   </g>
   <g id="xtick_15">
    <g id="line2d_17">
     <path d="M 504.920198 364.761344 
L 512.118915 366.859309 
" style="fill: none; stroke: #000000; stroke-width: 0.8; stroke-linecap: square"/>
    </g>
    <g id="text_16">
     <!-- 3.0 -->
     <g transform="translate(511.27322 385.384767) scale(0.1 -0.1)">
      <defs>
       <path id="DejaVuSans-33" d="M 2597 2516 
Q 3050 2419 3304 2112 
Q 3559 1806 3559 1356 
Q 3559 666 3084 287 
Q 2609 -91 1734 -91 
Q 1441 -91 1130 -33 
Q 819 25 488 141 
L 488 750 
Q 750 597 1062 519 
Q 1375 441 1716 441 
Q 2309 441 2620 675 
Q 2931 909 2931 1356 
Q 2931 1769 2642 2001 
Q 2353 2234 1838 2234 
L 1294 2234 
L 1294 2753 
L 1863 2753 
Q 2328 2753 2575 2939 
Q 2822 3125 2822 3475 
Q 2822 3834 2567 4026 
Q 2313 4219 1838 4219 
Q 1578 4219 1281 4162 
Q 984 4106 628 3988 
L 628 4550 
Q 988 4650 1302 4700 
Q 1616 4750 1894 4750 
Q 2613 4750 3031 4423 
Q 3450 4097 3450 3541 
Q 3450 3153 3228 2886 
Q 3006 2619 2597 2516 
z
" transform="scale(0.015625)"/>
      </defs>
      <use xlink:href="#DejaVuSans-33"/>
      <use xlink:href="#DejaVuSans-2e" transform="translate(63.623047 0)"/>
      <use xlink:href="#DejaVuSans-30" transform="translate(95.410156 0)"/>
     </g>
    </g>
   </g>
   <g id="text_17">
    <!-- Y -->
    <g transform="translate(458.052242 471.298196) scale(0.1 -0.1)">
     <defs>
      <path id="DejaVuSans-59" d="M -13 4666 
L 666 4666 
L 1959 2747 
L 3244 4666 
L 3922 4666 
L 2272 2222 
L 2272 0 
L 1638 0 
L 1638 2222 
L -13 4666 
z
" transform="scale(0.015625)"/>
     </defs>
     <use xlink:href="#DejaVuSans-59"/>
    </g>
   </g>
  </g>
  <g id="axis3d_3">
   <g id="line2d_18">
    <path d="M 510.876494 361.808082 
L 521.056374 139.505511 
" style="fill: none; stroke: #000000; stroke-width: 0.8; stroke-linecap: square"/>
   </g>
   <g id="xtick_16">
    <g id="line2d_19">
     <path d="M 509.717555 333.848274 
L 516.94658 335.916437 
" style="fill: none; stroke: #000000; stroke-width: 0.8; stroke-linecap: square"/>
    </g>
    <g id="text_18">
     <!-- 0.0 -->
     <g transform="translate(522.548521 339.552984) scale(0.1 -0.1)">
      <use xlink:href="#DejaVuSans-30"/>
      <use xlink:href="#DejaVuSans-2e" transform="translate(63.623047 0)"/>
      <use xlink:href="#DejaVuSans-30" transform="translate(95.410156 0)"/>
     </g>
    </g>
   </g>
   <g id="xtick_17">
    <g id="line2d_20">
     <path d="M 511.049921 304.438885 
L 518.323202 306.483878 
" style="fill: none; stroke: #000000; stroke-width: 0.8; stroke-linecap: square"/>
    </g>
    <g id="text_19">
     <!-- 0.5 -->
     <g transform="translate(524.001761 310.164836) scale(0.1 -0.1)">
      <use xlink:href="#DejaVuSans-30"/>
      <use xlink:href="#DejaVuSans-2e" transform="translate(63.623047 0)"/>
      <use xlink:href="#DejaVuSans-35" transform="translate(95.410156 0)"/>
     </g>
    </g>
   </g>
   <g id="xtick_18">
    <g id="line2d_21">
     <path d="M 512.398084 274.680807 
L 519.716166 276.701933 
" style="fill: none; stroke: #000000; stroke-width: 0.8; stroke-linecap: square"/>
    </g>
    <g id="text_20">
     <!-- 1.0 -->
     <g transform="translate(525.472213 280.428637) scale(0.1 -0.1)">
      <use xlink:href="#DejaVuSans-31"/>
      <use xlink:href="#DejaVuSans-2e" transform="translate(63.623047 0)"/>
      <use xlink:href="#DejaVuSans-30" transform="translate(95.410156 0)"/>
     </g>
    </g>
   </g>
   <g id="xtick_19">
    <g id="line2d_22">
     <path d="M 513.762326 244.567801 
L 521.125764 246.564344 
" style="fill: none; stroke: #000000; stroke-width: 0.8; stroke-linecap: square"/>
    </g>
    <g id="text_21">
     <!-- 1.5 -->
     <g transform="translate(526.960183 250.338166) scale(0.1 -0.1)">
      <use xlink:href="#DejaVuSans-31"/>
      <use xlink:href="#DejaVuSans-2e" transform="translate(63.623047 0)"/>
      <use xlink:href="#DejaVuSans-35" transform="translate(95.410156 0)"/>
     </g>
    </g>
   </g>
   <g id="xtick_20">
    <g id="line2d_23">
     <path d="M 515.142938 214.09348 
L 522.552296 216.064701 
" style="fill: none; stroke: #000000; stroke-width: 0.8; stroke-linecap: square"/>
    </g>
    <g id="text_22">
     <!-- 2.0 -->
     <g transform="translate(528.465987 219.887055) scale(0.1 -0.1)">
      <use xlink:href="#DejaVuSans-32"/>
      <use xlink:href="#DejaVuSans-2e" transform="translate(63.623047 0)"/>
      <use xlink:href="#DejaVuSans-30" transform="translate(95.410156 0)"/>
     </g>
    </g>
   </g>
   <g id="xtick_21">
    <g id="line2d_24">
     <path d="M 516.540215 183.251301 
L 523.996069 185.196441 
" style="fill: none; stroke: #000000; stroke-width: 0.8; stroke-linecap: square"/>
    </g>
    <g id="text_23">
     <!-- 2.5 -->
     <g transform="translate(529.989947 189.068781) scale(0.1 -0.1)">
      <use xlink:href="#DejaVuSans-32"/>
      <use xlink:href="#DejaVuSans-2e" transform="translate(63.623047 0)"/>
      <use xlink:href="#DejaVuSans-35" transform="translate(95.410156 0)"/>
     </g>
    </g>
   </g>
   <g id="xtick_22">
    <g id="line2d_25">
     <path d="M 517.954462 152.034563 
L 525.457397 153.952841 
" style="fill: none; stroke: #000000; stroke-width: 0.8; stroke-linecap: square"/>
    </g>
    <g id="text_24">
     <!-- 3.0 -->
     <g transform="translate(531.532394 157.876663) scale(0.1 -0.1)">
      <use xlink:href="#DejaVuSans-33"/>
      <use xlink:href="#DejaVuSans-2e" transform="translate(63.623047 0)"/>
      <use xlink:href="#DejaVuSans-30" transform="translate(95.410156 0)"/>
     </g>
    </g>
   </g>
   <g id="text_25">
    <!-- Z -->
    <g transform="translate(552.941673 250.423735) scale(0.1 -0.1)">
     <defs>
      <path id="DejaVuSans-5a" d="M 359 4666 
L 4025 4666 
L 4025 4184 
L 1075 531 
L 4097 531 
L 4097 0 
L 288 0 
L 288 481 
L 3238 4134 
L 359 4134 
L 359 4666 
z
" transform="scale(0.015625)"/>
     </defs>
     <use xlink:href="#DejaVuSans-5a"/>
    </g>
   </g>
  </g>
  <g id="axes_1">
   <g id="line2d_26">
    <path d="M 151.209594 397.936046 
L 188.306458 365.826241 
" clip-path="url(#pc4f9b612c5)" style="fill: none; stroke: #000000; stroke-width: 2; stroke-linecap: square"/>
   </g>
   <g id="line2d_27">
    <path d="M 188.306458 365.826241 
L 235.75109 324.759755 
" clip-path="url(#pc4f9b612c5)" style="fill: none; stroke: #000000; stroke-width: 2; stroke-linecap: square"/>
   </g>
   <g id="line2d_28">
    <path d="M 235.75109 324.759755 
L 269.907858 295.1948 
" clip-path="url(#pc4f9b612c5)" style="fill: none; stroke: #000000; stroke-width: 2; stroke-linecap: square"/>
   </g>
   <g id="line2d_29">
    <path d="M 298.572628 444.413552 
L 333.908003 410.633855 
" clip-path="url(#pc4f9b612c5)" style="fill: none; stroke: #000000; stroke-width: 2; stroke-linecap: square"/>
   </g>
   <g id="line2d_30">
    <path d="M 333.908003 410.633855 
L 379.052076 367.477298 
" clip-path="url(#pc4f9b612c5)" style="fill: none; stroke: #000000; stroke-width: 2; stroke-linecap: square"/>
   </g>
   <g id="line2d_31">
    <path d="M 379.052076 367.477298 
L 411.519494 336.439294 
" clip-path="url(#pc4f9b612c5)" style="fill: none; stroke: #000000; stroke-width: 2; stroke-linecap: square"/>
   </g>
   <g id="line2d_32">
    <path d="M 188.306458 365.826241 
L 226.02291 377.433153 
" clip-path="url(#pc4f9b612c5)" style="fill: none; stroke: #000000; stroke-width: 2; stroke-linecap: square"/>
   </g>
   <g id="line2d_33">
    <path d="M 226.02291 377.433153 
L 294.770769 398.589711 
" clip-path="url(#pc4f9b612c5)" style="fill: none; stroke: #000000; stroke-width: 2; stroke-linecap: square"/>
   </g>
   <g id="line2d_34">
    <path d="M 294.770769 398.589711 
L 333.908003 410.633855 
" clip-path="url(#pc4f9b612c5)" style="fill: none; stroke: #000000; stroke-width: 2; stroke-linecap: square"/>
   </g>
   <g id="line2d_35">
    <path d="M 235.75109 324.759755 
L 272.887914 335.830118 
" clip-path="url(#pc4f9b612c5)" style="fill: none; stroke: #000000; stroke-width: 2; stroke-linecap: square"/>
   </g>
   <g id="line2d_36">
    <path d="M 272.887914 335.830118 
L 340.549919 355.999935 
" clip-path="url(#pc4f9b612c5)" style="fill: none; stroke: #000000; stroke-width: 2; stroke-linecap: square"/>
   </g>
   <g id="line2d_37">
    <path d="M 340.549919 355.999935 
L 379.052076 367.477298 
" clip-path="url(#pc4f9b612c5)" style="fill: none; stroke: #000000; stroke-width: 2; stroke-linecap: square"/>
   </g>
   <g id="line2d_38">
    <path d="M 226.02291 377.433153 
L 225.814537 359.54145 
" clip-path="url(#pc4f9b612c5)" style="fill: none; stroke: #000000; stroke-width: 2; stroke-linecap: square"/>
   </g>
   <g id="line2d_39">
    <path d="M 225.814537 359.54145 
L 225.410912 324.884739 
" clip-path="url(#pc4f9b612c5)" style="fill: none; stroke: #000000; stroke-width: 2; stroke-linecap: square"/>
   </g>
   <g id="line2d_40">
    <path d="M 225.410912 324.884739 
L 224.767715 269.65735 
" clip-path="url(#pc4f9b612c5)" style="fill: none; stroke: #000000; stroke-width: 2; stroke-linecap: square"/>
   </g>
   <g id="line2d_41">
    <path d="M 272.887914 335.830118 
L 272.84996 318.21274 
" clip-path="url(#pc4f9b612c5)" style="fill: none; stroke: #000000; stroke-width: 2; stroke-linecap: square"/>
   </g>
   <g id="line2d_42">
    <path d="M 272.84996 318.21274 
L 272.776461 284.095905 
" clip-path="url(#pc4f9b612c5)" style="fill: none; stroke: #000000; stroke-width: 2; stroke-linecap: square"/>
   </g>
   <g id="line2d_43">
    <path d="M 272.776461 284.095905 
L 272.659385 229.752006 
" clip-path="url(#pc4f9b612c5)" style="fill: none; stroke: #000000; stroke-width: 2; stroke-linecap: square"/>
   </g>
   <g id="line2d_44">
    <path d="M 294.770769 398.589711 
L 294.81153 380.561196 
" clip-path="url(#pc4f9b612c5)" style="fill: none; stroke: #000000; stroke-width: 2; stroke-linecap: square"/>
   </g>
   <g id="line2d_45">
    <path d="M 294.81153 380.561196 
L 294.890493 345.635047 
" clip-path="url(#pc4f9b612c5)" style="fill: none; stroke: #000000; stroke-width: 2; stroke-linecap: square"/>
   </g>
   <g id="line2d_46">
    <path d="M 294.890493 345.635047 
L 295.016354 289.966227 
" clip-path="url(#pc4f9b612c5)" style="fill: none; stroke: #000000; stroke-width: 2; stroke-linecap: square"/>
   </g>
   <g id="line2d_47">
    <path d="M 340.549919 355.999935 
L 340.753276 338.248684 
" clip-path="url(#pc4f9b612c5)" style="fill: none; stroke: #000000; stroke-width: 2; stroke-linecap: square"/>
   </g>
   <g id="line2d_48">
    <path d="M 340.753276 338.248684 
L 341.147135 303.868445 
" clip-path="url(#pc4f9b612c5)" style="fill: none; stroke: #000000; stroke-width: 2; stroke-linecap: square"/>
   </g>
   <g id="line2d_49">
    <path d="M 341.147135 303.868445 
L 341.774632 249.093661 
" clip-path="url(#pc4f9b612c5)" style="fill: none; stroke: #000000; stroke-width: 2; stroke-linecap: square"/>
   </g>
   <g id="line2d_50">
    <path d="M 225.814537 359.54145 
L 272.84996 318.21274 
" clip-path="url(#pc4f9b612c5)" style="fill: none; stroke: #000000; stroke-width: 2; stroke-linecap: square"/>
   </g>
   <g id="line2d_51">
    <path d="M 294.81153 380.561196 
L 340.753276 338.248684 
" clip-path="url(#pc4f9b612c5)" style="fill: none; stroke: #000000; stroke-width: 2; stroke-linecap: square"/>
   </g>
   <g id="line2d_52">
    <path d="M 224.767715 269.65735 
L 283.634595 184.071339 
" clip-path="url(#pc4f9b612c5)" style="fill: none; stroke: #000000; stroke-width: 2; stroke-linecap: square"/>
   </g>
   <g id="line2d_53">
    <path d="M 272.659385 229.752006 
L 283.634595 184.071339 
" clip-path="url(#pc4f9b612c5)" style="fill: none; stroke: #000000; stroke-width: 2; stroke-linecap: square"/>
   </g>
   <g id="line2d_54">
    <path d="M 295.016354 289.966227 
L 283.634595 184.071339 
" clip-path="url(#pc4f9b612c5)" style="fill: none; stroke: #000000; stroke-width: 2; stroke-linecap: square"/>
   </g>
   <g id="line2d_55">
    <path d="M 341.774632 249.093661 
L 283.634595 184.071339 
" clip-path="url(#pc4f9b612c5)" style="fill: none; stroke: #000000; stroke-width: 2; stroke-linecap: square"/>
   </g>
   <g id="Path3DCollection_1">
    <defs>
     <path id="m8af5e8ab09" d="M 0 4.472136 
C 1.186024 4.472136 2.323632 4.000923 3.162278 3.162278 
C 4.000923 2.323632 4.472136 1.186024 4.472136 0 
C 4.472136 -1.186024 4.000923 -2.323632 3.162278 -3.162278 
C 2.323632 -4.000923 1.186024 -4.472136 0 -4.472136 
C -1.186024 -4.472136 -2.323632 -4.000923 -3.162278 -3.162278 
C -4.000923 -2.323632 -4.472136 -1.186024 -4.472136 0 
C -4.472136 1.186024 -4.000923 2.323632 -3.162278 3.162278 
C -2.323632 4.000923 -1.186024 4.472136 0 4.472136 
z
" style="stroke: #ff0000"/>
    </defs>
    <g clip-path="url(#pc4f9b612c5)">
     <use xlink:href="#m8af5e8ab09" x="269.907858" y="295.1948" style="fill: #ff0000; stroke: #ff0000"/>
    </g>
   </g>
   <g id="text_26">
    <!--   110000 -->
    <g style="fill: #ff0000" transform="translate(151.209594 397.936046) scale(0.09 -0.09)">
     <defs>
      <path id="DejaVuSans-Bold-20" transform="scale(0.015625)"/>
      <path id="DejaVuSans-Bold-31" d="M 750 831 
L 1813 831 
L 1813 3847 
L 722 3622 
L 722 4441 
L 1806 4666 
L 2950 4666 
L 2950 831 
L 4013 831 
L 4013 0 
L 750 0 
L 750 831 
z
" transform="scale(0.015625)"/>
      <path id="DejaVuSans-Bold-30" d="M 2944 2338 
Q 2944 3213 2780 3570 
Q 2616 3928 2228 3928 
Q 1841 3928 1675 3570 
Q 1509 3213 1509 2338 
Q 1509 1453 1675 1090 
Q 1841 728 2228 728 
Q 2613 728 2778 1090 
Q 2944 1453 2944 2338 
z
M 4147 2328 
Q 4147 1169 3647 539 
Q 3147 -91 2228 -91 
Q 1306 -91 806 539 
Q 306 1169 306 2328 
Q 306 3491 806 4120 
Q 1306 4750 2228 4750 
Q 3147 4750 3647 4120 
Q 4147 3491 4147 2328 
z
" transform="scale(0.015625)"/>
     </defs>
     <use xlink:href="#DejaVuSans-Bold-20"/>
     <use xlink:href="#DejaVuSans-Bold-20" transform="translate(34.814453 0)"/>
     <use xlink:href="#DejaVuSans-Bold-31" transform="translate(69.628906 0)"/>
     <use xlink:href="#DejaVuSans-Bold-31" transform="translate(139.208984 0)"/>
     <use xlink:href="#DejaVuSans-Bold-30" transform="translate(208.789062 0)"/>
     <use xlink:href="#DejaVuSans-Bold-30" transform="translate(278.369141 0)"/>
     <use xlink:href="#DejaVuSans-Bold-30" transform="translate(347.949219 0)"/>
     <use xlink:href="#DejaVuSans-Bold-30" transform="translate(417.529297 0)"/>
    </g>
   </g>
   <g id="text_27">
    <!-- N1 -->
    <g style="fill: #808080" transform="translate(182.768958 365.826241) scale(0.08 -0.08)">
     <defs>
      <path id="DejaVuSans-4e" d="M 628 4666 
L 1478 4666 
L 3547 763 
L 3547 4666 
L 4159 4666 
L 4159 0 
L 3309 0 
L 1241 3903 
L 1241 0 
L 628 0 
L 628 4666 
z
" transform="scale(0.015625)"/>
     </defs>
     <use xlink:href="#DejaVuSans-4e"/>
     <use xlink:href="#DejaVuSans-31" transform="translate(74.804688 0)"/>
    </g>
   </g>
   <g id="text_28">
    <!-- N2 -->
    <g style="fill: #808080" transform="translate(230.21359 324.759755) scale(0.08 -0.08)">
     <use xlink:href="#DejaVuSans-4e"/>
     <use xlink:href="#DejaVuSans-32" transform="translate(74.804688 0)"/>
    </g>
   </g>
   <g id="text_29">
    <!--   110000 -->
    <g style="fill: #ff0000" transform="translate(269.907858 295.1948) scale(0.09 -0.09)">
     <use xlink:href="#DejaVuSans-Bold-20"/>
     <use xlink:href="#DejaVuSans-Bold-20" transform="translate(34.814453 0)"/>
     <use xlink:href="#DejaVuSans-Bold-31" transform="translate(69.628906 0)"/>
     <use xlink:href="#DejaVuSans-Bold-31" transform="translate(139.208984 0)"/>
     <use xlink:href="#DejaVuSans-Bold-30" transform="translate(208.789062 0)"/>
     <use xlink:href="#DejaVuSans-Bold-30" transform="translate(278.369141 0)"/>
     <use xlink:href="#DejaVuSans-Bold-30" transform="translate(347.949219 0)"/>
     <use xlink:href="#DejaVuSans-Bold-30" transform="translate(417.529297 0)"/>
    </g>
   </g>
   <g id="text_30">
    <!--   110000 -->
    <g style="fill: #ff0000" transform="translate(298.572628 444.413552) scale(0.09 -0.09)">
     <use xlink:href="#DejaVuSans-Bold-20"/>
     <use xlink:href="#DejaVuSans-Bold-20" transform="translate(34.814453 0)"/>
     <use xlink:href="#DejaVuSans-Bold-31" transform="translate(69.628906 0)"/>
     <use xlink:href="#DejaVuSans-Bold-31" transform="translate(139.208984 0)"/>
     <use xlink:href="#DejaVuSans-Bold-30" transform="translate(208.789062 0)"/>
     <use xlink:href="#DejaVuSans-Bold-30" transform="translate(278.369141 0)"/>
     <use xlink:href="#DejaVuSans-Bold-30" transform="translate(347.949219 0)"/>
     <use xlink:href="#DejaVuSans-Bold-30" transform="translate(417.529297 0)"/>
    </g>
   </g>
   <g id="text_31">
    <!-- N5 -->
    <g style="fill: #808080" transform="translate(328.370503 410.633855) scale(0.08 -0.08)">
     <use xlink:href="#DejaVuSans-4e"/>
     <use xlink:href="#DejaVuSans-35" transform="translate(74.804688 0)"/>
    </g>
   </g>
   <g id="text_32">
    <!-- N6 -->
    <g style="fill: #808080" transform="translate(373.514576 367.477298) scale(0.08 -0.08)">
     <defs>
      <path id="DejaVuSans-36" d="M 2113 2584 
Q 1688 2584 1439 2293 
Q 1191 2003 1191 1497 
Q 1191 994 1439 701 
Q 1688 409 2113 409 
Q 2538 409 2786 701 
Q 3034 994 3034 1497 
Q 3034 2003 2786 2293 
Q 2538 2584 2113 2584 
z
M 3366 4563 
L 3366 3988 
Q 3128 4100 2886 4159 
Q 2644 4219 2406 4219 
Q 1781 4219 1451 3797 
Q 1122 3375 1075 2522 
Q 1259 2794 1537 2939 
Q 1816 3084 2150 3084 
Q 2853 3084 3261 2657 
Q 3669 2231 3669 1497 
Q 3669 778 3244 343 
Q 2819 -91 2113 -91 
Q 1303 -91 875 529 
Q 447 1150 447 2328 
Q 447 3434 972 4092 
Q 1497 4750 2381 4750 
Q 2619 4750 2861 4703 
Q 3103 4656 3366 4563 
z
" transform="scale(0.015625)"/>
     </defs>
     <use xlink:href="#DejaVuSans-4e"/>
     <use xlink:href="#DejaVuSans-36" transform="translate(74.804688 0)"/>
    </g>
   </g>
   <g id="text_33">
    <!--   110000 -->
    <g style="fill: #ff0000" transform="translate(411.519494 336.439294) scale(0.09 -0.09)">
     <use xlink:href="#DejaVuSans-Bold-20"/>
     <use xlink:href="#DejaVuSans-Bold-20" transform="translate(34.814453 0)"/>
     <use xlink:href="#DejaVuSans-Bold-31" transform="translate(69.628906 0)"/>
     <use xlink:href="#DejaVuSans-Bold-31" transform="translate(139.208984 0)"/>
     <use xlink:href="#DejaVuSans-Bold-30" transform="translate(208.789062 0)"/>
     <use xlink:href="#DejaVuSans-Bold-30" transform="translate(278.369141 0)"/>
     <use xlink:href="#DejaVuSans-Bold-30" transform="translate(347.949219 0)"/>
     <use xlink:href="#DejaVuSans-Bold-30" transform="translate(417.529297 0)"/>
    </g>
   </g>
   <g id="text_34">
    <!-- N8 -->
    <g style="fill: #808080" transform="translate(220.48541 377.433153) scale(0.08 -0.08)">
     <defs>
      <path id="DejaVuSans-38" d="M 2034 2216 
Q 1584 2216 1326 1975 
Q 1069 1734 1069 1313 
Q 1069 891 1326 650 
Q 1584 409 2034 409 
Q 2484 409 2743 651 
Q 3003 894 3003 1313 
Q 3003 1734 2745 1975 
Q 2488 2216 2034 2216 
z
M 1403 2484 
Q 997 2584 770 2862 
Q 544 3141 544 3541 
Q 544 4100 942 4425 
Q 1341 4750 2034 4750 
Q 2731 4750 3128 4425 
Q 3525 4100 3525 3541 
Q 3525 3141 3298 2862 
Q 3072 2584 2669 2484 
Q 3125 2378 3379 2068 
Q 3634 1759 3634 1313 
Q 3634 634 3220 271 
Q 2806 -91 2034 -91 
Q 1263 -91 848 271 
Q 434 634 434 1313 
Q 434 1759 690 2068 
Q 947 2378 1403 2484 
z
M 1172 3481 
Q 1172 3119 1398 2916 
Q 1625 2713 2034 2713 
Q 2441 2713 2670 2916 
Q 2900 3119 2900 3481 
Q 2900 3844 2670 4047 
Q 2441 4250 2034 4250 
Q 1625 4250 1398 4047 
Q 1172 3844 1172 3481 
z
" transform="scale(0.015625)"/>
     </defs>
     <use xlink:href="#DejaVuSans-4e"/>
     <use xlink:href="#DejaVuSans-38" transform="translate(74.804688 0)"/>
    </g>
   </g>
   <g id="text_35">
    <!-- N9 -->
    <g style="fill: #808080" transform="translate(219.127432 260.832053) scale(0.08 -0.08)">
     <defs>
      <path id="DejaVuSans-39" d="M 703 97 
L 703 672 
Q 941 559 1184 500 
Q 1428 441 1663 441 
Q 2288 441 2617 861 
Q 2947 1281 2994 2138 
Q 2813 1869 2534 1725 
Q 2256 1581 1919 1581 
Q 1219 1581 811 2004 
Q 403 2428 403 3163 
Q 403 3881 828 4315 
Q 1253 4750 1959 4750 
Q 2769 4750 3195 4129 
Q 3622 3509 3622 2328 
Q 3622 1225 3098 567 
Q 2575 -91 1691 -91 
Q 1453 -91 1209 -44 
Q 966 3 703 97 
z
M 1959 2075 
Q 2384 2075 2632 2365 
Q 2881 2656 2881 3163 
Q 2881 3666 2632 3958 
Q 2384 4250 1959 4250 
Q 1534 4250 1286 3958 
Q 1038 3666 1038 3163 
Q 1038 2656 1286 2365 
Q 1534 2075 1959 2075 
z
" transform="scale(0.015625)"/>
     </defs>
     <use xlink:href="#DejaVuSans-4e"/>
     <use xlink:href="#DejaVuSans-39" transform="translate(74.804688 0)"/>
    </g>
   </g>
   <g id="text_36">
    <!-- N10 -->
    <g style="fill: #808080" transform="translate(264.805414 335.830118) scale(0.08 -0.08)">
     <use xlink:href="#DejaVuSans-4e"/>
     <use xlink:href="#DejaVuSans-31" transform="translate(74.804688 0)"/>
     <use xlink:href="#DejaVuSans-30" transform="translate(138.427734 0)"/>
    </g>
   </g>
   <g id="text_37">
    <!-- N11 -->
    <g style="fill: #808080" transform="translate(264.558182 221.070526) scale(0.08 -0.08)">
     <use xlink:href="#DejaVuSans-4e"/>
     <use xlink:href="#DejaVuSans-31" transform="translate(74.804688 0)"/>
     <use xlink:href="#DejaVuSans-31" transform="translate(138.427734 0)"/>
    </g>
   </g>
   <g id="text_38">
    <!-- N12 -->
    <g style="fill: #808080" transform="translate(286.688269 398.589711) scale(0.08 -0.08)">
     <use xlink:href="#DejaVuSans-4e"/>
     <use xlink:href="#DejaVuSans-31" transform="translate(74.804688 0)"/>
     <use xlink:href="#DejaVuSans-32" transform="translate(138.427734 0)"/>
    </g>
   </g>
   <g id="text_39">
    <!-- N13 -->
    <g style="fill: #808080" transform="translate(286.953969 281.069015) scale(0.08 -0.08)">
     <use xlink:href="#DejaVuSans-4e"/>
     <use xlink:href="#DejaVuSans-31" transform="translate(74.804688 0)"/>
     <use xlink:href="#DejaVuSans-33" transform="translate(138.427734 0)"/>
    </g>
   </g>
   <g id="text_40">
    <!-- N14 -->
    <g style="fill: #808080" transform="translate(332.467419 355.999935) scale(0.08 -0.08)">
     <defs>
      <path id="DejaVuSans-34" d="M 2419 4116 
L 825 1625 
L 2419 1625 
L 2419 4116 
z
M 2253 4666 
L 3047 4666 
L 3047 1625 
L 3713 1625 
L 3713 1100 
L 3047 1100 
L 3047 0 
L 2419 0 
L 2419 1100 
L 313 1100 
L 313 1709 
L 2253 4666 
z
" transform="scale(0.015625)"/>
     </defs>
     <use xlink:href="#DejaVuSans-4e"/>
     <use xlink:href="#DejaVuSans-31" transform="translate(74.804688 0)"/>
     <use xlink:href="#DejaVuSans-34" transform="translate(138.427734 0)"/>
    </g>
   </g>
   <g id="text_41">
    <!-- N15 -->
    <g style="fill: #808080" transform="translate(333.792389 240.34206) scale(0.08 -0.08)">
     <use xlink:href="#DejaVuSans-4e"/>
     <use xlink:href="#DejaVuSans-31" transform="translate(74.804688 0)"/>
     <use xlink:href="#DejaVuSans-35" transform="translate(138.427734 0)"/>
    </g>
   </g>
   <g id="text_42">
    <!-- N16 -->
    <g style="fill: #808080" transform="translate(217.715302 358.104521) scale(0.08 -0.08)">
     <use xlink:href="#DejaVuSans-4e"/>
     <use xlink:href="#DejaVuSans-31" transform="translate(74.804688 0)"/>
     <use xlink:href="#DejaVuSans-36" transform="translate(138.427734 0)"/>
    </g>
   </g>
   <g id="text_43">
    <!-- N17 -->
    <g style="fill: #808080" transform="translate(264.764412 316.797972) scale(0.08 -0.08)">
     <defs>
      <path id="DejaVuSans-37" d="M 525 4666 
L 3525 4666 
L 3525 4397 
L 1831 0 
L 1172 0 
L 2766 4134 
L 525 4134 
L 525 4666 
z
" transform="scale(0.015625)"/>
     </defs>
     <use xlink:href="#DejaVuSans-4e"/>
     <use xlink:href="#DejaVuSans-31" transform="translate(74.804688 0)"/>
     <use xlink:href="#DejaVuSans-37" transform="translate(138.427734 0)"/>
    </g>
   </g>
   <g id="text_44">
    <!-- N18 -->
    <g style="fill: #808080" transform="translate(286.732303 379.113211) scale(0.08 -0.08)">
     <use xlink:href="#DejaVuSans-4e"/>
     <use xlink:href="#DejaVuSans-31" transform="translate(74.804688 0)"/>
     <use xlink:href="#DejaVuSans-38" transform="translate(138.427734 0)"/>
    </g>
   </g>
   <g id="text_45">
    <!-- N19 -->
    <g style="fill: #808080" transform="translate(332.687108 336.823102) scale(0.08 -0.08)">
     <use xlink:href="#DejaVuSans-4e"/>
     <use xlink:href="#DejaVuSans-31" transform="translate(74.804688 0)"/>
     <use xlink:href="#DejaVuSans-39" transform="translate(138.427734 0)"/>
    </g>
   </g>
   <g id="text_46">
    <!--   111111 -->
    <g style="fill: #ff0000" transform="translate(283.634595 184.071339) scale(0.09 -0.09)">
     <use xlink:href="#DejaVuSans-Bold-20"/>
     <use xlink:href="#DejaVuSans-Bold-20" transform="translate(34.814453 0)"/>
     <use xlink:href="#DejaVuSans-Bold-31" transform="translate(69.628906 0)"/>
     <use xlink:href="#DejaVuSans-Bold-31" transform="translate(139.208984 0)"/>
     <use xlink:href="#DejaVuSans-Bold-31" transform="translate(208.789062 0)"/>
     <use xlink:href="#DejaVuSans-Bold-31" transform="translate(278.369141 0)"/>
     <use xlink:href="#DejaVuSans-Bold-31" transform="translate(347.949219 0)"/>
     <use xlink:href="#DejaVuSans-Bold-31" transform="translate(417.529297 0)"/>
    </g>
   </g>
   <g id="text_47">
    <!-- N21 -->
    <g style="fill: #808080" transform="translate(217.27889 320.632595) scale(0.08 -0.08)">
     <use xlink:href="#DejaVuSans-4e"/>
     <use xlink:href="#DejaVuSans-32" transform="translate(74.804688 0)"/>
     <use xlink:href="#DejaVuSans-31" transform="translate(138.427734 0)"/>
    </g>
   </g>
   <g id="text_48">
    <!-- N22 -->
    <g style="fill: #808080" transform="translate(264.684944 279.910773) scale(0.08 -0.08)">
     <use xlink:href="#DejaVuSans-4e"/>
     <use xlink:href="#DejaVuSans-32" transform="translate(74.804688 0)"/>
     <use xlink:href="#DejaVuSans-32" transform="translate(138.427734 0)"/>
    </g>
   </g>
   <g id="text_49">
    <!-- N23 -->
    <g style="fill: #808080" transform="translate(286.817683 341.349444) scale(0.08 -0.08)">
     <use xlink:href="#DejaVuSans-4e"/>
     <use xlink:href="#DejaVuSans-32" transform="translate(74.804688 0)"/>
     <use xlink:href="#DejaVuSans-33" transform="translate(138.427734 0)"/>
    </g>
   </g>
   <g id="text_50">
    <!-- N24 -->
    <g style="fill: #808080" transform="translate(333.112954 299.650624) scale(0.08 -0.08)">
     <use xlink:href="#DejaVuSans-4e"/>
     <use xlink:href="#DejaVuSans-32" transform="translate(74.804688 0)"/>
     <use xlink:href="#DejaVuSans-34" transform="translate(138.427734 0)"/>
    </g>
   </g>
   <g id="text_51">
    <!-- Frame Geometry -->
    <g transform="translate(225.839062 16.318125) scale(0.12 -0.12)">
     <defs>
      <path id="DejaVuSans-46" d="M 628 4666 
L 3309 4666 
L 3309 4134 
L 1259 4134 
L 1259 2759 
L 3109 2759 
L 3109 2228 
L 1259 2228 
L 1259 0 
L 628 0 
L 628 4666 
z
" transform="scale(0.015625)"/>
      <path id="DejaVuSans-72" d="M 2631 2963 
Q 2534 3019 2420 3045 
Q 2306 3072 2169 3072 
Q 1681 3072 1420 2755 
Q 1159 2438 1159 1844 
L 1159 0 
L 581 0 
L 581 3500 
L 1159 3500 
L 1159 2956 
Q 1341 3275 1631 3429 
Q 1922 3584 2338 3584 
Q 2397 3584 2469 3576 
Q 2541 3569 2628 3553 
L 2631 2963 
z
" transform="scale(0.015625)"/>
      <path id="DejaVuSans-61" d="M 2194 1759 
Q 1497 1759 1228 1600 
Q 959 1441 959 1056 
Q 959 750 1161 570 
Q 1363 391 1709 391 
Q 2188 391 2477 730 
Q 2766 1069 2766 1631 
L 2766 1759 
L 2194 1759 
z
M 3341 1997 
L 3341 0 
L 2766 0 
L 2766 531 
Q 2569 213 2275 61 
Q 1981 -91 1556 -91 
Q 1019 -91 701 211 
Q 384 513 384 1019 
Q 384 1609 779 1909 
Q 1175 2209 1959 2209 
L 2766 2209 
L 2766 2266 
Q 2766 2663 2505 2880 
Q 2244 3097 1772 3097 
Q 1472 3097 1187 3025 
Q 903 2953 641 2809 
L 641 3341 
Q 956 3463 1253 3523 
Q 1550 3584 1831 3584 
Q 2591 3584 2966 3190 
Q 3341 2797 3341 1997 
z
" transform="scale(0.015625)"/>
      <path id="DejaVuSans-6d" d="M 3328 2828 
Q 3544 3216 3844 3400 
Q 4144 3584 4550 3584 
Q 5097 3584 5394 3201 
Q 5691 2819 5691 2113 
L 5691 0 
L 5113 0 
L 5113 2094 
Q 5113 2597 4934 2840 
Q 4756 3084 4391 3084 
Q 3944 3084 3684 2787 
Q 3425 2491 3425 1978 
L 3425 0 
L 2847 0 
L 2847 2094 
Q 2847 2600 2669 2842 
Q 2491 3084 2119 3084 
Q 1678 3084 1418 2786 
Q 1159 2488 1159 1978 
L 1159 0 
L 581 0 
L 581 3500 
L 1159 3500 
L 1159 2956 
Q 1356 3278 1631 3431 
Q 1906 3584 2284 3584 
Q 2666 3584 2933 3390 
Q 3200 3197 3328 2828 
z
" transform="scale(0.015625)"/>
      <path id="DejaVuSans-65" d="M 3597 1894 
L 3597 1613 
L 953 1613 
Q 991 1019 1311 708 
Q 1631 397 2203 397 
Q 2534 397 2845 478 
Q 3156 559 3463 722 
L 3463 178 
Q 3153 47 2828 -22 
Q 2503 -91 2169 -91 
Q 1331 -91 842 396 
Q 353 884 353 1716 
Q 353 2575 817 3079 
Q 1281 3584 2069 3584 
Q 2775 3584 3186 3129 
Q 3597 2675 3597 1894 
z
M 3022 2063 
Q 3016 2534 2758 2815 
Q 2500 3097 2075 3097 
Q 1594 3097 1305 2825 
Q 1016 2553 972 2059 
L 3022 2063 
z
" transform="scale(0.015625)"/>
      <path id="DejaVuSans-20" transform="scale(0.015625)"/>
      <path id="DejaVuSans-47" d="M 3809 666 
L 3809 1919 
L 2778 1919 
L 2778 2438 
L 4434 2438 
L 4434 434 
Q 4069 175 3628 42 
Q 3188 -91 2688 -91 
Q 1594 -91 976 548 
Q 359 1188 359 2328 
Q 359 3472 976 4111 
Q 1594 4750 2688 4750 
Q 3144 4750 3555 4637 
Q 3966 4525 4313 4306 
L 4313 3634 
Q 3963 3931 3569 4081 
Q 3175 4231 2741 4231 
Q 1884 4231 1454 3753 
Q 1025 3275 1025 2328 
Q 1025 1384 1454 906 
Q 1884 428 2741 428 
Q 3075 428 3337 486 
Q 3600 544 3809 666 
z
" transform="scale(0.015625)"/>
      <path id="DejaVuSans-6f" d="M 1959 3097 
Q 1497 3097 1228 2736 
Q 959 2375 959 1747 
Q 959 1119 1226 758 
Q 1494 397 1959 397 
Q 2419 397 2687 759 
Q 2956 1122 2956 1747 
Q 2956 2369 2687 2733 
Q 2419 3097 1959 3097 
z
M 1959 3584 
Q 2709 3584 3137 3096 
Q 3566 2609 3566 1747 
Q 3566 888 3137 398 
Q 2709 -91 1959 -91 
Q 1206 -91 779 398 
Q 353 888 353 1747 
Q 353 2609 779 3096 
Q 1206 3584 1959 3584 
z
" transform="scale(0.015625)"/>
      <path id="DejaVuSans-74" d="M 1172 4494 
L 1172 3500 
L 2356 3500 
L 2356 3053 
L 1172 3053 
L 1172 1153 
Q 1172 725 1289 603 
Q 1406 481 1766 481 
L 2356 481 
L 2356 0 
L 1766 0 
Q 1100 0 847 248 
Q 594 497 594 1153 
L 594 3053 
L 172 3053 
L 172 3500 
L 594 3500 
L 594 4494 
L 1172 4494 
z
" transform="scale(0.015625)"/>
      <path id="DejaVuSans-79" d="M 2059 -325 
Q 1816 -950 1584 -1140 
Q 1353 -1331 966 -1331 
L 506 -1331 
L 506 -850 
L 844 -850 
Q 1081 -850 1212 -737 
Q 1344 -625 1503 -206 
L 1606 56 
L 191 3500 
L 800 3500 
L 1894 763 
L 2988 3500 
L 3597 3500 
L 2059 -325 
z
" transform="scale(0.015625)"/>
     </defs>
     <use xlink:href="#DejaVuSans-46"/>
     <use xlink:href="#DejaVuSans-72" transform="translate(50.269531 0)"/>
     <use xlink:href="#DejaVuSans-61" transform="translate(91.382812 0)"/>
     <use xlink:href="#DejaVuSans-6d" transform="translate(152.662109 0)"/>
     <use xlink:href="#DejaVuSans-65" transform="translate(250.074219 0)"/>
     <use xlink:href="#DejaVuSans-20" transform="translate(311.597656 0)"/>
     <use xlink:href="#DejaVuSans-47" transform="translate(343.384766 0)"/>
     <use xlink:href="#DejaVuSans-65" transform="translate(420.875 0)"/>
     <use xlink:href="#DejaVuSans-6f" transform="translate(482.398438 0)"/>
     <use xlink:href="#DejaVuSans-6d" transform="translate(543.580078 0)"/>
     <use xlink:href="#DejaVuSans-65" transform="translate(640.992188 0)"/>
     <use xlink:href="#DejaVuSans-74" transform="translate(702.515625 0)"/>
     <use xlink:href="#DejaVuSans-72" transform="translate(741.724609 0)"/>
     <use xlink:href="#DejaVuSans-79" transform="translate(782.837891 0)"/>
    </g>
   </g>
   <g id="Path3DCollection_2">
    <defs>
     <path id="m8714329df3" d="M 0 3.162278 
C 0.838646 3.162278 1.643056 2.82908 2.236068 2.236068 
C 2.82908 1.643056 3.162278 0.838646 3.162278 0 
C 3.162278 -0.838646 2.82908 -1.643056 2.236068 -2.236068 
C 1.643056 -2.82908 0.838646 -3.162278 0 -3.162278 
C -0.838646 -3.162278 -1.643056 -2.82908 -2.236068 -2.236068 
C -2.82908 -1.643056 -3.162278 -0.838646 -3.162278 0 
C -3.162278 0.838646 -2.82908 1.643056 -2.236068 2.236068 
C -1.643056 2.82908 -0.838646 3.162278 0 3.162278 
z
" style="stroke: #000000"/>
    </defs>
    <g clip-path="url(#pc4f9b612c5)">
     <use xlink:href="#m8714329df3" x="235.75109" y="324.759755" style="stroke: #000000"/>
    </g>
   </g>
   <g id="Path3DCollection_3">
    <g clip-path="url(#pc4f9b612c5)">
     <use xlink:href="#m8714329df3" x="272.887914" y="335.830118" style="stroke: #000000"/>
    </g>
   </g>
   <g id="line2d_56">
    <path d="M 151.576432 411.582551 
L 153.13205 410.208614 
L 154.685443 408.836782 
L 156.236749 407.467098 
L 157.786105 406.099606 
L 159.333649 404.734347 
L 160.879517 403.371364 
L 162.423847 402.0107 
L 163.966774 400.652397 
L 165.508434 399.296497 
L 167.048963 397.94304 
L 168.588497 396.592069 
L 170.12717 395.243624 
L 171.665119 393.897747 
L 173.202477 392.554477 
L 174.739379 391.213855 
L 176.275959 389.875922 
L 177.812351 388.540717 
L 179.348688 387.208281 
L 180.885104 385.878651 
L 182.421732 384.551868 
L 183.958705 383.227971 
L 185.496155 381.906998 
L 187.034214 380.588988 
L 188.573016 379.273979 
" clip-path="url(#pc4f9b612c5)" style="fill: none; stroke-dasharray: 5.55,2.4; stroke-dashoffset: 0; stroke: #0000ff; stroke-opacity: 0.6; stroke-width: 1.5"/>
   </g>
   <g id="line2d_57">
    <path d="M 188.573016 379.273979 
L 190.623504 377.522566 
L 192.667073 375.773883 
L 194.70374 374.027925 
L 196.733522 372.284687 
L 198.756436 370.544163 
L 200.772499 368.806349 
L 202.781729 367.071239 
L 204.784141 365.338828 
L 206.779754 363.609111 
L 208.768582 361.882083 
L 210.750645 360.157738 
L 212.725957 358.436072 
L 214.694536 356.717079 
L 216.656399 355.000755 
L 218.611561 353.287093 
L 220.56004 351.57609 
L 222.501852 349.867739 
L 224.437013 348.162037 
L 226.365541 346.458977 
L 228.28745 344.758555 
L 230.202759 343.060766 
L 232.111482 341.365605 
L 234.013636 339.673067 
L 235.909237 337.983146 
" clip-path="url(#pc4f9b612c5)" style="fill: none; stroke-dasharray: 5.55,2.4; stroke-dashoffset: 0; stroke: #0000ff; stroke-opacity: 0.6; stroke-width: 1.5"/>
   </g>
   <g id="line2d_58">
    <path d="M 235.909237 337.983146 
L 237.327785 336.719168 
L 238.747228 335.458039 
L 240.167439 334.199706 
L 241.588289 332.944118 
L 243.009649 331.691221 
L 244.431393 330.440964 
L 245.85339 329.193295 
L 247.275515 327.948162 
L 248.69764 326.705515 
L 250.119638 325.465303 
L 251.541382 324.227475 
L 252.962746 322.99198 
L 254.383603 321.758768 
L 255.803827 320.52779 
L 257.223293 319.298996 
L 258.641875 318.072336 
L 260.059447 316.847762 
L 261.475884 315.625224 
L 262.891063 314.404673 
L 264.304857 313.186062 
L 265.717143 311.969342 
L 267.127796 310.754466 
L 268.536693 309.541384 
L 269.94371 308.330051 
" clip-path="url(#pc4f9b612c5)" style="fill: none; stroke-dasharray: 5.55,2.4; stroke-dashoffset: 0; stroke: #0000ff; stroke-opacity: 0.6; stroke-width: 1.5"/>
   </g>
   <g id="line2d_59">
    <path d="M 298.530178 458.280571 
L 300.036605 456.842761 
L 301.540565 455.40711 
L 303.041923 453.973575 
L 304.540547 452.542114 
L 306.036302 451.112684 
L 307.529058 449.685245 
L 309.018679 448.259753 
L 310.505035 446.836168 
L 311.987993 445.41445 
L 313.467422 443.994555 
L 314.943189 442.576446 
L 316.415163 441.16008 
L 317.883214 439.745419 
L 319.34721 438.332422 
L 320.807021 436.921049 
L 322.262516 435.511263 
L 323.713567 434.103022 
L 325.160042 432.69629 
L 326.601812 431.291027 
L 328.038749 429.887195 
L 329.470722 428.484756 
L 330.897605 427.083673 
L 332.319267 425.683908 
L 333.735581 424.285423 
" clip-path="url(#pc4f9b612c5)" style="fill: none; stroke-dasharray: 5.55,2.4; stroke-dashoffset: 0; stroke: #0000ff; stroke-opacity: 0.6; stroke-width: 1.5"/>
   </g>
   <g id="line2d_60">
    <path d="M 333.735581 424.285423 
L 335.621552 422.422554 
L 337.506705 420.564604 
L 339.391044 418.711557 
L 341.274575 416.863395 
L 343.157302 415.0201 
L 345.039231 413.181655 
L 346.920368 411.348042 
L 348.800717 409.519245 
L 350.680283 407.695246 
L 352.559071 405.876027 
L 354.437087 404.061572 
L 356.314335 402.251864 
L 358.19082 400.446886 
L 360.066548 398.646622 
L 361.941523 396.851053 
L 363.81575 395.060165 
L 365.689234 393.273939 
L 367.561981 391.492361 
L 369.433994 389.715413 
L 371.305278 387.943078 
L 373.175839 386.175342 
L 375.045682 384.412187 
L 376.91481 382.653598 
L 378.78323 380.899558 
" clip-path="url(#pc4f9b612c5)" style="fill: none; stroke-dasharray: 5.55,2.4; stroke-dashoffset: 0; stroke: #0000ff; stroke-opacity: 0.6; stroke-width: 1.5"/>
   </g>
   <g id="line2d_61">
    <path d="M 378.78323 380.899558 
L 380.180506 379.587372 
L 381.572601 378.27631 
L 382.959658 376.966406 
L 384.341822 375.657693 
L 385.719236 374.350205 
L 387.092045 373.043976 
L 388.460393 371.739038 
L 389.824421 370.435425 
L 391.184274 369.133169 
L 392.540094 367.832302 
L 393.892024 366.532858 
L 395.240205 365.234867 
L 396.584779 363.938361 
L 397.925889 362.643373 
L 399.263674 361.349933 
L 400.598277 360.058073 
L 401.929838 358.767824 
L 403.258498 357.479215 
L 404.584395 356.192278 
L 405.907671 354.907043 
L 407.228465 353.62354 
L 408.546916 352.341799 
L 409.863164 351.061849 
L 411.177346 349.78372 
" clip-path="url(#pc4f9b612c5)" style="fill: none; stroke-dasharray: 5.55,2.4; stroke-dashoffset: 0; stroke: #0000ff; stroke-opacity: 0.6; stroke-width: 1.5"/>
   </g>
   <g id="line2d_62">
    <path d="M 188.573016 379.273979 
L 190.119698 379.777439 
L 191.666133 380.282139 
L 193.212403 380.788016 
L 194.758589 381.295009 
L 196.304773 381.803057 
L 197.851035 382.312099 
L 199.397457 382.822071 
L 200.94412 383.332912 
L 202.491103 383.844561 
L 204.038488 384.356954 
L 205.586355 384.87003 
L 207.134785 385.383726 
L 208.683856 385.897979 
L 210.233649 386.412725 
L 211.784244 386.927903 
L 213.33572 387.443449 
L 214.888157 387.9593 
L 216.441634 388.475392 
L 217.99623 388.991661 
L 219.552023 389.508044 
L 221.109093 390.024476 
L 222.667518 390.540894 
L 224.227377 391.057233 
L 225.788747 391.57343 
" clip-path="url(#pc4f9b612c5)" style="fill: none; stroke-dasharray: 5.55,2.4; stroke-dashoffset: 0; stroke: #0000ff; stroke-opacity: 0.6; stroke-width: 1.5"/>
   </g>
   <g id="line2d_63">
    <path d="M 225.788747 391.57343 
L 228.586266 392.495308 
L 231.388849 393.414107 
L 234.196495 394.32982 
L 237.009206 395.242441 
L 239.826985 396.151962 
L 242.64983 397.058377 
L 245.477744 397.961679 
L 248.310729 398.861862 
L 251.148784 399.758919 
L 253.991911 400.652843 
L 256.84011 401.543628 
L 259.693384 402.431266 
L 262.551733 403.315752 
L 265.415158 404.197078 
L 268.28366 405.075238 
L 271.15724 405.950225 
L 274.035898 406.822032 
L 276.919637 407.690654 
L 279.808455 408.556082 
L 282.702356 409.418311 
L 285.601338 410.277333 
L 288.505403 411.133143 
L 291.414553 411.985733 
L 294.328786 412.835096 
" clip-path="url(#pc4f9b612c5)" style="fill: none; stroke-dasharray: 5.55,2.4; stroke-dashoffset: 0; stroke: #0000ff; stroke-opacity: 0.6; stroke-width: 1.5"/>
   </g>
   <g id="line2d_64">
    <path d="M 294.328786 412.835096 
L 295.959783 413.308801 
L 297.592289 413.782319 
L 299.226227 414.255714 
L 300.861522 414.729052 
L 302.498096 415.202398 
L 304.135872 415.675818 
L 305.774776 416.149377 
L 307.41473 416.62314 
L 309.055659 417.097174 
L 310.697487 417.571545 
L 312.340139 418.046319 
L 313.983539 418.521562 
L 315.627613 418.997341 
L 317.272285 419.473722 
L 318.917481 419.950772 
L 320.563126 420.428558 
L 322.209146 420.907147 
L 323.855467 421.386606 
L 325.502015 421.867003 
L 327.148715 422.348406 
L 328.795496 422.830881 
L 330.442282 423.314497 
L 332.089002 423.799322 
L 333.735581 424.285423 
" clip-path="url(#pc4f9b612c5)" style="fill: none; stroke-dasharray: 5.55,2.4; stroke-dashoffset: 0; stroke: #0000ff; stroke-opacity: 0.6; stroke-width: 1.5"/>
   </g>
   <g id="line2d_65">
    <path d="M 235.909237 337.983146 
L 237.453086 338.445954 
L 238.99878 338.908087 
L 240.546243 339.369616 
L 242.095398 339.830614 
L 243.646168 340.291152 
L 245.198479 340.7513 
L 246.752254 341.21113 
L 248.307417 341.670714 
L 249.863892 342.130124 
L 251.421605 342.589432 
L 252.980479 343.048709 
L 254.540439 343.508029 
L 256.101412 343.967463 
L 257.66332 344.427085 
L 259.226091 344.886966 
L 260.789649 345.347179 
L 262.35392 345.807799 
L 263.918829 346.268897 
L 265.484303 346.730547 
L 267.050268 347.192822 
L 268.616649 347.655796 
L 270.183374 348.119543 
L 271.750368 348.584136 
L 273.317558 349.049649 
" clip-path="url(#pc4f9b612c5)" style="fill: none; stroke-dasharray: 5.55,2.4; stroke-dashoffset: 0; stroke: #0000ff; stroke-opacity: 0.6; stroke-width: 1.5"/>
   </g>
   <g id="line2d_66">
    <path d="M 273.317558 349.049649 
L 276.121899 349.883819 
L 278.926641 350.718807 
L 281.731798 351.55462 
L 284.537384 352.391261 
L 287.343412 353.228737 
L 290.149894 354.067051 
L 292.956845 354.906209 
L 295.764279 355.746217 
L 298.572207 356.587078 
L 301.380644 357.428798 
L 304.189603 358.271382 
L 306.999098 359.114835 
L 309.809142 359.959163 
L 312.619749 360.80437 
L 315.430932 361.650461 
L 318.242706 362.497441 
L 321.055083 363.345317 
L 323.868078 364.194092 
L 326.681704 365.043772 
L 329.495974 365.894362 
L 332.310904 366.745868 
L 335.126506 367.598295 
L 337.942794 368.451648 
L 340.759783 369.305932 
" clip-path="url(#pc4f9b612c5)" style="fill: none; stroke-dasharray: 5.55,2.4; stroke-dashoffset: 0; stroke: #0000ff; stroke-opacity: 0.6; stroke-width: 1.5"/>
   </g>
   <g id="line2d_67">
    <path d="M 340.759783 369.305932 
L 342.334549 369.784169 
L 343.909604 370.263371 
L 345.485024 370.743464 
L 347.060882 371.224375 
L 348.637252 371.70603 
L 350.214209 372.188355 
L 351.791826 372.671276 
L 353.370177 373.154718 
L 354.949336 373.638609 
L 356.529377 374.122871 
L 358.110372 374.607432 
L 359.692394 375.092216 
L 361.275517 375.577148 
L 362.859814 376.062153 
L 364.445357 376.547156 
L 366.032218 377.032081 
L 367.620471 377.516852 
L 369.210186 378.001393 
L 370.801437 378.485629 
L 372.394295 378.969484 
L 373.988832 379.452881 
L 375.585119 379.935743 
L 377.183228 380.417994 
L 378.78323 380.899558 
" clip-path="url(#pc4f9b612c5)" style="fill: none; stroke-dasharray: 5.55,2.4; stroke-dashoffset: 0; stroke: #0000ff; stroke-opacity: 0.6; stroke-width: 1.5"/>
   </g>
   <g id="line2d_68">
    <path d="M 225.788747 391.57343 
L 225.807255 390.824237 
L 225.827137 390.075214 
L 225.848415 389.32633 
L 225.871109 388.577555 
L 225.895241 387.828859 
L 225.920832 387.080211 
L 225.947903 386.331582 
L 225.976475 385.582942 
L 226.00657 384.83426 
L 226.038209 384.085507 
L 226.071413 383.336653 
L 226.106204 382.587668 
L 226.142602 381.838521 
L 226.180629 381.089184 
L 226.220306 380.339627 
L 226.261655 379.589818 
L 226.304697 378.83973 
L 226.349453 378.089332 
L 226.395945 377.338595 
L 226.444193 376.587488 
L 226.49422 375.835982 
L 226.546046 375.084049 
L 226.599693 374.331657 
L 226.655183 373.578779 
" clip-path="url(#pc4f9b612c5)" style="fill: none; stroke-dasharray: 5.55,2.4; stroke-dashoffset: 0; stroke: #0000ff; stroke-opacity: 0.6; stroke-width: 1.5"/>
   </g>
   <g id="line2d_69">
    <path d="M 226.655183 373.578779 
L 226.766722 372.13433 
L 226.885 370.688005 
L 227.009906 369.239826 
L 227.141332 367.789816 
L 227.279169 366.337997 
L 227.423307 364.884391 
L 227.573637 363.429021 
L 227.730049 361.971909 
L 227.892433 360.513076 
L 228.06068 359.052545 
L 228.234679 357.590338 
L 228.414321 356.126476 
L 228.599495 354.660983 
L 228.79009 353.19388 
L 228.985997 351.725188 
L 229.187104 350.254929 
L 229.3933 348.783127 
L 229.604476 347.309801 
L 229.820519 345.834974 
L 230.041319 344.358667 
L 230.266765 342.880903 
L 230.496744 341.401702 
L 230.731146 339.921086 
L 230.969859 338.439078 
" clip-path="url(#pc4f9b612c5)" style="fill: none; stroke-dasharray: 5.55,2.4; stroke-dashoffset: 0; stroke: #0000ff; stroke-opacity: 0.6; stroke-width: 1.5"/>
   </g>
   <g id="line2d_70">
    <path d="M 230.969859 338.439078 
L 231.35218 336.115573 
L 231.744968 333.78826 
L 232.147794 331.457222 
L 232.560229 329.122541 
L 232.98184 326.784301 
L 233.412197 324.442582 
L 233.850868 322.097469 
L 234.29742 319.749041 
L 234.751419 317.397382 
L 235.212431 315.042572 
L 235.680021 312.684691 
L 236.153754 310.323821 
L 236.633194 307.960042 
L 237.117904 305.593434 
L 237.607446 303.224077 
L 238.101382 300.85205 
L 238.599274 298.477432 
L 239.100682 296.100302 
L 239.605166 293.720739 
L 240.112286 291.338821 
L 240.6216 288.954625 
L 241.132666 286.568229 
L 241.645042 284.179711 
L 242.158284 281.789147 
" clip-path="url(#pc4f9b612c5)" style="fill: none; stroke-dasharray: 5.55,2.4; stroke-dashoffset: 0; stroke: #0000ff; stroke-opacity: 0.6; stroke-width: 1.5"/>
   </g>
   <g id="line2d_71">
    <path d="M 273.317558 349.049649 
L 273.312926 348.338582 
L 273.309577 347.627716 
L 273.307474 346.917073 
L 273.306579 346.206676 
L 273.306855 345.496546 
L 273.308265 344.786707 
L 273.310771 344.077179 
L 273.314336 343.367987 
L 273.318922 342.659151 
L 273.324491 341.950694 
L 273.331007 341.242638 
L 273.338432 340.535006 
L 273.346728 339.827819 
L 273.355857 339.121099 
L 273.365782 338.41487 
L 273.376465 337.709152 
L 273.387869 337.003968 
L 273.399955 336.299339 
L 273.412687 335.595289 
L 273.426027 334.891838 
L 273.439936 334.189009 
L 273.454377 333.486824 
L 273.469312 332.785304 
L 273.484703 332.084472 
" clip-path="url(#pc4f9b612c5)" style="fill: none; stroke-dasharray: 5.55,2.4; stroke-dashoffset: 0; stroke: #0000ff; stroke-opacity: 0.6; stroke-width: 1.5"/>
   </g>
   <g id="line2d_72">
    <path d="M 273.484703 332.084472 
L 273.515382 330.743175 
L 273.54758 329.404419 
L 273.581276 328.068139 
L 273.616452 326.73427 
L 273.653089 325.402748 
L 273.691167 324.073508 
L 273.730667 322.746485 
L 273.77157 321.421616 
L 273.813856 320.098835 
L 273.857507 318.778079 
L 273.902503 317.459285 
L 273.948824 316.142387 
L 273.996451 314.827323 
L 274.045365 313.514028 
L 274.095547 312.20244 
L 274.146976 310.892495 
L 274.199634 309.58413 
L 274.253501 308.27728 
L 274.308557 306.971885 
L 274.364784 305.667879 
L 274.422161 304.365202 
L 274.480668 303.063789 
L 274.540288 301.763578 
L 274.600998 300.464506 
" clip-path="url(#pc4f9b612c5)" style="fill: none; stroke-dasharray: 5.55,2.4; stroke-dashoffset: 0; stroke: #0000ff; stroke-opacity: 0.6; stroke-width: 1.5"/>
   </g>
   <g id="line2d_73">
    <path d="M 274.600998 300.464506 
L 274.697876 298.432754 
L 274.796721 296.403905 
L 274.897457 294.377721 
L 275.000008 292.353964 
L 275.104296 290.332393 
L 275.210244 288.312773 
L 275.317774 286.294866 
L 275.42681 284.278435 
L 275.537273 282.263244 
L 275.649084 280.249059 
L 275.762167 278.235644 
L 275.876442 276.222764 
L 275.991831 274.210186 
L 276.108254 272.197678 
L 276.225632 270.185004 
L 276.343886 268.171935 
L 276.462936 266.158237 
L 276.582702 264.14368 
L 276.703103 262.128034 
L 276.82406 260.111067 
L 276.945492 258.09255 
L 277.067317 256.072254 
L 277.189454 254.049951 
L 277.311822 252.025412 
" clip-path="url(#pc4f9b612c5)" style="fill: none; stroke-dasharray: 5.55,2.4; stroke-dashoffset: 0; stroke: #0000ff; stroke-opacity: 0.6; stroke-width: 1.5"/>
   </g>
   <g id="line2d_74">
    <path d="M 294.328786 412.835096 
L 294.333438 412.072627 
L 294.336753 411.309488 
L 294.338772 410.545654 
L 294.339532 409.781102 
L 294.339073 409.015808 
L 294.337431 408.249748 
L 294.334647 407.482896 
L 294.330759 406.71523 
L 294.325805 405.946726 
L 294.319824 405.177359 
L 294.312855 404.407105 
L 294.304937 403.635941 
L 294.296107 402.863842 
L 294.286405 402.090785 
L 294.27587 401.316747 
L 294.264541 400.541702 
L 294.252456 399.765628 
L 294.239654 398.9885 
L 294.226174 398.210296 
L 294.212055 397.43099 
L 294.197335 396.650561 
L 294.182055 395.868983 
L 294.166252 395.086235 
L 294.149966 394.302291 
" clip-path="url(#pc4f9b612c5)" style="fill: none; stroke-dasharray: 5.55,2.4; stroke-dashoffset: 0; stroke: #0000ff; stroke-opacity: 0.6; stroke-width: 1.5"/>
   </g>
   <g id="line2d_75">
    <path d="M 294.149966 394.302291 
L 294.1175 392.796345 
L 294.083424 391.285992 
L 294.047758 389.771303 
L 294.010524 388.252347 
L 293.971743 386.729193 
L 293.931437 385.201912 
L 293.889627 383.670571 
L 293.846335 382.135241 
L 293.801582 380.59599 
L 293.75539 379.052888 
L 293.707781 377.506003 
L 293.658775 375.955405 
L 293.608395 374.401161 
L 293.556662 372.843341 
L 293.503598 371.282013 
L 293.449225 369.717245 
L 293.393565 368.149105 
L 293.336638 366.577661 
L 293.278468 365.002982 
L 293.219076 363.425135 
L 293.158483 361.844187 
L 293.096712 360.260206 
L 293.033784 358.673259 
L 292.969721 357.083414 
" clip-path="url(#pc4f9b612c5)" style="fill: none; stroke-dasharray: 5.55,2.4; stroke-dashoffset: 0; stroke: #0000ff; stroke-opacity: 0.6; stroke-width: 1.5"/>
   </g>
   <g id="line2d_76">
    <path d="M 292.969721 357.083414 
L 292.867523 354.588199 
L 292.763279 352.085762 
L 292.657075 349.576361 
L 292.548995 347.060252 
L 292.439124 344.537691 
L 292.327548 342.008932 
L 292.214352 339.474228 
L 292.099621 336.933832 
L 291.98344 334.387994 
L 291.865896 331.836967 
L 291.747072 329.280998 
L 291.627056 326.720337 
L 291.505932 324.155231 
L 291.383786 321.585925 
L 291.260705 319.012665 
L 291.136773 316.435695 
L 291.012076 313.855258 
L 290.886701 311.271596 
L 290.760733 308.68495 
L 290.634258 306.095559 
L 290.507362 303.503661 
L 290.380131 300.909495 
L 290.252651 298.313295 
L 290.125008 295.715298 
" clip-path="url(#pc4f9b612c5)" style="fill: none; stroke-dasharray: 5.55,2.4; stroke-dashoffset: 0; stroke: #0000ff; stroke-opacity: 0.6; stroke-width: 1.5"/>
   </g>
   <g id="line2d_77">
    <path d="M 340.759783 369.305932 
L 340.742043 368.582691 
L 340.722922 367.858852 
L 340.7024 367.134445 
L 340.680458 366.409498 
L 340.657077 365.68404 
L 340.632238 364.958102 
L 340.605922 364.231711 
L 340.578109 363.504898 
L 340.548782 362.77769 
L 340.51792 362.050117 
L 340.485505 361.322209 
L 340.451517 360.593993 
L 340.415938 359.8655 
L 340.378747 359.136757 
L 340.339926 358.407794 
L 340.299456 357.678639 
L 340.257317 356.949322 
L 340.213491 356.219871 
L 340.167958 355.490315 
L 340.120698 354.760682 
L 340.071693 354.031002 
L 340.020923 353.301303 
L 339.968369 352.571613 
L 339.914011 351.841961 
" clip-path="url(#pc4f9b612c5)" style="fill: none; stroke-dasharray: 5.55,2.4; stroke-dashoffset: 0; stroke: #0000ff; stroke-opacity: 0.6; stroke-width: 1.5"/>
   </g>
   <g id="line2d_78">
    <path d="M 339.914011 351.841961 
L 339.804755 350.443636 
L 339.688908 349.045532 
L 339.566575 347.647628 
L 339.437863 346.249899 
L 339.302878 344.852323 
L 339.161724 343.454876 
L 339.014509 342.057537 
L 338.861338 340.660281 
L 338.702317 339.263087 
L 338.537554 337.865931 
L 338.367153 336.46879 
L 338.191222 335.071642 
L 338.009868 333.674464 
L 337.823197 332.277233 
L 337.631317 330.879927 
L 337.434334 329.482523 
L 337.232355 328.084999 
L 337.025488 326.687332 
L 336.813841 325.2895 
L 336.59752 323.891479 
L 336.376634 322.493249 
L 336.15129 321.094786 
L 335.921597 319.696068 
L 335.687662 318.297073 
" clip-path="url(#pc4f9b612c5)" style="fill: none; stroke-dasharray: 5.55,2.4; stroke-dashoffset: 0; stroke: #0000ff; stroke-opacity: 0.6; stroke-width: 1.5"/>
   </g>
   <g id="line2d_79">
    <path d="M 335.687662 318.297073 
L 335.31297 316.106169 
L 334.927997 313.914961 
L 334.533157 311.723364 
L 334.128868 309.531291 
L 333.715546 307.338656 
L 333.293608 305.145375 
L 332.863475 302.951362 
L 332.425565 300.756532 
L 331.980298 298.5608 
L 331.528097 296.364083 
L 331.069382 294.166295 
L 330.604578 291.967354 
L 330.134108 289.767175 
L 329.658398 287.565675 
L 329.177872 285.36277 
L 328.692958 283.158378 
L 328.204083 280.952415 
L 327.711677 278.7448 
L 327.216167 276.53545 
L 326.717986 274.324283 
L 326.217563 272.111217 
L 325.715333 269.896171 
L 325.211727 267.679062 
L 324.707181 265.459812 
" clip-path="url(#pc4f9b612c5)" style="fill: none; stroke-dasharray: 5.55,2.4; stroke-dashoffset: 0; stroke: #0000ff; stroke-opacity: 0.6; stroke-width: 1.5"/>
   </g>
   <g id="line2d_80">
    <path d="M 226.655183 373.578779 
L 228.704208 371.921719 
L 230.744502 370.258306 
L 232.776097 368.588553 
L 234.799025 366.912476 
L 236.813316 365.230088 
L 238.819003 363.541405 
L 240.816117 361.84644 
L 242.804688 360.145209 
L 244.784747 358.437724 
L 246.756325 356.724001 
L 248.719453 355.004052 
L 250.674161 353.277893 
L 252.620479 351.545537 
L 254.558437 349.806997 
L 256.488065 348.062288 
L 258.409392 346.311422 
L 260.322448 344.554413 
L 262.227263 342.791276 
L 264.123866 341.022022 
L 266.012285 339.246665 
L 267.892549 337.465219 
L 269.764688 335.677696 
L 271.62873 333.884109 
L 273.484703 332.084472 
" clip-path="url(#pc4f9b612c5)" style="fill: none; stroke-dasharray: 5.55,2.4; stroke-dashoffset: 0; stroke: #0000ff; stroke-opacity: 0.6; stroke-width: 1.5"/>
   </g>
   <g id="line2d_81">
    <path d="M 294.149966 394.302291 
L 296.047819 392.572108 
L 297.946366 390.838554 
L 299.84562 389.101626 
L 301.745592 387.361322 
L 303.646294 385.617638 
L 305.547739 383.870573 
L 307.449938 382.120124 
L 309.352903 380.366288 
L 311.256645 378.609062 
L 313.161177 376.848443 
L 315.06651 375.08443 
L 316.972656 373.317018 
L 318.879627 371.546206 
L 320.787433 369.77199 
L 322.696087 367.994367 
L 324.605601 366.213335 
L 326.515985 364.42889 
L 328.427251 362.64103 
L 330.339411 360.84975 
L 332.252475 359.055049 
L 334.166456 357.256923 
L 336.081365 355.455368 
L 337.997213 353.650382 
L 339.914011 351.841961 
" clip-path="url(#pc4f9b612c5)" style="fill: none; stroke-dasharray: 5.55,2.4; stroke-dashoffset: 0; stroke: #0000ff; stroke-opacity: 0.6; stroke-width: 1.5"/>
   </g>
   <g id="line2d_82">
    <path d="M 242.158284 281.789147 
L 243.865609 277.766704 
L 245.574727 273.740039 
L 247.28564 269.709144 
L 248.998351 265.674013 
L 250.712863 261.634638 
L 252.429178 257.591014 
L 254.147301 253.543133 
L 255.867233 249.490989 
L 257.588977 245.434575 
L 259.312537 241.373884 
L 261.037915 237.30891 
L 262.765114 233.239645 
L 264.494136 229.166083 
L 266.224986 225.088218 
L 267.957665 221.006041 
L 269.692177 216.919547 
L 271.428524 212.828729 
L 273.16671 208.733579 
L 274.906737 204.634092 
L 276.648608 200.530259 
L 278.392327 196.422074 
L 280.137895 192.30953 
L 281.885317 188.192621 
L 283.634595 184.071339 
" clip-path="url(#pc4f9b612c5)" style="fill: none; stroke-dasharray: 5.55,2.4; stroke-dashoffset: 0; stroke: #0000ff; stroke-opacity: 0.6; stroke-width: 1.5"/>
   </g>
   <g id="line2d_83">
    <path d="M 277.311822 252.025412 
L 277.567661 249.275781 
L 277.824143 246.519235 
L 278.081271 243.755747 
L 278.339048 240.985292 
L 278.597475 238.207842 
L 278.856555 235.423372 
L 279.116291 232.631855 
L 279.376686 229.833263 
L 279.637741 227.027571 
L 279.899459 224.21475 
L 280.161843 221.394775 
L 280.424895 218.567617 
L 280.688619 215.733249 
L 280.953015 212.891643 
L 281.218088 210.042772 
L 281.483839 207.186608 
L 281.750272 204.323122 
L 282.017388 201.452287 
L 282.285191 198.574074 
L 282.553682 195.688454 
L 282.822866 192.7954 
L 283.092744 189.894882 
L 283.363319 186.986871 
L 283.634595 184.071339 
" clip-path="url(#pc4f9b612c5)" style="fill: none; stroke-dasharray: 5.55,2.4; stroke-dashoffset: 0; stroke: #0000ff; stroke-opacity: 0.6; stroke-width: 1.5"/>
   </g>
   <g id="line2d_84">
    <path d="M 290.125008 295.715298 
L 289.855712 291.083034 
L 289.586317 286.449076 
L 289.316824 281.813421 
L 289.047231 277.176071 
L 288.777541 272.537023 
L 288.507751 267.896276 
L 288.237863 263.25383 
L 287.967876 258.609684 
L 287.69779 253.963837 
L 287.427605 249.316287 
L 287.157321 244.667034 
L 286.886938 240.016077 
L 286.616456 235.363416 
L 286.345874 230.709048 
L 286.075194 226.052973 
L 285.804414 221.395191 
L 285.533535 216.7357 
L 285.262556 212.074499 
L 284.991478 207.411588 
L 284.720301 202.746965 
L 284.449024 198.080629 
L 284.177647 193.41258 
L 283.906171 188.742817 
L 283.634595 184.071339 
" clip-path="url(#pc4f9b612c5)" style="fill: none; stroke-dasharray: 5.55,2.4; stroke-dashoffset: 0; stroke: #0000ff; stroke-opacity: 0.6; stroke-width: 1.5"/>
   </g>
   <g id="line2d_85">
    <path d="M 324.707181 265.459812 
L 323.03226 262.140829 
L 321.354236 258.815696 
L 319.6731 255.484395 
L 317.988842 252.146909 
L 316.301454 248.803221 
L 314.610928 245.453314 
L 312.917254 242.09717 
L 311.220424 238.734771 
L 309.520429 235.366101 
L 307.81726 231.991142 
L 306.110909 228.609876 
L 304.401365 225.222285 
L 302.688621 221.828351 
L 300.972668 218.428057 
L 299.253495 215.021386 
L 297.531095 211.608318 
L 295.805458 208.188836 
L 294.076575 204.762922 
L 292.344437 201.330557 
L 290.609034 197.891724 
L 288.870358 194.446404 
L 287.128399 190.994579 
L 285.383147 187.53623 
L 283.634595 184.071339 
" clip-path="url(#pc4f9b612c5)" style="fill: none; stroke-dasharray: 5.55,2.4; stroke-dashoffset: 0; stroke: #0000ff; stroke-opacity: 0.6; stroke-width: 1.5"/>
   </g>
   <g id="Path3DCollection_4">
    <g clip-path="url(#pc4f9b612c5)">
     <use xlink:href="#m8af5e8ab09" x="411.519494" y="336.439294" style="fill: #ff0000; stroke: #ff0000"/>
    </g>
   </g>
   <g id="Path3DCollection_5">
    <g clip-path="url(#pc4f9b612c5)">
     <use xlink:href="#m8714329df3" x="272.84996" y="318.21274" style="stroke: #000000"/>
    </g>
   </g>
   <g id="Path3DCollection_6">
    <g clip-path="url(#pc4f9b612c5)">
     <use xlink:href="#m8714329df3" x="272.776461" y="284.095905" style="stroke: #000000"/>
    </g>
   </g>
   <g id="Path3DCollection_7">
    <g clip-path="url(#pc4f9b612c5)">
     <use xlink:href="#m8714329df3" x="340.549919" y="355.999935" style="stroke: #000000"/>
    </g>
   </g>
   <g id="Path3DCollection_8">
    <g clip-path="url(#pc4f9b612c5)">
     <use xlink:href="#m8714329df3" x="340.753276" y="338.248684" style="stroke: #000000"/>
    </g>
   </g>
   <g id="Path3DCollection_9">
    <g clip-path="url(#pc4f9b612c5)">
     <use xlink:href="#m8714329df3" x="188.306458" y="365.826241" style="stroke: #000000"/>
    </g>
   </g>
   <g id="Path3DCollection_10">
    <g clip-path="url(#pc4f9b612c5)">
     <use xlink:href="#m8714329df3" x="379.052076" y="367.477298" style="stroke: #000000"/>
    </g>
   </g>
   <g id="Path3DCollection_11">
    <g clip-path="url(#pc4f9b612c5)">
     <use xlink:href="#m8714329df3" x="272.659385" y="229.752006" style="stroke: #000000"/>
    </g>
   </g>
   <g id="Path3DCollection_12">
    <g clip-path="url(#pc4f9b612c5)">
     <use xlink:href="#m8714329df3" x="341.147135" y="303.868445" style="stroke: #000000"/>
    </g>
   </g>
   <g id="Path3DCollection_13">
    <g clip-path="url(#pc4f9b612c5)">
     <use xlink:href="#m8714329df3" x="226.02291" y="377.433153" style="stroke: #000000"/>
    </g>
   </g>
   <g id="Path3DCollection_14">
    <g clip-path="url(#pc4f9b612c5)">
     <use xlink:href="#m8714329df3" x="225.814537" y="359.54145" style="stroke: #000000"/>
    </g>
   </g>
   <g id="Path3DCollection_15">
    <g clip-path="url(#pc4f9b612c5)">
     <use xlink:href="#m8714329df3" x="341.774632" y="249.093661" style="stroke: #000000"/>
    </g>
   </g>
   <g id="Path3DCollection_16">
    <g clip-path="url(#pc4f9b612c5)">
     <use xlink:href="#m8714329df3" x="225.410912" y="324.884739" style="stroke: #000000"/>
    </g>
   </g>
   <g id="Path3DCollection_17">
    <g clip-path="url(#pc4f9b612c5)">
     <use xlink:href="#m8af5e8ab09" x="151.209594" y="397.936046" style="fill: #ff0000; stroke: #ff0000"/>
    </g>
   </g>
   <g id="Path3DCollection_18">
    <g clip-path="url(#pc4f9b612c5)">
     <use xlink:href="#m8714329df3" x="294.770769" y="398.589711" style="stroke: #000000"/>
    </g>
   </g>
   <g id="Path3DCollection_19">
    <g clip-path="url(#pc4f9b612c5)">
     <use xlink:href="#m8714329df3" x="294.81153" y="380.561196" style="stroke: #000000"/>
    </g>
   </g>
   <g id="Path3DCollection_20">
    <g clip-path="url(#pc4f9b612c5)">
     <use xlink:href="#m8714329df3" x="333.908003" y="410.633855" style="stroke: #000000"/>
    </g>
   </g>
   <g id="Poly3DCollection_1">
    <path d="M 276.871113 262.739622 
L 271.862786 268.050784 
L 270.438012 266.863694 
z
" clip-path="url(#pc4f9b612c5)" style="fill: #800080; fill-opacity: 0.85; stroke: #800080"/>
    <path d="M 276.871113 262.739622 
L 270.438012 266.863694 
L 269.891247 265.446417 
z
" clip-path="url(#pc4f9b612c5)" style="fill: #800080; fill-opacity: 0.85; stroke: #800080"/>
    <path d="M 276.871113 262.739622 
L 273.622354 268.554863 
L 271.862786 268.050784 
z
" clip-path="url(#pc4f9b612c5)" style="fill: #800080; fill-opacity: 0.85; stroke: #800080"/>
    <path d="M 276.871113 262.739622 
L 269.891247 265.446417 
L 270.431426 264.339515 
z
" clip-path="url(#pc4f9b612c5)" style="fill: #800080; fill-opacity: 0.85; stroke: #800080"/>
    <path d="M 276.871113 262.739622 
L 275.045329 268.182976 
L 273.622354 268.554863 
z
" clip-path="url(#pc4f9b612c5)" style="fill: #800080; fill-opacity: 0.85; stroke: #800080"/>
    <path d="M 276.871113 262.739622 
L 270.431426 264.339515 
L 271.853276 263.965905 
z
" clip-path="url(#pc4f9b612c5)" style="fill: #800080; fill-opacity: 0.85; stroke: #800080"/>
    <path d="M 276.871113 262.739622 
L 275.587622 267.076308 
L 275.045329 268.182976 
z
" clip-path="url(#pc4f9b612c5)" style="fill: #800080; fill-opacity: 0.85; stroke: #800080"/>
    <path d="M 276.871113 262.739622 
L 271.853276 263.965905 
L 273.614262 264.469153 
z
" clip-path="url(#pc4f9b612c5)" style="fill: #800080; fill-opacity: 0.85; stroke: #800080"/>
    <path d="M 276.871113 262.739622 
L 275.041038 265.657452 
L 275.587622 267.076308 
z
" clip-path="url(#pc4f9b612c5)" style="fill: #800080; fill-opacity: 0.85; stroke: #800080"/>
    <path d="M 276.871113 262.739622 
L 273.614262 264.469153 
L 275.041038 265.657452 
z
" clip-path="url(#pc4f9b612c5)" style="fill: #800080; fill-opacity: 0.85; stroke: #800080"/>
    <path d="M 345.387759 282.288693 
L 340.428934 287.69355 
L 338.981038 286.490642 
z
" clip-path="url(#pc4f9b612c5)" style="fill: #800080; fill-opacity: 0.85; stroke: #800080"/>
    <path d="M 345.387759 282.288693 
L 338.981038 286.490642 
L 338.438627 285.059727 
z
" clip-path="url(#pc4f9b612c5)" style="fill: #800080; fill-opacity: 0.85; stroke: #800080"/>
    <path d="M 345.387759 282.288693 
L 342.230298 288.209604 
L 340.428934 287.69355 
z
" clip-path="url(#pc4f9b612c5)" style="fill: #800080; fill-opacity: 0.85; stroke: #800080"/>
    <path d="M 345.387759 282.288693 
L 338.438627 285.059727 
L 339.008989 283.946563 
z
" clip-path="url(#pc4f9b612c5)" style="fill: #800080; fill-opacity: 0.85; stroke: #800080"/>
    <path d="M 345.387759 282.288693 
L 343.697815 287.841267 
L 342.230298 288.209604 
z
" clip-path="url(#pc4f9b612c5)" style="fill: #800080; fill-opacity: 0.85; stroke: #800080"/>
    <path d="M 345.387759 282.288693 
L 339.008989 283.946563 
L 340.47536 283.576464 
z
" clip-path="url(#pc4f9b612c5)" style="fill: #800080; fill-opacity: 0.85; stroke: #800080"/>
    <path d="M 345.387759 282.288693 
L 344.270372 286.728351 
L 343.697815 287.841267 
z
" clip-path="url(#pc4f9b612c5)" style="fill: #800080; fill-opacity: 0.85; stroke: #800080"/>
    <path d="M 345.387759 282.288693 
L 340.47536 283.576464 
L 342.278212 284.091676 
z
" clip-path="url(#pc4f9b612c5)" style="fill: #800080; fill-opacity: 0.85; stroke: #800080"/>
    <path d="M 345.387759 282.288693 
L 343.728172 285.295827 
L 344.270372 286.728351 
z
" clip-path="url(#pc4f9b612c5)" style="fill: #800080; fill-opacity: 0.85; stroke: #800080"/>
    <path d="M 345.387759 282.288693 
L 342.278212 284.091676 
L 343.728172 285.295827 
z
" clip-path="url(#pc4f9b612c5)" style="fill: #800080; fill-opacity: 0.85; stroke: #800080"/>
    <path d="M 229.925134 339.129877 
L 224.756924 344.652986 
L 223.312303 343.438657 
z
" clip-path="url(#pc4f9b612c5)" style="fill: #800080; fill-opacity: 0.85; stroke: #800080"/>
    <path d="M 229.925134 339.129877 
L 223.312303 343.438657 
L 222.748778 342.009443 
z
" clip-path="url(#pc4f9b612c5)" style="fill: #800080; fill-opacity: 0.85; stroke: #800080"/>
    <path d="M 229.925134 339.129877 
L 226.531875 345.189232 
L 224.756924 344.652986 
z
" clip-path="url(#pc4f9b612c5)" style="fill: #800080; fill-opacity: 0.85; stroke: #800080"/>
    <path d="M 229.925134 339.129877 
L 222.748778 342.009443 
L 223.281683 340.910453 
z
" clip-path="url(#pc4f9b612c5)" style="fill: #800080; fill-opacity: 0.85; stroke: #800080"/>
    <path d="M 229.925134 339.129877 
L 227.959907 344.842157 
L 226.531875 345.189232 
z
" clip-path="url(#pc4f9b612c5)" style="fill: #800080; fill-opacity: 0.85; stroke: #800080"/>
    <path d="M 229.925134 339.129877 
L 223.281683 340.910453 
L 224.708548 340.561603 
z
" clip-path="url(#pc4f9b612c5)" style="fill: #800080; fill-opacity: 0.85; stroke: #800080"/>
    <path d="M 229.925134 339.129877 
L 228.494977 343.743445 
L 227.959907 344.842157 
z
" clip-path="url(#pc4f9b612c5)" style="fill: #800080; fill-opacity: 0.85; stroke: #800080"/>
    <path d="M 229.925134 339.129877 
L 224.708548 340.561603 
L 226.484942 341.097028 
z
" clip-path="url(#pc4f9b612c5)" style="fill: #800080; fill-opacity: 0.85; stroke: #800080"/>
    <path d="M 229.925134 339.129877 
L 227.931624 342.312626 
L 228.494977 343.743445 
z
" clip-path="url(#pc4f9b612c5)" style="fill: #800080; fill-opacity: 0.85; stroke: #800080"/>
    <path d="M 229.925134 339.129877 
L 226.484942 341.097028 
L 227.931624 342.312626 
z
" clip-path="url(#pc4f9b612c5)" style="fill: #800080; fill-opacity: 0.85; stroke: #800080"/>
    <path d="M 299.054849 359.930322 
L 293.93606 365.553301 
L 292.467624 364.322436 
z
" clip-path="url(#pc4f9b612c5)" style="fill: #800080; fill-opacity: 0.85; stroke: #800080"/>
    <path d="M 299.054849 359.930322 
L 292.467624 364.322436 
L 291.908427 362.879408 
z
" clip-path="url(#pc4f9b612c5)" style="fill: #800080; fill-opacity: 0.85; stroke: #800080"/>
    <path d="M 299.054849 359.930322 
L 295.753903 366.102505 
L 293.93606 365.553301 
z
" clip-path="url(#pc4f9b612c5)" style="fill: #800080; fill-opacity: 0.85; stroke: #800080"/>
    <path d="M 299.054849 359.930322 
L 291.908427 362.879408 
L 292.472162 361.774587 
z
" clip-path="url(#pc4f9b612c5)" style="fill: #800080; fill-opacity: 0.85; stroke: #800080"/>
    <path d="M 299.054849 359.930322 
L 297.227557 365.759858 
L 295.753903 366.102505 
z
" clip-path="url(#pc4f9b612c5)" style="fill: #800080; fill-opacity: 0.85; stroke: #800080"/>
    <path d="M 299.054849 359.930322 
L 292.472162 361.774587 
L 293.944626 361.430123 
z
" clip-path="url(#pc4f9b612c5)" style="fill: #800080; fill-opacity: 0.85; stroke: #800080"/>
    <path d="M 299.054849 359.930322 
L 297.793542 364.65533 
L 297.227557 365.759858 
z
" clip-path="url(#pc4f9b612c5)" style="fill: #800080; fill-opacity: 0.85; stroke: #800080"/>
    <path d="M 299.054849 359.930322 
L 293.944626 361.430123 
L 295.763984 361.978498 
z
" clip-path="url(#pc4f9b612c5)" style="fill: #800080; fill-opacity: 0.85; stroke: #800080"/>
    <path d="M 299.054849 359.930322 
L 297.234545 363.210666 
L 297.793542 364.65533 
z
" clip-path="url(#pc4f9b612c5)" style="fill: #800080; fill-opacity: 0.85; stroke: #800080"/>
    <path d="M 299.054849 359.930322 
L 295.763984 361.978498 
L 297.234545 363.210666 
z
" clip-path="url(#pc4f9b612c5)" style="fill: #800080; fill-opacity: 0.85; stroke: #800080"/>
   </g>
   <g id="Poly3DCollection_2">
    <path d="M 275.587622 267.076308 
L 275.045329 268.182976 
L 273.622354 268.554863 
L 271.862786 268.050784 
L 270.438012 266.863694 
L 269.891247 265.446417 
L 270.431426 264.339515 
L 271.853276 263.965905 
L 273.614262 264.469153 
L 275.041038 265.657452 
z
" clip-path="url(#pc4f9b612c5)" style="fill: #4b0082; fill-opacity: 0.85; stroke: #4b0082"/>
    <path d="M 344.270372 286.728351 
L 343.697815 287.841267 
L 342.230298 288.209604 
L 340.428934 287.69355 
L 338.981038 286.490642 
L 338.438627 285.059727 
L 339.008989 283.946563 
L 340.47536 283.576464 
L 342.278212 284.091676 
L 343.728172 285.295827 
z
" clip-path="url(#pc4f9b612c5)" style="fill: #4b0082; fill-opacity: 0.85; stroke: #4b0082"/>
    <path d="M 228.494977 343.743445 
L 227.959907 344.842157 
L 226.531875 345.189232 
L 224.756924 344.652986 
L 223.312303 343.438657 
L 222.748778 342.009443 
L 223.281683 340.910453 
L 224.708548 340.561603 
L 226.484942 341.097028 
L 227.931624 342.312626 
z
" clip-path="url(#pc4f9b612c5)" style="fill: #4b0082; fill-opacity: 0.85; stroke: #4b0082"/>
    <path d="M 297.793542 364.65533 
L 297.227557 365.759858 
L 295.753903 366.102505 
L 293.93606 365.553301 
L 292.467624 364.322436 
L 291.908427 362.879408 
L 292.472162 361.774587 
L 293.944626 361.430123 
L 295.763984 361.978498 
L 297.234545 363.210666 
z
" clip-path="url(#pc4f9b612c5)" style="fill: #4b0082; fill-opacity: 0.85; stroke: #4b0082"/>
   </g>
   <g id="Path3DCollection_21">
    <g clip-path="url(#pc4f9b612c5)">
     <use xlink:href="#m8714329df3" x="224.767715" y="269.65735" style="stroke: #000000"/>
    </g>
   </g>
   <g id="Path3DCollection_22">
    <g clip-path="url(#pc4f9b612c5)">
     <use xlink:href="#m8714329df3" x="294.890493" y="345.635047" style="stroke: #000000"/>
    </g>
   </g>
   <g id="Poly3DCollection_3">
    <path d="M 272.776461 284.095905 
L 270.547091 272.707327 
L 273.912554 272.531747 
z
" clip-path="url(#pc4f9b612c5)" style="fill: #ff0000; fill-opacity: 0.9; stroke: #ff0000"/>
    <path d="M 272.776461 284.095905 
L 273.912554 272.531747 
L 276.838564 273.371948 
z
" clip-path="url(#pc4f9b612c5)" style="fill: #ff0000; fill-opacity: 0.9; stroke: #ff0000"/>
    <path d="M 272.776461 284.095905 
L 268.022536 273.832164 
L 270.547091 272.707327 
z
" clip-path="url(#pc4f9b612c5)" style="fill: #ff0000; fill-opacity: 0.9; stroke: #ff0000"/>
    <path d="M 272.776461 284.095905 
L 276.838564 273.371948 
L 278.210099 274.909261 
z
" clip-path="url(#pc4f9b612c5)" style="fill: #ff0000; fill-opacity: 0.9; stroke: #ff0000"/>
    <path d="M 272.776461 284.095905 
L 267.302607 275.479205 
L 268.022536 273.832164 
z
" clip-path="url(#pc4f9b612c5)" style="fill: #ff0000; fill-opacity: 0.9; stroke: #ff0000"/>
    <path d="M 272.776461 284.095905 
L 278.210099 274.909261 
L 277.499762 276.558428 
z
" clip-path="url(#pc4f9b612c5)" style="fill: #ff0000; fill-opacity: 0.9; stroke: #ff0000"/>
    <path d="M 272.776461 284.095905 
L 268.667081 277.020403 
L 267.302607 275.479205 
z
" clip-path="url(#pc4f9b612c5)" style="fill: #ff0000; fill-opacity: 0.9; stroke: #ff0000"/>
    <path d="M 272.776461 284.095905 
L 277.499762 276.558428 
L 274.974073 277.688466 
z
" clip-path="url(#pc4f9b612c5)" style="fill: #ff0000; fill-opacity: 0.9; stroke: #ff0000"/>
    <path d="M 272.776461 284.095905 
L 271.598319 277.865133 
L 268.667081 277.020403 
z
" clip-path="url(#pc4f9b612c5)" style="fill: #ff0000; fill-opacity: 0.9; stroke: #ff0000"/>
    <path d="M 272.776461 284.095905 
L 274.974073 277.688466 
L 271.598319 277.865133 
z
" clip-path="url(#pc4f9b612c5)" style="fill: #ff0000; fill-opacity: 0.9; stroke: #ff0000"/>
    <path d="M 341.147135 303.868445 
L 338.910562 292.351291 
L 342.308364 292.171553 
z
" clip-path="url(#pc4f9b612c5)" style="fill: #ff0000; fill-opacity: 0.9; stroke: #ff0000"/>
    <path d="M 341.147135 303.868445 
L 342.308364 292.171553 
L 345.303689 293.031658 
z
" clip-path="url(#pc4f9b612c5)" style="fill: #ff0000; fill-opacity: 0.9; stroke: #ff0000"/>
    <path d="M 341.147135 303.868445 
L 336.402894 293.50278 
L 338.910562 292.351291 
z
" clip-path="url(#pc4f9b612c5)" style="fill: #ff0000; fill-opacity: 0.9; stroke: #ff0000"/>
    <path d="M 341.147135 303.868445 
L 345.303689 293.031658 
L 346.755194 294.605414 
z
" clip-path="url(#pc4f9b612c5)" style="fill: #ff0000; fill-opacity: 0.9; stroke: #ff0000"/>
    <path d="M 341.147135 303.868445 
L 335.742726 295.188878 
L 336.402894 293.50278 
z
" clip-path="url(#pc4f9b612c5)" style="fill: #ff0000; fill-opacity: 0.9; stroke: #ff0000"/>
    <path d="M 341.147135 303.868445 
L 346.755194 294.605414 
L 346.104934 296.293715 
z
" clip-path="url(#pc4f9b612c5)" style="fill: #ff0000; fill-opacity: 0.9; stroke: #ff0000"/>
    <path d="M 341.147135 303.868445 
L 337.187166 296.766659 
L 335.742726 295.188878 
z
" clip-path="url(#pc4f9b612c5)" style="fill: #ff0000; fill-opacity: 0.9; stroke: #ff0000"/>
    <path d="M 341.147135 303.868445 
L 346.104934 296.293715 
L 343.596324 297.45059 
z
" clip-path="url(#pc4f9b612c5)" style="fill: #ff0000; fill-opacity: 0.9; stroke: #ff0000"/>
    <path d="M 341.147135 303.868445 
L 340.188032 297.631455 
L 337.187166 296.766659 
z
" clip-path="url(#pc4f9b612c5)" style="fill: #ff0000; fill-opacity: 0.9; stroke: #ff0000"/>
    <path d="M 341.147135 303.868445 
L 343.596324 297.45059 
L 340.188032 297.631455 
z
" clip-path="url(#pc4f9b612c5)" style="fill: #ff0000; fill-opacity: 0.9; stroke: #ff0000"/>
    <path d="M 225.410912 324.884739 
L 223.114041 313.231061 
L 226.566346 313.046849 
z
" clip-path="url(#pc4f9b612c5)" style="fill: #ff0000; fill-opacity: 0.9; stroke: #ff0000"/>
    <path d="M 225.410912 324.884739 
L 226.566346 313.046849 
L 229.539027 313.928366 
z
" clip-path="url(#pc4f9b612c5)" style="fill: #ff0000; fill-opacity: 0.9; stroke: #ff0000"/>
    <path d="M 225.410912 324.884739 
L 220.495373 314.411221 
L 223.114041 313.231061 
z
" clip-path="url(#pc4f9b612c5)" style="fill: #ff0000; fill-opacity: 0.9; stroke: #ff0000"/>
    <path d="M 225.410912 324.884739 
L 229.539027 313.928366 
L 230.899296 315.541327 
z
" clip-path="url(#pc4f9b612c5)" style="fill: #ff0000; fill-opacity: 0.9; stroke: #ff0000"/>
    <path d="M 225.410912 324.884739 
L 219.709904 316.139336 
L 220.495373 314.411221 
z
" clip-path="url(#pc4f9b612c5)" style="fill: #ff0000; fill-opacity: 0.9; stroke: #ff0000"/>
    <path d="M 225.410912 324.884739 
L 230.899296 315.541327 
L 230.123828 317.271728 
z
" clip-path="url(#pc4f9b612c5)" style="fill: #ff0000; fill-opacity: 0.9; stroke: #ff0000"/>
    <path d="M 225.410912 324.884739 
L 221.062649 317.756474 
L 219.709904 316.139336 
z
" clip-path="url(#pc4f9b612c5)" style="fill: #ff0000; fill-opacity: 0.9; stroke: #ff0000"/>
    <path d="M 225.410912 324.884739 
L 230.123828 317.271728 
L 227.503816 318.457477 
z
" clip-path="url(#pc4f9b612c5)" style="fill: #ff0000; fill-opacity: 0.9; stroke: #ff0000"/>
    <path d="M 225.410912 324.884739 
L 224.04068 318.642857 
L 221.062649 317.756474 
z
" clip-path="url(#pc4f9b612c5)" style="fill: #ff0000; fill-opacity: 0.9; stroke: #ff0000"/>
    <path d="M 225.410912 324.884739 
L 227.503816 318.457477 
L 224.04068 318.642857 
z
" clip-path="url(#pc4f9b612c5)" style="fill: #ff0000; fill-opacity: 0.9; stroke: #ff0000"/>
    <path d="M 294.890493 345.635047 
L 292.585744 333.846715 
L 296.07211 333.658033 
z
" clip-path="url(#pc4f9b612c5)" style="fill: #ff0000; fill-opacity: 0.9; stroke: #ff0000"/>
    <path d="M 294.890493 345.635047 
L 296.07211 333.658033 
L 299.116953 334.560948 
z
" clip-path="url(#pc4f9b612c5)" style="fill: #ff0000; fill-opacity: 0.9; stroke: #ff0000"/>
    <path d="M 294.890493 345.635047 
L 289.984017 335.055529 
L 292.585744 333.846715 
z
" clip-path="url(#pc4f9b612c5)" style="fill: #ff0000; fill-opacity: 0.9; stroke: #ff0000"/>
    <path d="M 294.890493 345.635047 
L 299.116953 334.560948 
L 300.560086 336.213093 
z
" clip-path="url(#pc4f9b612c5)" style="fill: #ff0000; fill-opacity: 0.9; stroke: #ff0000"/>
    <path d="M 294.890493 345.635047 
L 289.260122 336.825638 
L 289.984017 335.055529 
z
" clip-path="url(#pc4f9b612c5)" style="fill: #ff0000; fill-opacity: 0.9; stroke: #ff0000"/>
    <path d="M 294.890493 345.635047 
L 300.560086 336.213093 
L 299.846529 337.985572 
z
" clip-path="url(#pc4f9b612c5)" style="fill: #ff0000; fill-opacity: 0.9; stroke: #ff0000"/>
    <path d="M 294.890493 345.635047 
L 290.695722 338.482113 
L 289.260122 336.825638 
z
" clip-path="url(#pc4f9b612c5)" style="fill: #ff0000; fill-opacity: 0.9; stroke: #ff0000"/>
    <path d="M 294.890493 345.635047 
L 299.846529 337.985572 
L 297.243659 339.20018 
z
" clip-path="url(#pc4f9b612c5)" style="fill: #ff0000; fill-opacity: 0.9; stroke: #ff0000"/>
    <path d="M 294.890493 345.635047 
L 293.746247 339.390074 
L 290.695722 338.482113 
z
" clip-path="url(#pc4f9b612c5)" style="fill: #ff0000; fill-opacity: 0.9; stroke: #ff0000"/>
    <path d="M 294.890493 345.635047 
L 297.243659 339.20018 
L 293.746247 339.390074 
z
" clip-path="url(#pc4f9b612c5)" style="fill: #ff0000; fill-opacity: 0.9; stroke: #ff0000"/>
   </g>
   <g id="Poly3DCollection_4">
    <path d="M 277.499762 276.558428 
L 274.974073 277.688466 
L 271.598319 277.865133 
L 268.667081 277.020403 
L 267.302607 275.479205 
L 268.022536 273.832164 
L 270.547091 272.707327 
L 273.912554 272.531747 
L 276.838564 273.371948 
L 278.210099 274.909261 
z
" clip-path="url(#pc4f9b612c5)" style="fill: #8b0000; fill-opacity: 0.9; stroke: #8b0000"/>
    <path d="M 346.104934 296.293715 
L 343.596324 297.45059 
L 340.188032 297.631455 
L 337.187166 296.766659 
L 335.742726 295.188878 
L 336.402894 293.50278 
L 338.910562 292.351291 
L 342.308364 292.171553 
L 345.303689 293.031658 
L 346.755194 294.605414 
z
" clip-path="url(#pc4f9b612c5)" style="fill: #8b0000; fill-opacity: 0.9; stroke: #8b0000"/>
    <path d="M 230.123828 317.271728 
L 227.503816 318.457477 
L 224.04068 318.642857 
L 221.062649 317.756474 
L 219.709904 316.139336 
L 220.495373 314.411221 
L 223.114041 313.231061 
L 226.566346 313.046849 
L 229.539027 313.928366 
L 230.899296 315.541327 
z
" clip-path="url(#pc4f9b612c5)" style="fill: #8b0000; fill-opacity: 0.9; stroke: #8b0000"/>
    <path d="M 299.846529 337.985572 
L 297.243659 339.20018 
L 293.746247 339.390074 
L 290.695722 338.482113 
L 289.260122 336.825638 
L 289.984017 335.055529 
L 292.585744 333.846715 
L 296.07211 333.658033 
L 299.116953 334.560948 
L 300.560086 336.213093 
z
" clip-path="url(#pc4f9b612c5)" style="fill: #8b0000; fill-opacity: 0.9; stroke: #8b0000"/>
   </g>
   <g id="Path3DCollection_23">
    <g clip-path="url(#pc4f9b612c5)">
     <use xlink:href="#m8af5e8ab09" x="283.634595" y="184.071339" style="fill: #ff0000; stroke: #ff0000"/>
    </g>
   </g>
   <g id="Path3DCollection_24">
    <g clip-path="url(#pc4f9b612c5)">
     <use xlink:href="#m8714329df3" x="295.016354" y="289.966227" style="stroke: #000000"/>
    </g>
   </g>
   <g id="Path3DCollection_25">
    <g clip-path="url(#pc4f9b612c5)">
     <use xlink:href="#m8af5e8ab09" x="298.572628" y="444.413552" style="fill: #ff0000; stroke: #ff0000"/>
    </g>
   </g>
   <g id="line2d_86">
    <path d="M 224.987273 288.509477 
L 225.305577 315.840279 
" clip-path="url(#pc4f9b612c5)" style="fill: none; stroke: #ff0000; stroke-width: 2.5; stroke-linecap: square"/>
   </g>
   <g id="line2d_87">
    <path d="M 272.699342 248.29935 
L 272.757283 275.194184 
" clip-path="url(#pc4f9b612c5)" style="fill: none; stroke: #ff0000; stroke-width: 2.5; stroke-linecap: square"/>
   </g>
   <g id="line2d_88">
    <path d="M 294.973387 308.970706 
L 294.911103 336.519311 
" clip-path="url(#pc4f9b612c5)" style="fill: none; stroke: #ff0000; stroke-width: 2.5; stroke-linecap: square"/>
   </g>
   <g id="line2d_89">
    <path d="M 341.560452 267.789628 
L 341.24991 294.897096 
" clip-path="url(#pc4f9b612c5)" style="fill: none; stroke: #ff0000; stroke-width: 2.5; stroke-linecap: square"/>
   </g>
   <g id="line2d_90">
    <path d="M 239.740796 312.544562 
L 239.527768 309.79672 
L 238.944584 307.439967 
L 238.005418 305.536336 
L 236.733613 304.136632 
L 235.161213 303.279023 
L 233.328266 302.987911 
L 231.281922 303.273101 
L 229.075301 304.129321 
L 226.766188 305.536126 
L 224.415544 307.458214 
L 222.085894 309.846169 
L 219.839619 312.637628 
L 217.737206 315.758863 
L 215.835518 319.12674 
L 214.186144 322.651001 
L 212.833873 326.236803 
L 211.81538 329.78743 
L 211.158141 333.207076 
L 210.879645 336.403617 
L 210.986914 339.291248 
L 211.476349 341.792912 
L 212.333916 343.842439 
L 213.535631 345.386303 
L 215.048343 346.384991 
L 216.830766 346.813908 
L 218.834715 346.663845 
L 221.006505 345.941 
L 223.288453 344.666579 
L 225.620445 342.876011 
" clip-path="url(#pc4f9b612c5)" style="fill: none; stroke: #800080; stroke-width: 2.5; stroke-linecap: square"/>
   </g>
   <g id="line2d_91">
    <path d="M 286.437336 272.331845 
L 286.257133 275.346031 
L 285.724643 278.586701 
L 284.853861 281.970252 
L 283.667271 285.409582 
L 282.195295 288.816168 
L 280.475582 292.10219 
L 278.552128 295.182639 
L 276.474257 297.977399 
L 274.295457 300.413249 
L 272.072102 302.42574 
L 269.862076 303.960926 
L 267.72332 304.976872 
L 265.712341 305.444914 
L 263.882706 305.350609 
L 262.283573 304.694336 
L 260.9583 303.491508 
L 259.943172 301.772365 
L 259.266303 299.581335 
L 258.946746 296.975956 
L 258.993867 294.025385 
L 259.406992 290.808523 
L 260.175363 287.411814 
L 261.27841 283.926788 
L 262.686325 280.447432 
L 264.360928 277.067484 
L 266.256789 273.87774 
L 268.322565 270.963481 
L 270.502501 268.402091 
L 272.738038 266.260963 
" clip-path="url(#pc4f9b612c5)" style="fill: none; stroke: #800080; stroke-width: 2.5; stroke-linecap: square"/>
   </g>
   <g id="line2d_92">
    <path d="M 308.887681 332.996539 
L 308.719338 330.229749 
L 308.188474 327.862254 
L 307.307913 325.956385 
L 306.099479 324.563036 
L 304.59356 323.720257 
L 302.828463 323.452114 
L 300.849544 323.767866 
L 298.708137 324.661491 
L 296.460285 326.111608 
L 294.16531 328.081807 
L 291.88424 330.521421 
L 289.678143 333.366725 
L 287.60642 336.542549 
L 285.725107 339.964283 
L 284.085239 343.540196 
L 282.731354 347.174027 
L 281.700174 350.767733 
L 281.019528 354.224319 
L 280.707543 357.450643 
L 280.772153 360.360087 
L 281.210915 362.875013 
L 282.011158 364.928909 
L 283.150435 366.468168 
L 284.597258 367.453439 
L 286.312086 367.860539 
L 288.248516 367.680891 
L 290.354631 366.921533 
L 292.574459 365.604682 
L 294.849499 363.766921 
" clip-path="url(#pc4f9b612c5)" style="fill: none; stroke: #800080; stroke-width: 2.5; stroke-linecap: square"/>
   </g>
   <g id="line2d_93">
    <path d="M 354.483274 291.826818 
L 354.268336 294.866865 
L 353.710567 298.139908 
L 352.824607 301.561528 
L 351.63332 305.043665 
L 350.167244 308.496721 
L 348.463873 311.831704 
L 346.566784 314.962366 
L 344.524624 317.807306 
L 342.389965 320.292006 
L 340.218047 322.350741 
L 338.065426 323.928336 
L 335.988561 324.981716 
L 334.042348 325.481191 
L 332.278662 325.411439 
L 330.744932 324.772138 
L 329.482788 323.5782 
L 328.526838 321.859582 
L 327.903616 319.660663 
L 327.630736 317.039167 
L 327.716305 314.064674 
L 328.158606 310.816729 
L 328.946085 307.382627 
L 330.05765 303.854927 
L 331.463255 300.328796 
L 333.124779 296.899259 
L 334.997144 293.658472 
L 337.029642 290.693104 
L 339.167418 288.081916 
L 341.353053 285.893625 
" clip-path="url(#pc4f9b612c5)" style="fill: none; stroke: #800080; stroke-width: 2.5; stroke-linecap: square"/>
   </g>
  </g>
 </g>
 <defs>
  <clipPath id="pc4f9b612c5">
   <rect x="7.2" y="22.318125" width="538.32" height="538.32"/>
  </clipPath>
 </defs>
</svg>
